<svg xmlns="http://www.w3.org/2000/svg" xmlns:xlink="http://www.w3.org/1999/xlink" width="25" zoomAndPan="magnify" viewBox="0 0 18.75 19.5" height="26" preserveAspectRatio="xMidYMid meet" version="1.0"><defs><clipPath id="c9dfe3d349"><path d="M 0.113281 0 L 18.394531 0 L 18.394531 19 L 0.113281 19 Z M 0.113281 0 " clip-rule="nonzero"/></clipPath></defs><g clip-path="url(#c9dfe3d349)"><path fill="#f381c2" d="M 18.300781 8.578125 L 18.300781 16.050781 C 18.300781 17.597656 17.050781 18.851562 15.503906 18.851562 L 12.707031 18.851562 C 11.550781 18.851562 10.609375 17.914062 10.609375 16.757812 L 10.609375 15.351562 C 10.609375 14.96875 10.292969 14.660156 9.90625 14.660156 L 8.507812 14.660156 C 8.125 14.660156 7.808594 14.96875 7.808594 15.351562 L 7.808594 16.757812 C 7.808594 17.914062 6.863281 18.851562 5.710938 18.851562 L 2.910156 18.851562 C 1.363281 18.851562 0.113281 17.597656 0.113281 16.050781 L 0.113281 8.578125 C 0.113281 7.804688 0.441406 7.046875 1.023438 6.523438 L 7.316406 0.75 C 7.855469 0.253906 8.535156 0.00390625 9.207031 0.00390625 C 9.878906 0.00390625 10.558594 0.253906 11.097656 0.75 L 17.394531 6.523438 C 17.972656 7.046875 18.300781 7.804688 18.300781 8.578125 Z M 18.300781 8.578125 " fill-opacity="1" fill-rule="nonzero"/></g></svg>