<svg xmlns="http://www.w3.org/2000/svg" xmlns:xlink="http://www.w3.org/1999/xlink" width="21" zoomAndPan="magnify" viewBox="0 0 15.75 19.5" height="26" preserveAspectRatio="xMidYMid meet" version="1.0"><defs><clipPath id="08da42a78c"><path d="M 0.0742188 0 L 15.429688 0 L 15.429688 19 L 0.0742188 19 Z M 0.0742188 0 " clip-rule="nonzero"/></clipPath></defs><g clip-path="url(#08da42a78c)"><path fill="#f6f6ff" d="M 15.332031 17.429688 L 15.332031 6.832031 C 15.332031 6.644531 15.296875 6.460938 15.222656 6.285156 C 15.152344 6.109375 15.046875 5.953125 14.914062 5.820312 C 14.777344 5.6875 14.625 5.582031 14.449219 5.507812 C 14.273438 5.4375 14.089844 5.398438 13.902344 5.398438 L 11.195312 5.398438 L 11.195312 3.460938 C 11.195312 2.996094 11.105469 2.554688 10.929688 2.125 C 10.753906 1.699219 10.5 1.324219 10.175781 0.996094 C 9.847656 0.671875 9.472656 0.417969 9.042969 0.242188 C 8.617188 0.0664062 8.171875 -0.0234375 7.710938 -0.0234375 C 7.25 -0.0234375 6.804688 0.0664062 6.378906 0.242188 C 5.953125 0.417969 5.574219 0.671875 5.25 0.996094 C 4.921875 1.324219 4.671875 1.699219 4.496094 2.125 C 4.316406 2.554688 4.230469 2.996094 4.230469 3.460938 L 4.230469 5.398438 L 1.523438 5.398438 C 1.332031 5.398438 1.152344 5.4375 0.976562 5.507812 C 0.800781 5.582031 0.644531 5.6875 0.511719 5.820312 C 0.375 5.953125 0.273438 6.109375 0.199219 6.285156 C 0.125 6.460938 0.0898438 6.644531 0.0898438 6.832031 L 0.0898438 17.429688 C 0.0898438 17.617188 0.125 17.800781 0.199219 17.976562 C 0.273438 18.152344 0.375 18.304688 0.511719 18.441406 C 0.644531 18.574219 0.800781 18.679688 0.976562 18.75 C 1.152344 18.824219 1.332031 18.859375 1.523438 18.863281 L 13.902344 18.863281 C 14.089844 18.859375 14.273438 18.824219 14.449219 18.75 C 14.625 18.679688 14.777344 18.574219 14.914062 18.441406 C 15.046875 18.304688 15.152344 18.152344 15.222656 17.976562 C 15.296875 17.800781 15.332031 17.617188 15.332031 17.429688 Z M 5.246094 3.460938 C 5.246094 3.132812 5.308594 2.820312 5.433594 2.515625 C 5.558594 2.214844 5.738281 1.949219 5.96875 1.71875 C 6.199219 1.484375 6.46875 1.308594 6.769531 1.183594 C 7.070312 1.058594 7.386719 0.996094 7.710938 0.996094 C 8.039062 0.996094 8.351562 1.058594 8.65625 1.183594 C 8.957031 1.308594 9.222656 1.484375 9.453125 1.71875 C 9.683594 1.949219 9.863281 2.214844 9.988281 2.515625 C 10.113281 2.820312 10.175781 3.132812 10.175781 3.460938 L 10.175781 5.398438 L 5.246094 5.398438 Z M 1.109375 17.429688 L 1.109375 6.832031 C 1.109375 6.71875 1.148438 6.621094 1.230469 6.539062 C 1.3125 6.457031 1.410156 6.417969 1.523438 6.417969 L 4.230469 6.417969 L 4.230469 7.65625 L 4.113281 7.65625 C 3.972656 7.65625 3.855469 7.703125 3.753906 7.804688 C 3.65625 7.902344 3.605469 8.023438 3.605469 8.164062 C 3.605469 8.304688 3.65625 8.425781 3.753906 8.523438 C 3.855469 8.625 3.972656 8.671875 4.113281 8.671875 L 5.363281 8.671875 C 5.503906 8.671875 5.621094 8.625 5.722656 8.523438 C 5.820312 8.425781 5.871094 8.304688 5.871094 8.164062 C 5.871094 8.023438 5.820312 7.902344 5.722656 7.804688 C 5.621094 7.703125 5.503906 7.65625 5.363281 7.65625 L 5.246094 7.65625 L 5.246094 6.417969 L 10.175781 6.417969 L 10.175781 7.65625 L 10.160156 7.65625 C 10.019531 7.65625 9.898438 7.703125 9.800781 7.804688 C 9.703125 7.902344 9.652344 8.023438 9.652344 8.164062 C 9.652344 8.304688 9.703125 8.425781 9.800781 8.523438 C 9.898438 8.625 10.019531 8.671875 10.160156 8.671875 L 11.210938 8.671875 C 11.351562 8.671875 11.46875 8.625 11.570312 8.523438 C 11.667969 8.425781 11.71875 8.304688 11.71875 8.164062 C 11.71875 8.023438 11.667969 7.902344 11.570312 7.804688 C 11.46875 7.703125 11.351562 7.65625 11.210938 7.65625 L 11.195312 7.65625 L 11.195312 6.417969 L 13.902344 6.417969 C 14.015625 6.417969 14.113281 6.457031 14.195312 6.539062 C 14.273438 6.621094 14.316406 6.71875 14.316406 6.832031 L 14.316406 17.429688 C 14.316406 17.542969 14.273438 17.640625 14.195312 17.722656 C 14.113281 17.800781 14.015625 17.84375 13.902344 17.84375 L 1.523438 17.84375 C 1.410156 17.84375 1.3125 17.800781 1.230469 17.722656 C 1.148438 17.640625 1.109375 17.542969 1.109375 17.429688 Z M 1.109375 17.429688 " fill-opacity="1" fill-rule="nonzero"/></g></svg>