<svg xmlns="http://www.w3.org/2000/svg" xmlns:xlink="http://www.w3.org/1999/xlink" width="39" zoomAndPan="magnify" viewBox="0 0 29.25 19.499999" height="26" preserveAspectRatio="xMidYMid meet" version="1.0"><defs><clipPath id="ab5eab59be"><path d="M 17 12 L 27.789062 12 L 27.789062 19 L 17 19 Z M 17 12 " clip-rule="nonzero"/></clipPath></defs><path fill="#ffffff" d="M 5.140625 12.476562 C 6.914062 12.476562 8.355469 11.03125 8.355469 9.261719 C 8.355469 7.488281 6.914062 6.046875 5.140625 6.046875 C 3.367188 6.046875 1.925781 7.488281 1.925781 9.261719 C 1.925781 11.03125 3.367188 12.476562 5.140625 12.476562 Z M 5.140625 6.972656 C 6.398438 6.972656 7.425781 8 7.425781 9.261719 C 7.425781 10.519531 6.398438 11.546875 5.140625 11.546875 C 3.878906 11.546875 2.855469 10.519531 2.855469 9.261719 C 2.855469 8 3.878906 6.972656 5.140625 6.972656 Z M 5.140625 6.972656 " fill-opacity="1" fill-rule="nonzero"/><path fill="#ffffff" d="M 1.886719 18.738281 C 2.746094 18.8125 3.902344 18.851562 5.140625 18.851562 C 10.28125 18.851562 10.28125 18.363281 10.28125 17.933594 C 10.28125 15.097656 7.972656 12.792969 5.140625 12.792969 C 2.304688 12.792969 0 15.097656 0 17.933594 C 0 18.476562 0.609375 18.625 1.886719 18.738281 Z M 5.140625 13.722656 C 7.375 13.722656 9.210938 15.476562 9.34375 17.679688 C 8.09375 18.003906 2.1875 18.003906 0.9375 17.679688 C 1.070312 15.476562 2.902344 13.722656 5.140625 13.722656 Z M 5.140625 13.722656 " fill-opacity="1" fill-rule="nonzero"/><path fill="#ffffff" d="M 13.964844 6.433594 C 15.734375 6.433594 17.179688 4.992188 17.179688 3.21875 C 17.179688 1.445312 15.734375 0.00390625 13.964844 0.00390625 C 12.191406 0.00390625 10.75 1.445312 10.75 3.21875 C 10.75 4.992188 12.191406 6.433594 13.964844 6.433594 Z M 13.964844 0.933594 C 15.222656 0.933594 16.25 1.957031 16.25 3.21875 C 16.25 4.476562 15.222656 5.503906 13.964844 5.503906 C 12.703125 5.503906 11.679688 4.476562 11.679688 3.21875 C 11.679688 1.957031 12.703125 0.933594 13.964844 0.933594 Z M 13.964844 0.933594 " fill-opacity="1" fill-rule="nonzero"/><path fill="#ffffff" d="M 10.710938 12.695312 C 11.570312 12.769531 12.726562 12.8125 13.964844 12.8125 C 19.105469 12.8125 19.105469 12.320312 19.105469 11.890625 C 19.105469 9.054688 16.796875 6.75 13.964844 6.75 C 11.128906 6.75 8.824219 9.054688 8.824219 11.890625 C 8.824219 12.4375 9.429688 12.585938 10.710938 12.695312 Z M 13.964844 7.679688 C 16.199219 7.679688 18.035156 9.433594 18.167969 11.636719 C 16.917969 11.964844 11.011719 11.964844 9.761719 11.636719 C 9.890625 9.433594 11.726562 7.679688 13.964844 7.679688 Z M 13.964844 7.679688 " fill-opacity="1" fill-rule="nonzero"/><path fill="#ffffff" d="M 22.738281 12.476562 C 24.511719 12.476562 25.953125 11.03125 25.953125 9.261719 C 25.953125 7.488281 24.511719 6.046875 22.738281 6.046875 C 20.964844 6.046875 19.523438 7.488281 19.523438 9.261719 C 19.523438 11.03125 20.964844 12.476562 22.738281 12.476562 Z M 22.738281 6.972656 C 24 6.972656 25.023438 8 25.023438 9.261719 C 25.023438 10.519531 24 11.546875 22.738281 11.546875 C 21.480469 11.546875 20.453125 10.519531 20.453125 9.261719 C 20.453125 8 21.480469 6.972656 22.738281 6.972656 Z M 22.738281 6.972656 " fill-opacity="1" fill-rule="nonzero"/><g clip-path="url(#ab5eab59be)"><path fill="#ffffff" d="M 22.738281 12.792969 C 19.90625 12.792969 17.597656 15.097656 17.597656 17.933594 C 17.597656 18.476562 18.207031 18.625 19.484375 18.738281 C 20.34375 18.8125 21.5 18.851562 22.738281 18.851562 C 27.878906 18.851562 27.878906 18.363281 27.878906 17.933594 C 27.878906 15.097656 25.574219 12.792969 22.738281 12.792969 Z M 18.535156 17.679688 C 18.667969 15.476562 20.503906 13.722656 22.738281 13.722656 C 24.976562 13.722656 26.808594 15.476562 26.941406 17.679688 C 25.691406 18.003906 19.785156 18.003906 18.535156 17.679688 Z M 18.535156 17.679688 " fill-opacity="1" fill-rule="nonzero"/></g></svg>