<svg xmlns="http://www.w3.org/2000/svg" xmlns:xlink="http://www.w3.org/1999/xlink" width="21" zoomAndPan="magnify" viewBox="0 0 15.75 19.5" height="26" preserveAspectRatio="xMidYMid meet" version="1.0"><defs><clipPath id="d763374c88"><path d="M 0.0742188 10 L 15.429688 10 L 15.429688 19 L 0.0742188 19 Z M 0.0742188 10 " clip-rule="nonzero"/></clipPath></defs><path fill="#ffffff" d="M 7.6875 9.460938 C 8 9.460938 8.308594 9.429688 8.613281 9.371094 C 8.917969 9.308594 9.214844 9.21875 9.5 9.101562 C 9.789062 8.980469 10.058594 8.835938 10.316406 8.664062 C 10.578125 8.492188 10.816406 8.296875 11.035156 8.074219 C 11.253906 7.855469 11.453125 7.617188 11.625 7.359375 C 11.796875 7.101562 11.941406 6.828125 12.0625 6.539062 C 12.179688 6.253906 12.269531 5.957031 12.332031 5.652344 C 12.390625 5.347656 12.421875 5.039062 12.421875 4.730469 C 12.421875 4.417969 12.390625 4.109375 12.332031 3.804688 C 12.269531 3.5 12.179688 3.203125 12.0625 2.917969 C 11.941406 2.628906 11.796875 2.359375 11.625 2.097656 C 11.453125 1.839844 11.253906 1.601562 11.035156 1.382812 C 10.816406 1.164062 10.578125 0.964844 10.316406 0.792969 C 10.058594 0.621094 9.789062 0.476562 9.5 0.355469 C 9.214844 0.238281 8.917969 0.148438 8.613281 0.0859375 C 8.308594 0.0273438 8 -0.00390625 7.6875 -0.00390625 C 7.378906 -0.00390625 7.070312 0.0273438 6.765625 0.0859375 C 6.460938 0.148438 6.164062 0.238281 5.878906 0.355469 C 5.589844 0.476562 5.316406 0.621094 5.058594 0.792969 C 4.800781 0.964844 4.5625 1.164062 4.34375 1.382812 C 4.121094 1.601562 3.925781 1.839844 3.753906 2.097656 C 3.582031 2.359375 3.4375 2.628906 3.316406 2.917969 C 3.199219 3.203125 3.109375 3.5 3.046875 3.804688 C 2.988281 4.109375 2.957031 4.417969 2.957031 4.730469 C 2.957031 5.039062 2.988281 5.347656 3.046875 5.652344 C 3.109375 5.957031 3.199219 6.253906 3.316406 6.539062 C 3.4375 6.824219 3.582031 7.097656 3.753906 7.355469 C 3.929688 7.613281 4.125 7.855469 4.34375 8.074219 C 4.5625 8.292969 4.800781 8.488281 5.0625 8.664062 C 5.320312 8.835938 5.589844 8.980469 5.878906 9.101562 C 6.164062 9.21875 6.460938 9.308594 6.765625 9.371094 C 7.070312 9.429688 7.378906 9.460938 7.6875 9.460938 Z M 7.6875 0.816406 C 7.945312 0.816406 8.199219 0.839844 8.453125 0.890625 C 8.703125 0.941406 8.949219 1.015625 9.1875 1.113281 C 9.425781 1.210938 9.648438 1.332031 9.863281 1.472656 C 10.078125 1.617188 10.273438 1.78125 10.457031 1.960938 C 10.636719 2.144531 10.800781 2.339844 10.945312 2.554688 C 11.085938 2.769531 11.207031 2.992188 11.304688 3.230469 C 11.402344 3.46875 11.476562 3.714844 11.527344 3.964844 C 11.578125 4.21875 11.601562 4.472656 11.601562 4.730469 C 11.601562 4.984375 11.578125 5.242188 11.527344 5.492188 C 11.476562 5.746094 11.402344 5.988281 11.304688 6.226562 C 11.207031 6.464844 11.085938 6.691406 10.945312 6.902344 C 10.800781 7.117188 10.636719 7.316406 10.457031 7.496094 C 10.273438 7.679688 10.078125 7.839844 9.863281 7.984375 C 9.648438 8.125 9.425781 8.246094 9.1875 8.34375 C 8.949219 8.445312 8.703125 8.519531 8.453125 8.566406 C 8.199219 8.617188 7.945312 8.644531 7.6875 8.644531 C 7.433594 8.644531 7.175781 8.617188 6.925781 8.566406 C 6.671875 8.519531 6.429688 8.445312 6.191406 8.34375 C 5.953125 8.246094 5.726562 8.125 5.515625 7.984375 C 5.300781 7.839844 5.101562 7.679688 4.921875 7.496094 C 4.738281 7.316406 4.578125 7.117188 4.433594 6.902344 C 4.292969 6.691406 4.171875 6.464844 4.074219 6.226562 C 3.972656 5.988281 3.898438 5.746094 3.851562 5.492188 C 3.800781 5.242188 3.773438 4.984375 3.773438 4.730469 C 3.773438 4.472656 3.800781 4.21875 3.851562 3.964844 C 3.902344 3.714844 3.976562 3.46875 4.074219 3.230469 C 4.171875 2.996094 4.292969 2.769531 4.4375 2.554688 C 4.578125 2.339844 4.742188 2.144531 4.921875 1.960938 C 5.105469 1.78125 5.300781 1.617188 5.515625 1.476562 C 5.730469 1.332031 5.953125 1.210938 6.191406 1.113281 C 6.429688 1.015625 6.671875 0.941406 6.925781 0.890625 C 7.175781 0.839844 7.433594 0.816406 7.6875 0.816406 Z M 7.6875 0.816406 " fill-opacity="1" fill-rule="nonzero"/><g clip-path="url(#d763374c88)"><path fill="#ffffff" d="M 7.6875 10.214844 C 7.191406 10.214844 6.699219 10.265625 6.210938 10.363281 C 5.722656 10.460938 5.246094 10.605469 4.785156 10.796875 C 4.328125 10.984375 3.890625 11.21875 3.476562 11.496094 C 3.0625 11.773438 2.679688 12.089844 2.324219 12.441406 C 1.972656 12.792969 1.660156 13.175781 1.382812 13.589844 C 1.105469 14.003906 0.871094 14.441406 0.679688 14.902344 C 0.488281 15.359375 0.347656 15.835938 0.25 16.324219 C 0.152344 16.8125 0.101562 17.304688 0.101562 17.804688 C 0.101562 17.945312 0.128906 18.078125 0.183594 18.210938 C 0.234375 18.339844 0.3125 18.453125 0.410156 18.554688 C 0.511719 18.652344 0.625 18.730469 0.757812 18.785156 C 0.886719 18.839844 1.023438 18.863281 1.164062 18.863281 L 14.214844 18.863281 C 14.566406 18.863281 14.851562 18.722656 15.0625 18.441406 C 15.207031 18.253906 15.277344 18.039062 15.277344 17.804688 C 15.277344 17.304688 15.226562 16.8125 15.128906 16.324219 C 15.03125 15.835938 14.886719 15.359375 14.695312 14.902344 C 14.503906 14.441406 14.273438 14.003906 13.996094 13.589844 C 13.71875 13.175781 13.402344 12.792969 13.050781 12.441406 C 12.699219 12.089844 12.316406 11.773438 11.902344 11.496094 C 11.488281 11.21875 11.050781 10.988281 10.589844 10.796875 C 10.132812 10.605469 9.65625 10.460938 9.167969 10.363281 C 8.679688 10.265625 8.1875 10.214844 7.6875 10.214844 Z M 14.410156 17.949219 C 14.359375 18.015625 14.296875 18.046875 14.214844 18.046875 L 1.164062 18.046875 C 1.070312 18.046875 1 18.007812 0.953125 17.925781 C 0.929688 17.890625 0.917969 17.847656 0.921875 17.804688 C 0.921875 17.359375 0.96875 16.921875 1.054688 16.488281 C 1.144531 16.050781 1.273438 15.628906 1.445312 15.222656 C 1.613281 14.8125 1.824219 14.421875 2.070312 14.054688 C 2.316406 13.6875 2.597656 13.347656 2.914062 13.035156 C 3.226562 12.722656 3.570312 12.441406 3.9375 12.195312 C 4.304688 11.953125 4.695312 11.742188 5.105469 11.574219 C 5.515625 11.40625 5.9375 11.277344 6.371094 11.191406 C 6.808594 11.105469 7.246094 11.0625 7.6875 11.0625 C 8.132812 11.0625 8.570312 11.105469 9.007812 11.191406 C 9.441406 11.277344 9.863281 11.40625 10.273438 11.574219 C 10.683594 11.742188 11.070312 11.953125 11.441406 12.195312 C 11.808594 12.441406 12.152344 12.722656 12.464844 13.035156 C 12.78125 13.347656 13.058594 13.6875 13.308594 14.054688 C 13.554688 14.421875 13.765625 14.8125 13.933594 15.222656 C 14.105469 15.628906 14.234375 16.050781 14.324219 16.488281 C 14.410156 16.921875 14.457031 17.359375 14.457031 17.804688 C 14.457031 17.855469 14.441406 17.90625 14.410156 17.949219 Z M 14.410156 17.949219 " fill-opacity="1" fill-rule="nonzero"/></g></svg>