<svg xmlns="http://www.w3.org/2000/svg" xmlns:xlink="http://www.w3.org/1999/xlink" width="61" zoomAndPan="magnify" viewBox="0 0 45.75 33.749998" height="45" preserveAspectRatio="xMidYMid meet" version="1.0"><defs><clipPath id="aba4b1ca66"><path d="M 13.417969 4.4375 L 37.972656 4.4375 L 37.972656 28.996094 L 13.417969 28.996094 Z M 13.417969 4.4375 " clip-rule="nonzero"/></clipPath><clipPath id="a494fdd9a3"><path d="M 19.371094 4.4375 L 32.015625 4.4375 C 33.59375 4.4375 35.109375 5.066406 36.226562 6.183594 C 37.34375 7.300781 37.972656 8.816406 37.972656 10.394531 L 37.972656 23.039062 C 37.972656 24.617188 37.34375 26.132812 36.226562 27.25 C 35.109375 28.367188 33.59375 28.996094 32.015625 28.996094 L 19.371094 28.996094 C 17.792969 28.996094 16.277344 28.367188 15.160156 27.25 C 14.042969 26.132812 13.417969 24.617188 13.417969 23.039062 L 13.417969 10.394531 C 13.417969 8.816406 14.042969 7.300781 15.160156 6.183594 C 16.277344 5.066406 17.792969 4.4375 19.371094 4.4375 Z M 19.371094 4.4375 " clip-rule="nonzero"/></clipPath><clipPath id="0aecd60e0e"><path d="M 19.203125 10.449219 L 31.859375 10.449219 L 31.859375 23.105469 L 19.203125 23.105469 Z M 19.203125 10.449219 " clip-rule="nonzero"/></clipPath></defs><g clip-path="url(#aba4b1ca66)"><g clip-path="url(#a494fdd9a3)"><path fill="#3b3b3b" d="M 13.417969 4.4375 L 37.972656 4.4375 L 37.972656 28.996094 L 13.417969 28.996094 Z M 13.417969 4.4375 " fill-opacity="1" fill-rule="nonzero"/></g></g><g clip-path="url(#0aecd60e0e)"><path fill="#ffffff" d="M 25.691406 23.417969 C 22.113281 23.417969 19.203125 20.507812 19.203125 16.933594 C 19.203125 13.359375 22.113281 10.449219 25.691406 10.449219 C 29.265625 10.449219 32.175781 13.359375 32.175781 16.933594 C 32.175781 20.507812 29.265625 23.417969 25.691406 23.417969 Z M 25.691406 11.386719 C 22.632812 11.386719 20.144531 13.875 20.144531 16.933594 C 20.144531 19.992188 22.632812 22.476562 25.691406 22.476562 C 28.746094 22.476562 31.234375 19.992188 31.234375 16.933594 C 31.234375 13.875 28.746094 11.386719 25.691406 11.386719 Z M 25.691406 11.386719 " fill-opacity="1" fill-rule="nonzero"/></g><path fill="#ffffff" d="M 25.824219 20.296875 C 25.773438 20.28125 25.71875 20.25 25.71875 20.117188 C 25.71875 20.0625 25.730469 20 25.746094 19.925781 L 26.566406 15.953125 C 26.585938 15.863281 26.59375 15.765625 26.59375 15.667969 C 26.59375 15.410156 26.515625 15.214844 26.359375 15.085938 C 26.007812 14.796875 25.398438 14.855469 24.378906 15.199219 L 24.28125 15.230469 L 24.238281 15.742188 L 24.410156 15.742188 C 24.929688 15.742188 25.054688 15.785156 25.082031 15.796875 C 25.117188 15.8125 25.132812 15.832031 25.132812 15.890625 C 25.132812 15.925781 25.128906 15.960938 25.121094 16 C 25.113281 16.054688 25.097656 16.117188 25.085938 16.183594 L 24.335938 19.832031 C 24.300781 20.015625 24.285156 20.171875 24.285156 20.300781 C 24.285156 20.589844 24.367188 20.8125 24.53125 20.964844 C 24.691406 21.113281 24.914062 21.1875 25.183594 21.1875 C 25.503906 21.1875 25.933594 21.101562 26.496094 20.917969 L 26.597656 20.886719 L 26.636719 20.367188 L 26.46875 20.367188 C 26.082031 20.367188 25.90625 20.328125 25.824219 20.296875 Z M 25.824219 20.296875 " fill-opacity="1" fill-rule="nonzero"/><path fill="#ffffff" d="M 26.902344 12.898438 C 26.746094 12.753906 26.550781 12.675781 26.3125 12.675781 C 26.066406 12.675781 25.859375 12.757812 25.695312 12.917969 C 25.53125 13.074219 25.449219 13.289062 25.449219 13.554688 C 25.449219 13.796875 25.527344 14 25.683594 14.15625 C 25.839844 14.3125 26.042969 14.394531 26.28125 14.394531 C 26.523438 14.394531 26.730469 14.308594 26.894531 14.144531 C 27.054688 13.976562 27.140625 13.761719 27.140625 13.503906 C 27.140625 13.253906 27.058594 13.046875 26.902344 12.898438 Z M 26.902344 12.898438 " fill-opacity="1" fill-rule="nonzero"/></svg>