<svg xmlns="http://www.w3.org/2000/svg" xmlns:xlink="http://www.w3.org/1999/xlink" width="352" zoomAndPan="magnify" viewBox="0 0 264 33.749998" height="45" preserveAspectRatio="xMidYMid meet" version="1.0"><defs><clipPath id="5696285c30"><path d="M 0.96875 0 L 262.445312 0 L 262.445312 32.84375 L 0.96875 32.84375 Z M 0.96875 0 " clip-rule="nonzero"/></clipPath><clipPath id="6eefb04643"><path d="M 17.394531 0 L 245.964844 0 C 250.320312 0 254.496094 1.730469 257.578125 4.808594 C 260.65625 7.890625 262.386719 12.066406 262.386719 16.421875 C 262.386719 20.777344 260.65625 24.953125 257.578125 28.035156 C 254.496094 31.113281 250.320312 32.84375 245.964844 32.84375 L 17.394531 32.84375 C 13.039062 32.84375 8.859375 31.113281 5.78125 28.035156 C 2.699219 24.953125 0.96875 20.777344 0.96875 16.421875 C 0.96875 12.066406 2.699219 7.890625 5.78125 4.808594 C 8.859375 1.730469 13.039062 0 17.394531 0 Z M 17.394531 0 " clip-rule="nonzero"/></clipPath></defs><g clip-path="url(#5696285c30)"><g clip-path="url(#6eefb04643)"><path fill="#82a1fd" d="M 0.96875 0 L 262.445312 0 L 262.445312 32.84375 L 0.96875 32.84375 Z M 0.96875 0 " fill-opacity="1" fill-rule="nonzero"/></g></g></svg>