<svg xmlns="http://www.w3.org/2000/svg" xmlns:xlink="http://www.w3.org/1999/xlink" width="19" zoomAndPan="magnify" viewBox="0 0 14.25 14.25" height="19" preserveAspectRatio="xMidYMid meet" version="1.0"><defs><clipPath id="1ecaa697a4"><path d="M 6 7 L 12.746094 7 L 12.746094 12.992188 L 6 12.992188 Z M 6 7 " clip-rule="nonzero"/></clipPath><clipPath id="13af19f0fc"><path d="M 0 0.164062 L 12.746094 0.164062 L 12.746094 12 L 0 12 Z M 0 0.164062 " clip-rule="nonzero"/></clipPath></defs><g clip-path="url(#1ecaa697a4)"><path fill="#000000" d="M 9.539062 10.320312 C 9.539062 10.464844 9.660156 10.585938 9.808594 10.585938 L 11.144531 10.585938 L 11.144531 10.050781 L 10.074219 10.050781 L 10.074219 8.714844 L 9.539062 8.714844 Z M 9.808594 7.113281 C 11.429688 7.113281 12.746094 8.429688 12.746094 10.050781 C 12.746094 11.671875 11.429688 12.992188 9.808594 12.992188 C 8.1875 12.992188 6.867188 11.671875 6.867188 10.050781 C 6.867188 8.429688 8.1875 7.113281 9.808594 7.113281 " fill-opacity="1" fill-rule="nonzero"/></g><path fill="#000000" d="M 9.539062 4.441406 L 10.609375 4.441406 C 10.902344 4.441406 11.144531 4.679688 11.144531 4.976562 L 11.144531 5.507812 C 11.144531 5.804688 10.902344 6.042969 10.609375 6.042969 L 9.539062 6.042969 C 9.246094 6.042969 9.007812 5.804688 9.007812 5.507812 L 9.007812 4.976562 C 9.007812 4.679688 9.246094 4.441406 9.539062 4.441406 " fill-opacity="1" fill-rule="nonzero"/><path fill="#000000" d="M 6.867188 4.441406 L 7.9375 4.441406 C 8.230469 4.441406 8.472656 4.679688 8.472656 4.976562 L 8.472656 5.507812 C 8.472656 5.804688 8.230469 6.042969 7.9375 6.042969 L 6.867188 6.042969 C 6.574219 6.042969 6.335938 5.804688 6.335938 5.507812 L 6.335938 4.976562 C 6.335938 4.679688 6.574219 4.441406 6.867188 4.441406 " fill-opacity="1" fill-rule="nonzero"/><path fill="#000000" d="M 4.195312 4.441406 L 5.265625 4.441406 C 5.558594 4.441406 5.800781 4.679688 5.800781 4.976562 L 5.800781 5.507812 C 5.800781 5.804688 5.558594 6.042969 5.265625 6.042969 L 4.195312 6.042969 C 3.902344 6.042969 3.664062 5.804688 3.664062 5.507812 L 3.664062 4.976562 C 3.664062 4.679688 3.902344 4.441406 4.195312 4.441406 " fill-opacity="1" fill-rule="nonzero"/><path fill="#000000" d="M 1.523438 4.441406 L 2.59375 4.441406 C 2.886719 4.441406 3.128906 4.679688 3.128906 4.976562 L 3.128906 5.507812 C 3.128906 5.804688 2.886719 6.042969 2.59375 6.042969 L 1.523438 6.042969 C 1.230469 6.042969 0.992188 5.804688 0.992188 5.507812 L 0.992188 4.976562 C 0.992188 4.679688 1.230469 4.441406 1.523438 4.441406 " fill-opacity="1" fill-rule="nonzero"/><path fill="#000000" d="M 4.195312 6.578125 L 5.265625 6.578125 C 5.558594 6.578125 5.800781 6.820312 5.800781 7.113281 L 5.800781 7.648438 C 5.800781 7.941406 5.558594 8.179688 5.265625 8.179688 L 4.195312 8.179688 C 3.902344 8.179688 3.664062 7.941406 3.664062 7.648438 L 3.664062 7.113281 C 3.664062 6.820312 3.902344 6.578125 4.195312 6.578125 " fill-opacity="1" fill-rule="nonzero"/><path fill="#000000" d="M 1.523438 6.578125 L 2.59375 6.578125 C 2.886719 6.578125 3.128906 6.820312 3.128906 7.113281 L 3.128906 7.648438 C 3.128906 7.941406 2.886719 8.179688 2.59375 8.179688 L 1.523438 8.179688 C 1.230469 8.179688 0.992188 7.941406 0.992188 7.648438 L 0.992188 7.113281 C 0.992188 6.820312 1.230469 6.578125 1.523438 6.578125 " fill-opacity="1" fill-rule="nonzero"/><path fill="#000000" d="M 4.195312 8.714844 L 5.265625 8.714844 C 5.558594 8.714844 5.800781 8.957031 5.800781 9.25 L 5.800781 9.785156 C 5.800781 10.078125 5.558594 10.320312 5.265625 10.320312 L 4.195312 10.320312 C 3.902344 10.320312 3.664062 10.078125 3.664062 9.785156 L 3.664062 9.25 C 3.664062 8.957031 3.902344 8.714844 4.195312 8.714844 " fill-opacity="1" fill-rule="nonzero"/><path fill="#000000" d="M 1.523438 8.714844 L 2.59375 8.714844 C 2.886719 8.714844 3.128906 8.957031 3.128906 9.25 L 3.128906 9.785156 C 3.128906 10.078125 2.886719 10.320312 2.59375 10.320312 L 1.523438 10.320312 C 1.230469 10.320312 0.992188 10.078125 0.992188 9.785156 L 0.992188 9.25 C 0.992188 8.957031 1.230469 8.714844 1.523438 8.714844 " fill-opacity="1" fill-rule="nonzero"/><g clip-path="url(#13af19f0fc)"><path fill="#000000" d="M 9.539062 0.699219 L 9.539062 1.5 L 10.074219 1.5 L 10.074219 0.699219 Z M 2.058594 0.699219 L 2.058594 1.5 L 2.59375 1.5 L 2.59375 0.699219 Z M 0.457031 1.234375 L 1.523438 1.234375 L 1.523438 0.699219 C 1.523438 0.40625 1.765625 0.164062 2.058594 0.164062 L 2.59375 0.164062 C 2.886719 0.164062 3.128906 0.40625 3.128906 0.699219 L 3.128906 1.234375 L 9.007812 1.234375 L 9.007812 0.699219 C 9.007812 0.40625 9.246094 0.164062 9.539062 0.164062 L 10.074219 0.164062 C 10.371094 0.164062 10.609375 0.40625 10.609375 0.699219 L 10.609375 1.234375 L 11.679688 1.234375 C 11.972656 1.234375 12.210938 1.476562 12.210938 1.769531 L 12.210938 7.113281 L 11.679688 7.113281 L 11.679688 3.371094 L 0.457031 3.371094 L 0.457031 11.386719 L 6.601562 11.386719 L 6.601562 11.921875 L 0.457031 11.921875 C 0.164062 11.921875 -0.078125 11.683594 -0.078125 11.386719 L -0.078125 1.769531 C -0.078125 1.476562 0.164062 1.234375 0.457031 1.234375 " fill-opacity="1" fill-rule="nonzero"/></g></svg>