<svg xmlns="http://www.w3.org/2000/svg" xmlns:xlink="http://www.w3.org/1999/xlink" width="28" zoomAndPan="magnify" viewBox="0 0 21 22.5" height="30" preserveAspectRatio="xMidYMid meet" version="1.0"><defs><clipPath id="3ebd4df72f"><path d="M 2 0 L 20.039062 0 L 20.039062 19 L 2 19 Z M 2 0 " clip-rule="nonzero"/></clipPath><clipPath id="4829f78c08"><path d="M 2.851562 5.5625 L 19.636719 5.5625 L 19.636719 19.390625 L 2.851562 19.390625 Z M 2.851562 5.5625 " clip-rule="nonzero"/></clipPath><clipPath id="dd0ceee1c4"><path d="M 19.570312 8.128906 C 18.988281 3.378906 14.664062 0 9.914062 0.582031 C 7.101562 0.929688 4.769531 2.585938 3.457031 4.867188 C 1.515625 6.148438 0.230469 8.347656 0.230469 10.851562 C 0.230469 12.6875 0.925781 14.355469 2.0625 15.621094 L 1.460938 19.386719 L 5.167969 17.65625 C 5.871094 17.886719 6.617188 18.015625 7.394531 18.015625 C 8.109375 18.015625 8.800781 17.910156 9.449219 17.714844 C 10.28125 17.859375 11.144531 17.890625 12.023438 17.78125 C 12.957031 17.667969 13.835938 17.402344 14.644531 17.027344 L 19.207031 18.347656 L 18.074219 14.125 C 19.25 12.4375 19.839844 10.332031 19.570312 8.128906 Z M 19.570312 8.128906 " clip-rule="nonzero"/></clipPath><clipPath id="d91efad827"><path d="M 0.226562 5 L 15 5 L 15 21.277344 L 0.226562 21.277344 Z M 0.226562 5 " clip-rule="nonzero"/></clipPath><clipPath id="5e73f8d887"><path d="M 0.226562 5 L 15 5 L 15 21 L 0.226562 21 Z M 0.226562 5 " clip-rule="nonzero"/></clipPath></defs><g clip-path="url(#3ebd4df72f)"><path fill="#ffffff" d="M 18.511719 14.5625 C 19.6875 12.875 20.277344 10.765625 20.007812 8.5625 C 19.421875 3.816406 15.101562 0.4375 10.351562 1.019531 C 5.601562 1.601562 2.226562 5.921875 2.808594 10.671875 C 3.390625 15.421875 7.710938 18.800781 12.460938 18.21875 C 13.394531 18.101562 14.273438 17.839844 15.082031 17.460938 L 19.640625 18.785156 L 18.511719 14.5625 " fill-opacity="1" fill-rule="nonzero"/></g><path fill="#fffbfb" d="M 18.074219 14.125 C 19.25 12.4375 19.839844 10.332031 19.570312 8.128906 C 18.988281 3.378906 14.664062 0 9.914062 0.582031 C 5.164062 1.164062 1.789062 5.488281 2.371094 10.238281 C 2.953125 14.988281 7.277344 18.363281 12.023438 17.78125 C 12.957031 17.667969 13.835938 17.402344 14.644531 17.027344 L 19.207031 18.347656 L 18.074219 14.125 " fill-opacity="1" fill-rule="nonzero"/><g clip-path="url(#4829f78c08)"><g clip-path="url(#dd0ceee1c4)"><path fill="#ffffff" d="M 24.515625 15.621094 L 17.328125 24.519531 L 2.859375 14.46875 L 10.046875 5.570312 L 24.515625 15.621094 " fill-opacity="1" fill-rule="nonzero"/></g></g><g clip-path="url(#d91efad827)"><path fill="#ab97d5" d="M 7.832031 5.574219 C 3.875 5.574219 0.667969 8.785156 0.667969 12.738281 C 0.667969 14.574219 1.363281 16.246094 2.5 17.511719 L 1.316406 21.277344 L 5.605469 19.546875 C 6.308594 19.777344 7.054688 19.90625 7.832031 19.90625 C 11.789062 19.90625 14.996094 16.695312 14.996094 12.738281 C 14.996094 8.785156 11.789062 5.574219 7.832031 5.574219 " fill-opacity="1" fill-rule="nonzero"/></g><g clip-path="url(#5e73f8d887)"><path fill="#deb9ff" d="M 7.394531 5.140625 C 3.4375 5.140625 0.230469 8.347656 0.230469 12.304688 C 0.230469 14.140625 0.925781 15.808594 2.0625 17.074219 L 1.460938 20.839844 L 5.167969 19.109375 C 5.871094 19.339844 6.617188 19.46875 7.394531 19.46875 C 11.351562 19.46875 14.558594 16.261719 14.558594 12.304688 C 14.558594 8.347656 11.351562 5.140625 7.394531 5.140625 " fill-opacity="1" fill-rule="nonzero"/></g><path fill="#ab97d5" d="M 4.878906 12.460938 C 4.878906 13.160156 4.308594 13.730469 3.609375 13.730469 C 2.90625 13.730469 2.335938 13.160156 2.335938 12.460938 C 2.335938 11.757812 2.90625 11.1875 3.609375 11.1875 C 4.308594 11.1875 4.878906 11.757812 4.878906 12.460938 " fill-opacity="1" fill-rule="nonzero"/><path fill="#ab97d5" d="M 9.011719 12.460938 C 9.011719 13.160156 8.441406 13.730469 7.738281 13.730469 C 7.035156 13.730469 6.46875 13.160156 6.46875 12.460938 C 6.46875 11.757812 7.035156 11.1875 7.738281 11.1875 C 8.441406 11.1875 9.011719 11.757812 9.011719 12.460938 " fill-opacity="1" fill-rule="nonzero"/><path fill="#ab97d5" d="M 13.140625 12.460938 C 13.140625 13.160156 12.570312 13.730469 11.871094 13.730469 C 11.167969 13.730469 10.597656 13.160156 10.597656 12.460938 C 10.597656 11.757812 11.167969 11.1875 11.871094 11.1875 C 12.570312 11.1875 13.140625 11.757812 13.140625 12.460938 " fill-opacity="1" fill-rule="nonzero"/><path fill="#ffffff" d="M 4.441406 12.023438 C 4.441406 12.726562 3.875 13.292969 3.171875 13.292969 C 2.46875 13.292969 1.902344 12.726562 1.902344 12.023438 C 1.902344 11.320312 2.46875 10.753906 3.171875 10.753906 C 3.875 10.753906 4.441406 11.320312 4.441406 12.023438 " fill-opacity="1" fill-rule="nonzero"/><path fill="#ffffff" d="M 8.574219 12.023438 C 8.574219 12.726562 8.003906 13.292969 7.304688 13.292969 C 6.601562 13.292969 6.03125 12.726562 6.03125 12.023438 C 6.03125 11.320312 6.601562 10.753906 7.304688 10.753906 C 8.003906 10.753906 8.574219 11.320312 8.574219 12.023438 " fill-opacity="1" fill-rule="nonzero"/><path fill="#ffffff" d="M 12.707031 12.023438 C 12.707031 12.726562 12.136719 13.292969 11.433594 13.292969 C 10.730469 13.292969 10.164062 12.726562 10.164062 12.023438 C 10.164062 11.320312 10.730469 10.753906 11.433594 10.753906 C 12.136719 10.753906 12.707031 11.320312 12.707031 12.023438 " fill-opacity="1" fill-rule="nonzero"/></svg>