<svg xmlns="http://www.w3.org/2000/svg" xmlns:xlink="http://www.w3.org/1999/xlink" width="48" zoomAndPan="magnify" viewBox="0 0 36 36.000001" height="48" preserveAspectRatio="xMidYMid meet" version="1.0"><defs><clipPath id="7b2625ece8"><path d="M 6.105469 6.894531 L 26.539062 6.894531 L 26.539062 28.054688 L 6.105469 28.054688 Z M 6.105469 6.894531 " clip-rule="nonzero"/></clipPath></defs><g clip-path="url(#7b2625ece8)"><path fill="#ffffff" d="M 20.15625 24.84375 L 24.894531 26.402344 L 23.65625 21.589844 L 23.773438 21.390625 C 24.570312 20.03125 24.992188 18.480469 24.992188 16.902344 C 24.992188 12.003906 21.007812 8.019531 16.109375 8.019531 C 11.210938 8.019531 7.226562 12.003906 7.226562 16.902344 C 7.226562 21.800781 11.210938 25.785156 16.109375 25.785156 C 17.445312 25.785156 19.949219 24.914062 19.976562 24.90625 Z M 26.488281 28.105469 L 20.164062 26.023438 C 19.53125 26.234375 17.425781 26.902344 16.109375 26.902344 C 10.59375 26.902344 6.109375 22.417969 6.109375 16.902344 C 6.109375 11.386719 10.59375 6.902344 16.109375 6.902344 C 21.625 6.902344 26.109375 11.386719 26.109375 16.902344 C 26.109375 18.601562 25.675781 20.273438 24.855469 21.753906 L 26.488281 28.105469 " fill-opacity="1" fill-rule="nonzero"/></g></svg>