<svg xmlns="http://www.w3.org/2000/svg" xmlns:xlink="http://www.w3.org/1999/xlink" width="34" zoomAndPan="magnify" viewBox="0 0 25.5 19.5" height="26" preserveAspectRatio="xMidYMid meet" version="1.0"><defs><clipPath id="b105b4b659"><path d="M 3.835938 0 L 22.726562 0 L 22.726562 18.886719 L 3.835938 18.886719 Z M 3.835938 0 " clip-rule="nonzero"/></clipPath><clipPath id="934694b104"><path d="M 13.28125 0 C 8.066406 0 3.835938 4.226562 3.835938 9.445312 C 3.835938 14.660156 8.066406 18.886719 13.28125 18.886719 C 18.496094 18.886719 22.726562 14.660156 22.726562 9.445312 C 22.726562 4.226562 18.496094 0 13.28125 0 Z M 13.28125 0 " clip-rule="nonzero"/></clipPath><clipPath id="9b1b77891e"><path d="M 9.511719 5.675781 L 16.824219 5.675781 L 16.824219 12.988281 L 9.511719 12.988281 Z M 9.511719 5.675781 " clip-rule="nonzero"/></clipPath></defs><g clip-path="url(#b105b4b659)"><g clip-path="url(#934694b104)"><path fill="#0158c8" d="M 3.835938 0 L 22.726562 0 L 22.726562 18.886719 L 3.835938 18.886719 Z M 3.835938 0 " fill-opacity="1" fill-rule="nonzero"/></g></g><g clip-path="url(#9b1b77891e)"><path fill="#ffffff" d="M 9.511719 11.644531 L 9.511719 13.203125 L 11.074219 13.203125 L 15.675781 8.601562 L 14.117188 7.042969 Z M 16.878906 7.398438 C 17.039062 7.238281 17.039062 6.972656 16.878906 6.8125 L 15.90625 5.839844 C 15.746094 5.675781 15.480469 5.675781 15.316406 5.839844 L 14.554688 6.601562 L 16.117188 8.160156 Z M 16.878906 7.398438 " fill-opacity="1" fill-rule="nonzero"/></g></svg>