<svg xmlns="http://www.w3.org/2000/svg" xmlns:xlink="http://www.w3.org/1999/xlink" width="61" zoomAndPan="magnify" viewBox="0 0 45.75 33.749998" height="45" preserveAspectRatio="xMidYMid meet" version="1.0"><defs><clipPath id="98512dbd05"><path d="M 11.90625 3.976562 L 36.460938 3.976562 L 36.460938 28.53125 L 11.90625 28.53125 Z M 11.90625 3.976562 " clip-rule="nonzero"/></clipPath><clipPath id="3b359834e8"><path d="M 17.863281 3.976562 L 30.507812 3.976562 C 32.085938 3.976562 33.601562 4.601562 34.71875 5.71875 C 35.835938 6.835938 36.460938 8.351562 36.460938 9.929688 L 36.460938 22.574219 C 36.460938 24.152344 35.835938 25.667969 34.71875 26.785156 C 33.601562 27.902344 32.085938 28.53125 30.507812 28.53125 L 17.863281 28.53125 C 16.285156 28.53125 14.769531 27.902344 13.652344 26.785156 C 12.535156 25.667969 11.90625 24.152344 11.90625 22.574219 L 11.90625 9.929688 C 11.90625 8.351562 12.535156 6.835938 13.652344 5.71875 C 14.769531 4.601562 16.285156 3.976562 17.863281 3.976562 Z M 17.863281 3.976562 " clip-rule="nonzero"/></clipPath><clipPath id="8012e0169d"><path d="M 16.832031 9.71875 L 30.980469 9.71875 L 30.980469 23 L 16.832031 23 Z M 16.832031 9.71875 " clip-rule="nonzero"/></clipPath></defs><g clip-path="url(#98512dbd05)"><g clip-path="url(#3b359834e8)"><path fill="#3b3b3b" d="M 11.90625 3.976562 L 36.460938 3.976562 L 36.460938 28.53125 L 11.90625 28.53125 Z M 11.90625 3.976562 " fill-opacity="1" fill-rule="nonzero"/></g></g><g clip-path="url(#8012e0169d)"><path fill="#ffffff" d="M 22.410156 13.996094 C 22.648438 13.996094 22.722656 14.121094 22.722656 14.332031 L 22.722656 16.613281 C 22.722656 16.765625 22.671875 16.921875 22.410156 16.921875 C 21.867188 16.921875 21.71875 16.726562 21.71875 16.019531 L 21.71875 14.898438 C 21.714844 14.1875 21.867188 13.996094 22.410156 13.996094 Z M 25.078125 11.28125 C 25.207031 11.261719 25.347656 11.335938 25.449219 11.515625 C 25.546875 11.679688 25.613281 11.964844 25.472656 12.347656 C 25.394531 12.570312 25.386719 12.867188 25.398438 13.03125 C 25.40625 13.226562 25.414062 13.484375 25.699219 13.484375 L 27.257812 13.484375 C 27.386719 13.484375 27.503906 13.5625 27.570312 13.691406 C 27.640625 13.828125 27.640625 13.996094 27.570312 14.128906 C 27.503906 14.257812 27.386719 14.339844 27.257812 14.339844 C 27.195312 14.339844 27.148438 14.386719 27.148438 14.449219 C 27.148438 14.511719 27.195312 14.558594 27.257812 14.558594 C 27.386719 14.558594 27.503906 14.636719 27.570312 14.769531 C 27.640625 14.902344 27.640625 15.070312 27.570312 15.207031 C 27.503906 15.335938 27.386719 15.414062 27.257812 15.414062 C 27.195312 15.414062 27.148438 15.464844 27.148438 15.523438 C 27.148438 15.582031 27.195312 15.632812 27.257812 15.632812 C 27.386719 15.632812 27.503906 15.714844 27.570312 15.84375 C 27.640625 15.976562 27.640625 16.144531 27.570312 16.28125 C 27.507812 16.410156 27.382812 16.472656 27.257812 16.492188 C 27.136719 16.507812 27.117188 16.621094 27.199219 16.691406 C 27.246094 16.730469 27.292969 16.773438 27.324219 16.832031 C 27.382812 16.949219 27.382812 17.09375 27.324219 17.214844 C 27.269531 17.320312 27.175781 17.386719 27.121094 17.386719 C 27.113281 17.386719 24.671875 17.394531 24.671875 17.394531 C 24.371094 17.394531 24.152344 17.378906 23.933594 17.210938 C 23.800781 17.105469 23.660156 16.992188 23.4375 16.949219 C 23.304688 16.921875 23.28125 16.835938 23.28125 16.789062 L 23.28125 14.074219 C 23.28125 13.9375 23.277344 13.839844 23.351562 13.71875 C 23.4375 13.582031 23.59375 13.433594 23.765625 13.265625 C 24.136719 12.910156 24.601562 12.308594 24.777344 11.640625 C 24.832031 11.425781 24.949219 11.304688 25.078125 11.28125 Z M 20.265625 9.761719 C 19.324219 9.761719 18.566406 10.519531 18.566406 11.460938 L 18.566406 13.417969 L 18.238281 13.417969 C 17.832031 13.417969 17.46875 13.519531 17.210938 13.761719 C 16.953125 14.003906 16.832031 14.363281 16.832031 14.777344 L 16.832031 19.761719 C 16.832031 20.175781 16.953125 20.535156 17.210938 20.777344 C 17.46875 21.019531 17.832031 21.121094 18.238281 21.121094 L 19.433594 21.121094 L 19.433594 22.03125 C 19.433594 22.347656 19.671875 22.605469 19.949219 22.667969 C 20.230469 22.730469 20.558594 22.609375 20.765625 22.324219 L 21.648438 21.121094 L 24.527344 21.121094 C 24.917969 21.121094 24.917969 20.539062 24.527344 20.539062 L 21.5 20.539062 C 21.40625 20.539062 21.320312 20.585938 21.265625 20.660156 L 20.296875 21.984375 C 20.195312 22.121094 20.015625 22.078125 20.015625 21.855469 L 20.015625 20.832031 C 20.015625 20.671875 19.882812 20.539062 19.722656 20.539062 L 18.238281 20.539062 C 17.925781 20.539062 17.730469 20.464844 17.609375 20.351562 C 17.492188 20.242188 17.414062 20.066406 17.414062 19.761719 L 17.414062 14.777344 C 17.414062 14.46875 17.492188 14.296875 17.609375 14.183594 C 17.730469 14.074219 17.925781 14 18.238281 14 L 18.566406 14 L 18.566406 18 C 18.566406 18.9375 19.324219 19.699219 20.261719 19.699219 L 24.753906 19.699219 L 26.128906 21.433594 C 26.542969 21.957031 27.085938 21.75 27.085938 21.269531 L 27.085938 19.699219 L 29.078125 19.699219 C 30.015625 19.699219 30.777344 18.9375 30.777344 18 L 30.777344 11.460938 C 30.777344 10.519531 30.015625 9.761719 29.078125 9.761719 Z M 20.265625 9.761719 " fill-opacity="1" fill-rule="evenodd"/></g></svg>