<svg xmlns="http://www.w3.org/2000/svg" xmlns:xlink="http://www.w3.org/1999/xlink" width="48" zoomAndPan="magnify" viewBox="0 0 36 36.000001" height="48" preserveAspectRatio="xMidYMid meet" version="1.0"><defs><clipPath id="3db0ee4a65"><path d="M 6.558594 14.71875 L 29.179688 14.71875 L 29.179688 35 L 6.558594 35 Z M 6.558594 14.71875 " clip-rule="nonzero"/></clipPath></defs><g clip-path="url(#3db0ee4a65)"><path fill="#ffffff" d="M 17.992188 34.84375 C 17.609375 34.847656 17.28125 34.710938 17.015625 34.433594 L 9.554688 27.046875 C 9.433594 26.941406 9.316406 26.832031 9.210938 26.714844 C 9.0625 26.558594 8.828125 26.273438 8.507812 25.863281 C 8.191406 25.460938 7.902344 25.039062 7.644531 24.59375 C 7.355469 24.082031 7.121094 23.546875 6.949219 22.984375 C 6.746094 22.371094 6.640625 21.742188 6.636719 21.097656 C 6.636719 19.132812 7.210938 17.558594 8.339844 16.425781 C 9.472656 15.292969 11.035156 14.71875 12.988281 14.71875 C 13.578125 14.722656 14.152344 14.820312 14.707031 15.015625 C 15.269531 15.207031 15.800781 15.46875 16.292969 15.800781 C 16.753906 16.113281 17.152344 16.40625 17.484375 16.679688 C 17.660156 16.824219 17.828125 16.96875 17.992188 17.121094 C 18.160156 16.96875 18.328125 16.820312 18.503906 16.679688 C 18.835938 16.40625 19.234375 16.113281 19.695312 15.800781 C 20.1875 15.46875 20.714844 15.207031 21.28125 15.015625 C 21.835938 14.820312 22.410156 14.722656 22.996094 14.71875 C 24.949219 14.71875 26.515625 15.292969 27.644531 16.425781 C 28.777344 17.558594 29.351562 19.132812 29.351562 21.097656 C 29.351562 23.070312 28.367188 25.074219 26.429688 27.0625 L 18.964844 34.441406 C 18.699219 34.714844 18.375 34.847656 17.992188 34.84375 Z M 12.988281 15.980469 C 11.359375 15.980469 10.132812 16.417969 9.234375 17.316406 C 8.335938 18.21875 7.898438 19.457031 7.898438 21.097656 C 7.902344 21.609375 7.988281 22.109375 8.148438 22.597656 C 8.296875 23.074219 8.488281 23.527344 8.734375 23.957031 C 8.964844 24.351562 9.21875 24.726562 9.5 25.089844 C 9.785156 25.453125 9.996094 25.707031 10.125 25.847656 C 10.210938 25.941406 10.300781 26.027344 10.398438 26.109375 L 17.992188 33.582031 C 18.027344 33.585938 18.050781 33.574219 18.070312 33.550781 L 25.535156 26.175781 C 27.226562 24.4375 28.089844 22.726562 28.089844 21.097656 C 28.089844 19.453125 27.652344 18.21875 26.753906 17.316406 C 25.855469 16.417969 24.625 15.980469 22.996094 15.980469 C 22.546875 15.984375 22.109375 16.058594 21.6875 16.207031 C 21.230469 16.363281 20.800781 16.578125 20.398438 16.847656 C 19.976562 17.132812 19.609375 17.402344 19.304688 17.652344 C 19.003906 17.902344 18.71875 18.164062 18.445312 18.441406 C 18.320312 18.5625 18.167969 18.625 17.992188 18.625 C 17.820312 18.625 17.667969 18.5625 17.542969 18.441406 C 17.269531 18.164062 16.984375 17.902344 16.683594 17.65625 C 16.378906 17.402344 16.011719 17.132812 15.589844 16.847656 C 15.1875 16.578125 14.757812 16.363281 14.300781 16.207031 C 13.875 16.058594 13.4375 15.984375 12.988281 15.980469 Z M 12.988281 15.980469 " fill-opacity="1" fill-rule="nonzero"/></g></svg>