<svg xmlns="http://www.w3.org/2000/svg" xmlns:xlink="http://www.w3.org/1999/xlink" width="61" zoomAndPan="magnify" viewBox="0 0 45.75 33.749998" height="45" preserveAspectRatio="xMidYMid meet" version="1.0"><defs><clipPath id="58cbb02f94"><path d="M 13.417969 4.4375 L 37.972656 4.4375 L 37.972656 28.996094 L 13.417969 28.996094 Z M 13.417969 4.4375 " clip-rule="nonzero"/></clipPath><clipPath id="c4e7293453"><path d="M 19.371094 4.4375 L 32.015625 4.4375 C 33.59375 4.4375 35.109375 5.066406 36.226562 6.183594 C 37.34375 7.300781 37.972656 8.816406 37.972656 10.394531 L 37.972656 23.039062 C 37.972656 24.617188 37.34375 26.132812 36.226562 27.25 C 35.109375 28.367188 33.59375 28.996094 32.015625 28.996094 L 19.371094 28.996094 C 17.792969 28.996094 16.277344 28.367188 15.160156 27.25 C 14.042969 26.132812 13.417969 24.617188 13.417969 23.039062 L 13.417969 10.394531 C 13.417969 8.816406 14.042969 7.300781 15.160156 6.183594 C 16.277344 5.066406 17.792969 4.4375 19.371094 4.4375 Z M 19.371094 4.4375 " clip-rule="nonzero"/></clipPath><clipPath id="bbb0deff2a"><path d="M 20 10.109375 L 32.617188 10.109375 L 32.617188 23.507812 L 20 23.507812 Z M 20 10.109375 " clip-rule="nonzero"/></clipPath></defs><g clip-path="url(#58cbb02f94)"><g clip-path="url(#c4e7293453)"><path fill="#3b3b3b" d="M 13.417969 4.4375 L 37.972656 4.4375 L 37.972656 28.996094 L 13.417969 28.996094 Z M 13.417969 4.4375 " fill-opacity="1" fill-rule="nonzero"/></g></g><g clip-path="url(#bbb0deff2a)"><path fill="#ffffff" d="M 30.554688 15.953125 C 30.40625 15.953125 30.269531 15.980469 30.132812 16.039062 C 30 16.09375 29.878906 16.171875 29.777344 16.277344 C 29.675781 16.378906 29.59375 16.496094 29.539062 16.632812 C 29.484375 16.765625 29.457031 16.90625 29.457031 17.050781 L 29.457031 20.003906 C 29.457031 20.148438 29.484375 20.289062 29.539062 20.421875 C 29.59375 20.558594 29.675781 20.675781 29.777344 20.777344 C 29.878906 20.882812 30 20.960938 30.132812 21.015625 C 30.269531 21.070312 30.40625 21.101562 30.554688 21.101562 L 31.003906 21.101562 C 31.148438 21.097656 31.285156 21.070312 31.417969 21.011719 C 31.550781 20.957031 31.667969 20.875 31.769531 20.773438 C 31.871094 20.671875 31.949219 20.550781 32.003906 20.417969 C 32.058594 20.285156 32.085938 20.148438 32.085938 20.003906 L 32.085938 17.28125 C 32.171875 16.363281 32.074219 15.464844 31.789062 14.585938 C 31.507812 13.707031 31.066406 12.917969 30.464844 12.21875 C 29.363281 10.96875 27.878906 10.222656 26.382812 10.164062 C 24.78125 10.109375 23.164062 10.828125 21.949219 12.148438 C 21.289062 12.867188 20.804688 13.695312 20.503906 14.625 C 20.203125 15.554688 20.109375 16.507812 20.222656 17.480469 L 20.222656 20.195312 C 20.222656 20.46875 20.316406 20.707031 20.5 20.914062 C 20.679688 21.121094 20.90625 21.238281 21.179688 21.273438 L 21.179688 21.976562 C 21.179688 22.132812 21.210938 22.277344 21.269531 22.421875 C 21.328125 22.5625 21.410156 22.6875 21.519531 22.796875 C 21.628906 22.902344 21.753906 22.988281 21.894531 23.046875 C 22.035156 23.105469 22.183594 23.132812 22.335938 23.136719 L 26.148438 23.136719 L 26.148438 22.414062 L 22.335938 22.414062 C 22.21875 22.414062 22.113281 22.371094 22.027344 22.285156 C 21.941406 22.203125 21.898438 22.097656 21.898438 21.976562 L 21.898438 21.273438 C 22.171875 21.238281 22.398438 21.121094 22.582031 20.914062 C 22.761719 20.707031 22.855469 20.46875 22.859375 20.195312 L 22.859375 17.242188 C 22.859375 17.097656 22.828125 16.957031 22.773438 16.824219 C 22.71875 16.6875 22.640625 16.570312 22.535156 16.46875 C 22.433594 16.363281 22.316406 16.285156 22.179688 16.230469 C 22.046875 16.171875 21.90625 16.144531 21.761719 16.144531 L 21.320312 16.144531 C 21.179688 16.144531 21.046875 16.171875 20.917969 16.222656 C 21.023438 14.84375 21.546875 13.648438 22.480469 12.632812 C 23.546875 11.46875 24.960938 10.832031 26.355469 10.886719 C 27.65625 10.933594 28.953125 11.59375 29.917969 12.6875 C 30.753906 13.644531 31.238281 14.753906 31.363281 16.019531 C 31.246094 15.980469 31.128906 15.957031 31.003906 15.953125 Z M 20.941406 17.242188 C 20.945312 17.136719 20.980469 17.050781 21.054688 16.976562 C 21.128906 16.902344 21.214844 16.867188 21.320312 16.867188 L 21.761719 16.867188 C 21.863281 16.867188 21.953125 16.902344 22.027344 16.976562 C 22.101562 17.050781 22.136719 17.136719 22.136719 17.242188 L 22.136719 20.195312 C 22.136719 20.296875 22.101562 20.386719 22.027344 20.460938 C 21.953125 20.535156 21.863281 20.570312 21.761719 20.570312 L 21.320312 20.570312 C 21.214844 20.570312 21.128906 20.535156 21.054688 20.460938 C 20.980469 20.386719 20.945312 20.296875 20.941406 20.195312 Z M 31.363281 17.050781 L 31.363281 20.003906 C 31.363281 20.105469 31.328125 20.191406 31.257812 20.261719 C 31.1875 20.335938 31.105469 20.375 31.003906 20.378906 L 30.554688 20.378906 C 30.449219 20.378906 30.359375 20.34375 30.289062 20.269531 C 30.214844 20.195312 30.175781 20.105469 30.175781 20.003906 L 30.175781 17.050781 C 30.175781 16.949219 30.214844 16.859375 30.289062 16.785156 C 30.359375 16.710938 30.449219 16.675781 30.554688 16.675781 L 31.003906 16.675781 C 31.105469 16.679688 31.1875 16.71875 31.257812 16.792969 C 31.328125 16.863281 31.363281 16.949219 31.363281 17.050781 Z M 31.363281 17.050781 " fill-opacity="1" fill-rule="nonzero"/></g></svg>