<svg xmlns="http://www.w3.org/2000/svg" xmlns:xlink="http://www.w3.org/1999/xlink" width="48" zoomAndPan="magnify" viewBox="0 0 36 36.000001" height="48" preserveAspectRatio="xMidYMid meet" version="1.0"><defs><clipPath id="5a93e76594"><path d="M 10.894531 8.105469 L 28.410156 8.105469 L 28.410156 24.886719 L 10.894531 24.886719 Z M 10.894531 8.105469 " clip-rule="nonzero"/></clipPath></defs><g clip-path="url(#5a93e76594)"><path fill="#ffffff" d="M 26.132812 25.140625 L 22.152344 25.140625 C 22 25.140625 21.875 25.015625 21.875 24.863281 L 21.875 19.214844 L 17.824219 19.214844 L 17.824219 24.863281 C 17.824219 25.015625 17.699219 25.140625 17.546875 25.140625 L 13.464844 25.140625 C 13.3125 25.140625 13.1875 25.015625 13.1875 24.863281 L 13.1875 16.566406 L 11.199219 16.566406 C 11.082031 16.566406 10.980469 16.496094 10.9375 16.390625 C 10.898438 16.285156 10.925781 16.160156 11.011719 16.085938 L 19.613281 8.203125 C 19.71875 8.105469 19.882812 8.105469 19.988281 8.203125 L 28.589844 16.085938 C 28.675781 16.160156 28.703125 16.285156 28.660156 16.390625 C 28.621094 16.496094 28.515625 16.566406 28.402344 16.566406 L 26.414062 16.566406 L 26.414062 24.863281 C 26.414062 25.015625 26.289062 25.140625 26.132812 25.140625 Z M 22.429688 24.585938 L 25.855469 24.585938 L 25.855469 16.289062 C 25.855469 16.136719 25.980469 16.011719 26.132812 16.011719 L 27.6875 16.011719 L 19.800781 8.785156 L 11.914062 16.011719 L 13.464844 16.011719 C 13.617188 16.011719 13.742188 16.136719 13.742188 16.289062 L 13.742188 24.585938 L 17.269531 24.585938 L 17.269531 18.9375 C 17.269531 18.78125 17.394531 18.65625 17.546875 18.65625 L 22.152344 18.65625 C 22.304688 18.65625 22.429688 18.78125 22.429688 18.9375 Z M 22.429688 24.585938 " fill-opacity="1" fill-rule="nonzero"/></g></svg>