<svg xmlns="http://www.w3.org/2000/svg" xmlns:xlink="http://www.w3.org/1999/xlink" width="61" zoomAndPan="magnify" viewBox="0 0 45.75 33.749998" height="45" preserveAspectRatio="xMidYMid meet" version="1.0"><defs><clipPath id="57867d88e3"><path d="M 13.582031 5.070312 L 36.988281 5.070312 L 36.988281 28.472656 L 13.582031 28.472656 Z M 13.582031 5.070312 " clip-rule="nonzero"/></clipPath><clipPath id="22198c2491"><path d="M 19.539062 5.070312 L 31.03125 5.070312 C 32.609375 5.070312 34.125 5.695312 35.242188 6.8125 C 36.359375 7.929688 36.988281 9.445312 36.988281 11.023438 L 36.988281 22.515625 C 36.988281 24.09375 36.359375 25.609375 35.242188 26.726562 C 34.125 27.84375 32.609375 28.472656 31.03125 28.472656 L 19.539062 28.472656 C 17.960938 28.472656 16.445312 27.84375 15.328125 26.726562 C 14.210938 25.609375 13.582031 24.09375 13.582031 22.515625 L 13.582031 11.023438 C 13.582031 9.445312 14.210938 7.929688 15.328125 6.8125 C 16.445312 5.695312 17.960938 5.070312 19.539062 5.070312 Z M 19.539062 5.070312 " clip-rule="nonzero"/></clipPath><clipPath id="e0ce1d796f"><path d="M 19.628906 11.113281 L 30.796875 11.113281 L 30.796875 22.28125 L 19.628906 22.28125 Z M 19.628906 11.113281 " clip-rule="nonzero"/></clipPath></defs><g clip-path="url(#57867d88e3)"><g clip-path="url(#22198c2491)"><path fill="#3b3b3b" d="M 13.582031 5.070312 L 36.988281 5.070312 L 36.988281 28.472656 L 13.582031 28.472656 Z M 13.582031 5.070312 " fill-opacity="1" fill-rule="nonzero"/></g></g><g clip-path="url(#e0ce1d796f)"><path fill="#ffffff" d="M 25.28125 11.113281 C 22.15625 11.113281 19.628906 13.644531 19.628906 16.769531 C 19.628906 19.890625 22.15625 22.421875 25.28125 22.421875 C 28.402344 22.421875 30.9375 19.890625 30.9375 16.769531 C 30.9375 13.644531 28.402344 11.113281 25.28125 11.113281 Z M 29.195312 14.507812 L 27.527344 14.507812 C 27.34375 13.800781 27.085938 13.121094 26.746094 12.496094 C 27.789062 12.851562 28.652344 13.570312 29.195312 14.507812 Z M 25.285156 12.265625 C 25.753906 12.945312 26.121094 13.699219 26.363281 14.507812 L 24.203125 14.507812 C 24.445312 13.699219 24.8125 12.945312 25.285156 12.265625 Z M 20.90625 17.898438 C 20.8125 17.539062 20.761719 17.160156 20.761719 16.769531 C 20.761719 16.378906 20.8125 16 20.90625 15.636719 L 22.816406 15.636719 C 22.769531 16.007812 22.738281 16.382812 22.738281 16.769531 C 22.738281 17.152344 22.769531 17.527344 22.820312 17.898438 Z M 21.367188 19.03125 L 23.035156 19.03125 C 23.21875 19.738281 23.476562 20.414062 23.816406 21.046875 C 22.777344 20.6875 21.910156 19.964844 21.367188 19.03125 Z M 23.035156 14.507812 L 21.367188 14.507812 C 21.910156 13.570312 22.777344 12.847656 23.816406 12.492188 C 23.476562 13.121094 23.21875 13.800781 23.035156 14.507812 Z M 25.285156 21.269531 C 24.8125 20.59375 24.445312 19.839844 24.203125 19.03125 L 26.363281 19.03125 C 26.121094 19.839844 25.753906 20.59375 25.285156 21.269531 Z M 26.605469 17.898438 L 23.960938 17.898438 C 23.90625 17.527344 23.871094 17.152344 23.871094 16.769531 C 23.871094 16.382812 23.90625 16.007812 23.960938 15.636719 L 26.605469 15.636719 C 26.660156 16.007812 26.695312 16.382812 26.695312 16.769531 C 26.695312 17.152344 26.660156 17.527344 26.605469 17.898438 Z M 26.75 21.042969 C 27.089844 20.410156 27.347656 19.738281 27.53125 19.03125 L 29.199219 19.03125 C 28.652344 19.964844 27.789062 20.6875 26.75 21.042969 Z M 27.75 17.898438 C 27.792969 17.527344 27.828125 17.152344 27.828125 16.769531 C 27.828125 16.382812 27.796875 16.007812 27.75 15.636719 L 29.65625 15.636719 C 29.75 16 29.804688 16.378906 29.804688 16.769531 C 29.804688 17.160156 29.753906 17.539062 29.65625 17.898438 Z M 27.75 17.898438 " fill-opacity="1" fill-rule="nonzero"/></g></svg>