<svg xmlns="http://www.w3.org/2000/svg" xmlns:xlink="http://www.w3.org/1999/xlink" width="19" zoomAndPan="magnify" viewBox="0 0 14.25 15" height="20" preserveAspectRatio="xMidYMid meet" version="1.0"><defs><clipPath id="f5e18f57b3"><path d="M 0.953125 0 L 10.796875 0 L 10.796875 14 L 0.953125 14 Z M 0.953125 0 " clip-rule="nonzero"/></clipPath></defs><g clip-path="url(#f5e18f57b3)"><path fill="#040404" d="M 5.875 0.0078125 C 8.59375 0.0078125 10.796875 2.167969 10.796875 4.832031 C 10.796875 5.757812 10.53125 6.625 10.066406 7.359375 C 9.511719 8.257812 8.957031 9.160156 8.402344 10.058594 C 7.726562 11.136719 7.179688 12.007812 6.507812 13.082031 C 5.910156 14.03125 5.871094 14.054688 5.273438 13.101562 C 4.597656 12.03125 4.035156 11.132812 3.363281 10.058594 C 2.808594 9.167969 2.253906 8.277344 1.703125 7.390625 C 1.226562 6.648438 0.953125 5.769531 0.953125 4.832031 C 0.953125 2.167969 3.15625 0.0078125 5.875 0.0078125 Z M 5.875 2.425781 C 7.09375 2.425781 8.082031 3.394531 8.082031 4.585938 C 8.082031 5.78125 7.09375 6.75 5.875 6.75 C 4.65625 6.75 3.667969 5.78125 3.667969 4.585938 C 3.667969 3.394531 4.65625 2.425781 5.875 2.425781 Z M 5.875 2.425781 " fill-opacity="1" fill-rule="evenodd"/></g></svg>