<svg xmlns="http://www.w3.org/2000/svg" xmlns:xlink="http://www.w3.org/1999/xlink" width="49" zoomAndPan="magnify" viewBox="0 0 36.75 32.999998" height="44" preserveAspectRatio="xMidYMid meet" version="1.0"><defs><clipPath id="dd146f600d"><path d="M 12.339844 8.46875 L 25.46875 8.46875 L 25.46875 21.878906 L 12.339844 21.878906 Z M 12.339844 8.46875 " clip-rule="nonzero"/></clipPath></defs><g clip-path="url(#dd146f600d)"><path fill="#ffffff" d="M 25.46875 10.648438 C 25.46875 9.449219 24.492188 8.472656 23.292969 8.472656 L 21.84375 8.472656 C 21.441406 8.472656 21.117188 8.796875 21.117188 9.199219 C 21.117188 9.597656 21.441406 9.921875 21.84375 9.921875 L 23.292969 9.921875 C 23.695312 9.921875 24.019531 10.246094 24.019531 10.648438 L 24.019531 19.351562 C 24.019531 19.753906 23.695312 20.078125 23.292969 20.078125 L 21.84375 20.078125 C 21.441406 20.078125 21.117188 20.402344 21.117188 20.804688 C 21.117188 21.203125 21.441406 21.527344 21.84375 21.527344 L 23.292969 21.527344 C 24.492188 21.527344 25.46875 20.550781 25.46875 19.351562 Z M 17.277344 19.140625 C 17.136719 19.28125 16.953125 19.351562 16.765625 19.351562 C 16.578125 19.351562 16.394531 19.28125 16.253906 19.140625 L 12.625 15.511719 C 12.34375 15.230469 12.34375 14.769531 12.625 14.488281 L 16.253906 10.859375 C 16.535156 10.578125 16.996094 10.578125 17.277344 10.859375 C 17.5625 11.144531 17.5625 11.601562 17.277344 11.886719 L 14.890625 14.273438 L 20.390625 14.273438 C 20.792969 14.273438 21.117188 14.597656 21.117188 15 C 21.117188 15.402344 20.792969 15.726562 20.390625 15.726562 L 14.890625 15.726562 L 17.277344 18.113281 C 17.5625 18.398438 17.5625 18.855469 17.277344 19.140625 Z M 17.277344 19.140625 " fill-opacity="1" fill-rule="nonzero"/></g></svg>