<svg xmlns="http://www.w3.org/2000/svg" xmlns:xlink="http://www.w3.org/1999/xlink" width="41" zoomAndPan="magnify" viewBox="0 0 30.75 30.750001" height="41" preserveAspectRatio="xMidYMid meet" version="1.0"><defs><clipPath id="aaf39c6b4b"><path d="M 5 3.5 L 26.929688 3.5 L 26.929688 19 L 5 19 Z M 5 3.5 " clip-rule="nonzero"/></clipPath><clipPath id="c434280d71"><path d="M 1.632812 5 L 26.929688 5 L 26.929688 26.5625 L 1.632812 26.5625 Z M 1.632812 5 " clip-rule="nonzero"/></clipPath></defs><path fill="#f381c2" d="M 12.679688 7.242188 C 12.832031 7.398438 12.953125 7.570312 13.046875 7.761719 L 13.421875 7.625 C 13.042969 6.824219 12.226562 6.269531 11.28125 6.269531 C 11.28125 6.269531 11.28125 6.269531 11.277344 6.269531 L 11.28125 6.664062 C 11.808594 6.664062 12.304688 6.871094 12.679688 7.242188 Z M 12.679688 7.242188 " fill-opacity="1" fill-rule="nonzero"/><path fill="#f381c2" d="M 11.277344 6.664062 L 11.277344 6.269531 C 9.96875 6.269531 8.910156 7.328125 8.90625 8.636719 C 8.90625 8.84375 8.9375 9.042969 8.988281 9.238281 L 9.359375 9.101562 C 9.324219 8.949219 9.304688 8.796875 9.304688 8.636719 C 9.304688 7.546875 10.191406 6.664062 11.277344 6.664062 Z M 11.277344 6.664062 " fill-opacity="1" fill-rule="nonzero"/><g clip-path="url(#aaf39c6b4b)"><path fill="#f381c2" d="M 24.300781 10.902344 L 26.289062 8.464844 L 26.296875 16.421875 L 26.886719 18.054688 C 27.015625 17.828125 27.085938 17.566406 27.085938 17.285156 L 27.074219 5.082031 C 27.074219 4.230469 26.386719 3.53125 25.542969 3.507812 L 7.328125 3.546875 C 6.457031 3.546875 5.746094 4.261719 5.746094 5.128906 L 5.753906 10.410156 L 6.542969 10.125 L 6.539062 5.128906 C 6.539062 4.691406 6.890625 4.335938 7.328125 4.335938 L 25.496094 4.296875 C 25.929688 4.296875 26.285156 4.648438 26.285156 5.082031 L 26.285156 7.839844 L 24.140625 10.46875 Z M 24.300781 10.902344 " fill-opacity="1" fill-rule="nonzero"/></g><g clip-path="url(#c434280d71)"><path fill="#f381c2" d="M 8.113281 26.675781 L 25.207031 20.464844 C 26.023438 20.167969 26.453125 19.257812 26.15625 18.4375 L 22 6.964844 C 21.769531 6.324219 21.160156 5.921875 20.511719 5.921875 C 20.335938 5.921875 20.152344 5.953125 19.976562 6.015625 L 2.882812 12.226562 C 2.066406 12.523438 1.640625 13.4375 1.9375 14.253906 L 6.089844 25.730469 C 6.324219 26.371094 6.933594 26.769531 7.578125 26.769531 C 7.757812 26.769531 7.9375 26.738281 8.113281 26.675781 Z M 25.414062 18.707031 C 25.5625 19.117188 25.347656 19.574219 24.9375 19.722656 L 10.574219 24.941406 L 14.265625 15.417969 L 20.019531 17.542969 L 22.476562 10.601562 Z M 6.832031 25.460938 L 2.679688 13.984375 C 2.53125 13.574219 2.742188 13.121094 3.152344 12.96875 L 20.246094 6.761719 C 20.332031 6.730469 20.421875 6.714844 20.511719 6.714844 C 20.847656 6.714844 21.144531 6.921875 21.257812 7.234375 L 22.265625 10.015625 L 19.78125 17.035156 L 14.039062 14.914062 L 10.082031 25.121094 L 7.84375 25.933594 C 7.757812 25.964844 7.667969 25.980469 7.578125 25.980469 C 7.246094 25.980469 6.945312 25.769531 6.832031 25.460938 Z M 6.832031 25.460938 " fill-opacity="1" fill-rule="nonzero"/></g><path fill="#f381c2" d="M 9.125 17.980469 C 10.355469 17.535156 10.992188 16.175781 10.542969 14.945312 C 10.195312 13.980469 9.285156 13.382812 8.316406 13.382812 C 8.046875 13.382812 7.773438 13.429688 7.507812 13.523438 C 6.277344 13.972656 5.640625 15.332031 6.085938 16.5625 C 6.4375 17.527344 7.34375 18.125 8.316406 18.125 C 8.582031 18.125 8.855469 18.078125 9.125 17.980469 Z M 6.457031 16.425781 C 6.277344 15.929688 6.300781 15.394531 6.527344 14.917969 C 6.75 14.4375 7.144531 14.078125 7.640625 13.894531 C 7.859375 13.816406 8.085938 13.777344 8.316406 13.777344 C 9.144531 13.777344 9.890625 14.300781 10.171875 15.078125 C 10.351562 15.578125 10.328125 16.113281 10.105469 16.589844 C 9.882812 17.070312 9.484375 17.429688 8.988281 17.609375 C 8.769531 17.691406 8.542969 17.730469 8.316406 17.730469 C 7.488281 17.730469 6.742188 17.207031 6.457031 16.425781 Z M 6.457031 16.425781 " fill-opacity="1" fill-rule="nonzero"/></svg>