<svg xmlns="http://www.w3.org/2000/svg" xmlns:xlink="http://www.w3.org/1999/xlink" width="35" zoomAndPan="magnify" viewBox="0 0 26.25 30.000001" height="40" preserveAspectRatio="xMidYMid meet" version="1.0"><defs><clipPath id="ca9fd1bbe7"><path d="M 4 6.140625 L 24.921875 6.140625 L 24.921875 21 L 4 21 Z M 4 6.140625 " clip-rule="nonzero"/></clipPath><clipPath id="19691de26a"><path d="M 0.246094 8 L 24.921875 8 L 24.921875 28.640625 L 0.246094 28.640625 Z M 0.246094 8 " clip-rule="nonzero"/></clipPath></defs><path fill="#ffffff" d="M 11.023438 9.789062 C 11.171875 9.941406 11.292969 10.109375 11.382812 10.296875 L 11.746094 10.164062 C 11.375 9.382812 10.582031 8.839844 9.660156 8.839844 C 9.660156 8.839844 9.65625 8.839844 9.65625 8.839844 L 9.660156 9.222656 C 10.175781 9.222656 10.660156 9.425781 11.023438 9.789062 Z M 11.023438 9.789062 " fill-opacity="1" fill-rule="nonzero"/><path fill="#ffffff" d="M 9.65625 9.222656 L 9.65625 8.839844 C 8.378906 8.839844 7.34375 9.871094 7.34375 11.148438 C 7.34375 11.351562 7.371094 11.546875 7.417969 11.734375 L 7.785156 11.601562 C 7.75 11.457031 7.726562 11.304688 7.726562 11.148438 C 7.730469 10.085938 8.59375 9.222656 9.65625 9.222656 Z M 9.65625 9.222656 " fill-opacity="1" fill-rule="nonzero"/><g clip-path="url(#ca9fd1bbe7)"><path fill="#ffffff" d="M 22.359375 13.363281 L 24.296875 10.980469 L 24.308594 18.742188 L 24.882812 20.335938 C 25.007812 20.117188 25.078125 19.859375 25.078125 19.589844 L 25.066406 7.679688 C 25.066406 6.851562 24.398438 6.167969 23.570312 6.144531 L 5.800781 6.183594 C 4.953125 6.183594 4.257812 6.878906 4.257812 7.726562 L 4.265625 12.882812 L 5.035156 12.601562 L 5.03125 7.726562 C 5.03125 7.300781 5.375 6.953125 5.800781 6.953125 L 23.527344 6.914062 C 23.949219 6.914062 24.292969 7.257812 24.292969 7.683594 L 24.296875 10.371094 L 22.207031 12.9375 Z M 22.359375 13.363281 " fill-opacity="1" fill-rule="nonzero"/></g><g clip-path="url(#19691de26a)"><path fill="#ffffff" d="M 6.570312 28.75 L 23.246094 22.691406 C 24.042969 22.398438 24.457031 21.511719 24.171875 20.710938 L 20.117188 9.515625 C 19.890625 8.890625 19.296875 8.5 18.664062 8.5 C 18.492188 8.5 18.316406 8.53125 18.144531 8.59375 L 1.464844 14.652344 C 0.667969 14.941406 0.253906 15.832031 0.542969 16.628906 L 4.59375 27.824219 C 4.820312 28.449219 5.414062 28.839844 6.046875 28.839844 C 6.21875 28.839844 6.398438 28.8125 6.570312 28.75 Z M 23.445312 20.976562 C 23.589844 21.375 23.382812 21.820312 22.980469 21.964844 L 8.96875 27.054688 L 12.570312 17.765625 L 18.183594 19.839844 L 20.582031 13.066406 Z M 5.320312 27.5625 L 1.265625 16.367188 C 1.121094 15.96875 1.328125 15.523438 1.730469 15.378906 L 18.40625 9.320312 C 18.488281 9.289062 18.578125 9.273438 18.664062 9.273438 C 18.988281 9.273438 19.28125 9.476562 19.390625 9.78125 L 20.375 12.496094 L 17.953125 19.34375 L 12.347656 17.273438 L 8.488281 27.230469 L 6.304688 28.023438 C 6.222656 28.054688 6.132812 28.070312 6.046875 28.070312 C 5.722656 28.070312 5.429688 27.867188 5.320312 27.5625 Z M 5.320312 27.5625 " fill-opacity="1" fill-rule="nonzero"/></g><path fill="#ffffff" d="M 7.554688 20.265625 C 8.753906 19.832031 9.375 18.503906 8.9375 17.304688 C 8.597656 16.363281 7.710938 15.777344 6.765625 15.777344 C 6.503906 15.777344 6.238281 15.824219 5.976562 15.917969 C 4.773438 16.355469 4.15625 17.679688 4.589844 18.882812 C 4.929688 19.820312 5.820312 20.40625 6.765625 20.40625 C 7.027344 20.40625 7.292969 20.363281 7.554688 20.265625 Z M 4.953125 18.75 C 4.777344 18.265625 4.800781 17.742188 5.019531 17.277344 C 5.238281 16.808594 5.625 16.457031 6.109375 16.28125 C 6.320312 16.203125 6.542969 16.164062 6.765625 16.164062 C 7.574219 16.164062 8.300781 16.675781 8.578125 17.4375 C 8.75 17.917969 8.726562 18.441406 8.511719 18.910156 C 8.292969 19.375 7.90625 19.730469 7.421875 19.90625 C 7.210938 19.980469 6.988281 20.019531 6.765625 20.019531 C 5.957031 20.019531 5.226562 19.511719 4.953125 18.75 Z M 4.953125 18.75 " fill-opacity="1" fill-rule="nonzero"/></svg>