<svg xmlns="http://www.w3.org/2000/svg" xmlns:xlink="http://www.w3.org/1999/xlink" width="74" zoomAndPan="magnify" viewBox="0 0 55.5 55.499996" height="74" preserveAspectRatio="xMidYMid meet" version="1.0"><path fill="#3b3b3b" d="M 46.652344 8.003906 C 41.492188 2.84375 34.628906 0 27.328125 0 C 20.027344 0 13.164062 2.84375 8.003906 8.003906 C 2.84375 13.164062 0 20.027344 0 27.328125 C 0 34.628906 2.84375 41.492188 8.003906 46.652344 C 13.164062 51.8125 20.027344 54.65625 27.328125 54.65625 C 34.628906 54.65625 41.492188 51.8125 46.652344 46.652344 C 51.8125 41.492188 54.65625 34.628906 54.65625 27.328125 C 54.65625 20.027344 51.8125 13.164062 46.652344 8.003906 Z M 46.652344 8.003906 " fill-opacity="1" fill-rule="nonzero"/><path fill="#ffffff" d="M 33.855469 14.347656 C 34.28125 14.777344 34.664062 15.242188 35.003906 15.746094 C 35.339844 16.25 35.625 16.78125 35.855469 17.34375 C 36.085938 17.902344 36.261719 18.480469 36.378906 19.074219 C 36.5 19.667969 36.558594 20.269531 36.558594 20.875 C 36.558594 21.480469 36.5 22.082031 36.378906 22.675781 C 36.261719 23.269531 36.085938 23.847656 35.855469 24.40625 C 35.625 24.964844 35.339844 25.5 35.003906 26.003906 C 34.664062 26.507812 34.28125 26.972656 33.855469 27.402344 C 33.425781 27.828125 32.960938 28.210938 32.457031 28.546875 C 31.953125 28.886719 31.421875 29.167969 30.859375 29.402344 C 30.300781 29.632812 29.722656 29.808594 29.128906 29.925781 C 28.535156 30.046875 27.933594 30.105469 27.328125 30.105469 C 26.722656 30.105469 26.121094 30.046875 25.527344 29.925781 C 24.933594 29.808594 24.355469 29.632812 23.796875 29.402344 C 23.234375 29.167969 22.703125 28.886719 22.199219 28.546875 C 21.695312 28.210938 21.230469 27.828125 20.800781 27.402344 C 20.375 26.972656 19.992188 26.507812 19.652344 26.003906 C 19.316406 25.5 19.03125 24.964844 18.800781 24.40625 C 18.570312 23.847656 18.394531 23.269531 18.277344 22.675781 C 18.15625 22.082031 18.097656 21.480469 18.097656 20.875 C 18.097656 20.269531 18.15625 19.667969 18.277344 19.074219 C 18.394531 18.480469 18.570312 17.902344 18.800781 17.34375 C 19.03125 16.78125 19.316406 16.25 19.652344 15.746094 C 19.992188 15.242188 20.375 14.777344 20.800781 14.347656 C 21.230469 13.917969 21.695312 13.535156 22.199219 13.199219 C 22.703125 12.863281 23.234375 12.578125 23.796875 12.347656 C 24.355469 12.117188 24.933594 11.941406 25.527344 11.820312 C 26.121094 11.703125 26.722656 11.644531 27.328125 11.644531 C 27.933594 11.644531 28.535156 11.703125 29.128906 11.820312 C 29.722656 11.941406 30.300781 12.117188 30.859375 12.347656 C 31.421875 12.578125 31.953125 12.863281 32.457031 13.199219 C 32.960938 13.535156 33.425781 13.917969 33.855469 14.347656 Z M 33.855469 14.347656 " fill-opacity="1" fill-rule="nonzero"/><path fill="#ffffff" d="M 27.59375 34.207031 L 27.0625 34.207031 C 19.519531 34.207031 13.167969 39.296875 11.253906 46.230469 C 15.589844 49.921875 21.203125 52.152344 27.328125 52.152344 C 33.453125 52.152344 39.066406 49.921875 43.402344 46.230469 C 41.488281 39.296875 35.136719 34.207031 27.59375 34.207031 Z M 27.59375 34.207031 " fill-opacity="1" fill-rule="nonzero"/></svg>