<svg xmlns="http://www.w3.org/2000/svg" xmlns:xlink="http://www.w3.org/1999/xlink" width="48" zoomAndPan="magnify" viewBox="0 0 36 36.000001" height="48" preserveAspectRatio="xMidYMid meet" version="1.0"><defs><clipPath id="4a133a870a"><path d="M 8.253906 7.792969 L 27.957031 7.792969 L 27.957031 27.496094 L 8.253906 27.496094 Z M 8.253906 7.792969 " clip-rule="nonzero"/></clipPath><clipPath id="40f02d4292"><path d="M 16 8 L 27.957031 8 L 27.957031 20 L 16 20 Z M 16 8 " clip-rule="nonzero"/></clipPath></defs><g clip-path="url(#4a133a870a)"><path fill="#ffffff" d="M 20.8125 27.21875 C 20.628906 27.21875 20.460938 27.121094 20.371094 26.957031 L 16.199219 19.304688 L 8.546875 15.132812 C 8.371094 15.039062 8.269531 14.847656 8.289062 14.652344 C 8.304688 14.453125 8.433594 14.285156 8.621094 14.21875 L 27.015625 7.851562 C 27.195312 7.789062 27.398438 7.835938 27.53125 7.972656 C 27.667969 8.109375 27.714844 8.308594 27.652344 8.488281 L 21.285156 26.882812 C 21.21875 27.070312 21.050781 27.203125 20.855469 27.21875 C 20.839844 27.21875 20.824219 27.21875 20.8125 27.21875 Z M 10.019531 14.796875 L 16.808594 18.5 C 16.890625 18.542969 16.960938 18.613281 17.007812 18.699219 L 20.710938 25.488281 L 26.371094 9.136719 Z M 10.019531 14.796875 " fill-opacity="1" fill-rule="nonzero"/></g><g clip-path="url(#40f02d4292)"><path fill="#ffffff" d="M 16.566406 19.4375 C 16.441406 19.4375 16.3125 19.390625 16.214844 19.292969 C 16.019531 19.097656 16.019531 18.777344 16.214844 18.582031 L 26.472656 8.324219 C 26.667969 8.128906 26.984375 8.128906 27.179688 8.324219 C 27.375 8.519531 27.375 8.839844 27.179688 9.035156 L 16.921875 19.292969 C 16.824219 19.390625 16.695312 19.4375 16.566406 19.4375 Z M 16.566406 19.4375 " fill-opacity="1" fill-rule="nonzero"/></g></svg>