<svg xmlns="http://www.w3.org/2000/svg" xmlns:xlink="http://www.w3.org/1999/xlink" width="30" zoomAndPan="magnify" viewBox="0 0 22.5 22.5" height="30" preserveAspectRatio="xMidYMid meet" version="1.0"><defs><clipPath id="d437aa6e10"><path d="M 4.722656 6.621094 L 13.527344 6.621094 L 13.527344 15.425781 L 4.722656 15.425781 Z M 4.722656 6.621094 " clip-rule="nonzero"/></clipPath></defs><g clip-path="url(#d437aa6e10)"><path fill="#ffffff" d="M 13.234375 9.835938 C 13.15625 9.621094 12.96875 9.464844 12.738281 9.417969 L 10.519531 9.078125 L 9.558594 7.015625 C 9.453125 6.800781 9.25 6.660156 9 6.660156 C 8.769531 6.660156 8.550781 6.800781 8.445312 7.015625 L 7.484375 9.078125 L 5.296875 9.433594 C 5.066406 9.464844 4.878906 9.636719 4.800781 9.851562 C 4.722656 10.070312 4.785156 10.316406 4.941406 10.472656 L 6.570312 12.148438 L 6.195312 14.457031 C 6.164062 14.6875 6.257812 14.921875 6.445312 15.0625 C 6.554688 15.136719 6.675781 15.167969 6.800781 15.167969 C 6.910156 15.167969 7.003906 15.136719 7.09375 15.089844 L 9.015625 14.023438 L 10.9375 15.089844 C 11.03125 15.136719 11.140625 15.167969 11.234375 15.167969 C 11.359375 15.167969 11.480469 15.136719 11.589844 15.0625 C 11.777344 14.921875 11.882812 14.6875 11.839844 14.457031 L 11.464844 12.148438 L 13.09375 10.472656 C 13.25 10.300781 13.308594 10.054688 13.234375 9.835938 Z M 10.96875 11.683594 C 10.832031 11.820312 10.785156 12.007812 10.816406 12.191406 L 11.1875 14.472656 L 9.3125 13.433594 C 9.21875 13.386719 9.125 13.355469 9.015625 13.355469 C 8.925781 13.355469 8.816406 13.386719 8.722656 13.433594 L 6.847656 14.472656 L 7.21875 12.207031 C 7.25 12.023438 7.1875 11.820312 7.0625 11.699219 L 5.484375 10.054688 L 7.636719 9.730469 C 7.839844 9.699219 8.011719 9.574219 8.085938 9.386719 L 9.015625 7.375 L 9.945312 9.386719 C 10.023438 9.574219 10.195312 9.699219 10.398438 9.730469 L 12.550781 10.054688 Z M 10.96875 11.683594 " fill-opacity="1" fill-rule="evenodd"/></g></svg>