<svg xmlns="http://www.w3.org/2000/svg" xmlns:xlink="http://www.w3.org/1999/xlink" width="61" zoomAndPan="magnify" viewBox="0 0 45.75 33.749998" height="45" preserveAspectRatio="xMidYMid meet" version="1.0"><defs><clipPath id="255c60d466"><path d="M 11.90625 4.4375 L 36.460938 4.4375 L 36.460938 28.996094 L 11.90625 28.996094 Z M 11.90625 4.4375 " clip-rule="nonzero"/></clipPath><clipPath id="025dd6f4a5"><path d="M 17.863281 4.4375 L 30.507812 4.4375 C 32.085938 4.4375 33.601562 5.066406 34.71875 6.183594 C 35.835938 7.300781 36.460938 8.816406 36.460938 10.394531 L 36.460938 23.039062 C 36.460938 24.617188 35.835938 26.132812 34.71875 27.25 C 33.601562 28.367188 32.085938 28.996094 30.507812 28.996094 L 17.863281 28.996094 C 16.285156 28.996094 14.769531 28.367188 13.652344 27.25 C 12.535156 26.132812 11.90625 24.617188 11.90625 23.039062 L 11.90625 10.394531 C 11.90625 8.816406 12.535156 7.300781 13.652344 6.183594 C 14.769531 5.066406 16.285156 4.4375 17.863281 4.4375 Z M 17.863281 4.4375 " clip-rule="nonzero"/></clipPath><clipPath id="37b9c72229"><path d="M 17.53125 9.695312 L 30.933594 9.695312 L 30.933594 23 L 17.53125 23 Z M 17.53125 9.695312 " clip-rule="nonzero"/></clipPath></defs><g clip-path="url(#255c60d466)"><g clip-path="url(#025dd6f4a5)"><path fill="#3b3b3b" d="M 11.90625 4.4375 L 36.460938 4.4375 L 36.460938 28.996094 L 11.90625 28.996094 Z M 11.90625 4.4375 " fill-opacity="1" fill-rule="nonzero"/></g></g><path fill="#ffffff" d="M 20.367188 17.113281 L 23.617188 17.113281 L 23.636719 20.378906 C 23.636719 20.472656 23.695312 20.554688 23.785156 20.585938 C 23.808594 20.59375 23.832031 20.597656 23.855469 20.597656 C 23.921875 20.597656 23.988281 20.566406 24.03125 20.511719 L 28.097656 15.28125 C 28.148438 15.214844 28.160156 15.125 28.121094 15.050781 C 28.085938 14.976562 28.007812 14.925781 27.921875 14.925781 L 24.65625 14.925781 L 24.65625 12.242188 C 24.65625 12.148438 24.601562 12.066406 24.515625 12.035156 C 24.429688 12.003906 24.332031 12.027344 24.269531 12.097656 L 20.203125 16.746094 C 20.144531 16.8125 20.132812 16.902344 20.167969 16.980469 C 20.203125 17.0625 20.28125 17.113281 20.367188 17.113281 Z M 24.214844 12.828125 L 24.214844 15.148438 C 24.214844 15.269531 24.316406 15.367188 24.4375 15.367188 L 27.472656 15.367188 L 24.070312 19.742188 L 24.054688 16.890625 C 24.054688 16.769531 23.957031 16.671875 23.835938 16.671875 L 20.855469 16.671875 Z M 24.214844 12.828125 " fill-opacity="1" fill-rule="nonzero"/><g clip-path="url(#37b9c72229)"><path fill="#ffffff" d="M 24.144531 22.921875 C 27.792969 22.921875 30.757812 19.957031 30.757812 16.308594 C 30.757812 12.664062 27.792969 9.695312 24.144531 9.695312 C 20.5 9.695312 17.53125 12.664062 17.53125 16.308594 C 17.53125 19.957031 20.5 22.921875 24.144531 22.921875 Z M 24.144531 10.136719 C 27.550781 10.136719 30.320312 12.90625 30.320312 16.308594 C 30.320312 19.714844 27.550781 22.480469 24.144531 22.480469 C 20.742188 22.480469 17.972656 19.714844 17.972656 16.308594 C 17.972656 12.90625 20.742188 10.136719 24.144531 10.136719 Z M 24.144531 10.136719 " fill-opacity="1" fill-rule="nonzero"/></g></svg>