<svg xmlns="http://www.w3.org/2000/svg" xmlns:xlink="http://www.w3.org/1999/xlink" width="61" zoomAndPan="magnify" viewBox="0 0 45.75 33.749998" height="45" preserveAspectRatio="xMidYMid meet" version="1.0"><defs><clipPath id="031fb51b1d"><path d="M 10.996094 4.4375 L 35.550781 4.4375 L 35.550781 28.996094 L 10.996094 28.996094 Z M 10.996094 4.4375 " clip-rule="nonzero"/></clipPath><clipPath id="080e53b1d5"><path d="M 16.953125 4.4375 L 29.59375 4.4375 C 31.175781 4.4375 32.691406 5.066406 33.808594 6.183594 C 34.925781 7.300781 35.550781 8.816406 35.550781 10.394531 L 35.550781 23.039062 C 35.550781 24.617188 34.925781 26.132812 33.808594 27.25 C 32.691406 28.367188 31.175781 28.996094 29.59375 28.996094 L 16.953125 28.996094 C 15.371094 28.996094 13.859375 28.367188 12.742188 27.25 C 11.625 26.132812 10.996094 24.617188 10.996094 23.039062 L 10.996094 10.394531 C 10.996094 8.816406 11.625 7.300781 12.742188 6.183594 C 13.859375 5.066406 15.371094 4.4375 16.953125 4.4375 Z M 16.953125 4.4375 " clip-rule="nonzero"/></clipPath><clipPath id="5dfc9e1b03"><path d="M 17.339844 10.78125 L 29.25 10.78125 L 29.25 22.695312 L 17.339844 22.695312 Z M 17.339844 10.78125 " clip-rule="nonzero"/></clipPath></defs><g clip-path="url(#031fb51b1d)"><g clip-path="url(#080e53b1d5)"><path fill="#3b3b3b" d="M 10.996094 4.4375 L 35.550781 4.4375 L 35.550781 28.996094 L 10.996094 28.996094 Z M 10.996094 4.4375 " fill-opacity="1" fill-rule="nonzero"/></g></g><g clip-path="url(#5dfc9e1b03)"><path fill="#ffffff" d="M 23.273438 10.78125 C 23.539062 10.78125 23.800781 10.800781 24.058594 10.835938 C 21.914062 11.164062 20.269531 13.015625 20.269531 15.25 C 20.269531 17.71875 22.269531 19.71875 24.738281 19.71875 C 26.972656 19.71875 28.824219 18.074219 29.152344 15.933594 C 29.1875 16.1875 29.207031 16.449219 29.207031 16.714844 C 29.207031 19.992188 26.550781 22.648438 23.273438 22.648438 C 19.996094 22.648438 17.339844 19.992188 17.339844 16.714844 C 17.339844 13.4375 19.996094 10.78125 23.273438 10.78125 " fill-opacity="1" fill-rule="evenodd"/></g></svg>