<svg xmlns="http://www.w3.org/2000/svg" xmlns:xlink="http://www.w3.org/1999/xlink" width="230" zoomAndPan="magnify" viewBox="0 0 172.5 200.249992" height="267" preserveAspectRatio="xMidYMid meet" version="1.0"><defs><clipPath id="29208289d7"><path d="M 154 50 L 171.929688 50 L 171.929688 102 L 154 102 Z M 154 50 " clip-rule="nonzero"/></clipPath><clipPath id="ecad567bec"><path d="M 0.0742188 0 L 90 0 L 90 197 L 0.0742188 197 Z M 0.0742188 0 " clip-rule="nonzero"/></clipPath><clipPath id="4829b1a8a6"><path d="M 0.0742188 0 L 86 0 L 86 197 L 0.0742188 197 Z M 0.0742188 0 " clip-rule="nonzero"/></clipPath></defs><path fill="#f7b2b2" d="M 166.796875 101.039062 C 165.703125 105.125 163.664062 108.199219 160.820312 110.414062 L 155.589844 102.71875 L 158.265625 99.074219 L 159.730469 98.457031 L 161.164062 97.894531 Z M 166.796875 101.039062 " fill-opacity="1" fill-rule="nonzero"/><g clip-path="url(#29208289d7)"><path fill="#f1f3f2" d="M 154.90625 50.207031 C 161.828125 50.632812 167.636719 57.800781 168.460938 64.539062 C 168.460938 64.539062 171.96875 81.609375 171.175781 89 C 170.824219 92.273438 167.113281 100.664062 167.113281 100.664062 C 166.277344 102.449219 160.976562 100.152344 161.164062 97.894531 C 161.863281 90.910156 162.054688 84.25 161.515625 78.050781 Z M 154.90625 50.207031 " fill-opacity="1" fill-rule="nonzero"/></g><path fill="#fc6c85" d="M 123.292969 184.933594 C 120.25 186.648438 117.011719 187.335938 113.488281 186.515625 C 112.839844 186.367188 112.175781 186.246094 111.511719 186.230469 C 107.820312 186.15625 106.816406 187.714844 107.703125 190.425781 C 109.035156 193.695312 112.253906 195.261719 117.140625 195.3125 C 118.371094 195.328125 119.609375 195.234375 120.8125 194.988281 C 123.765625 194.378906 127.320312 194.464844 131.101562 194.8125 C 133.195312 195.003906 135 193.359375 135 191.261719 L 135 185.550781 Z M 123.292969 184.933594 " fill-opacity="1" fill-rule="nonzero"/><path fill="#f95070" d="M 135 191.269531 C 134.992188 193.375 133.179688 195 131.078125 194.8125 C 127.3125 194.464844 123.757812 194.378906 120.8125 194.988281 C 119.609375 195.238281 118.371094 195.332031 117.140625 195.3125 C 112.253906 195.257812 109.03125 193.695312 107.707031 190.429688 C 107.179688 188.824219 107.320312 187.613281 108.292969 186.921875 C 108.335938 187.289062 108.429688 187.6875 108.570312 188.121094 C 109.902344 191.390625 113.121094 192.949219 118.007812 193.003906 C 119.238281 193.023438 120.472656 192.929688 121.683594 192.679688 C 124.625 192.074219 128.171875 192.15625 131.949219 192.507812 C 133.160156 192.617188 134.28125 192.117188 135 191.269531 Z M 135 191.269531 " fill-opacity="1" fill-rule="nonzero"/><path fill="#fc6c85" d="M 159.4375 168.636719 L 159.4375 177.027344 C 159.4375 178.1875 158.664062 179.21875 157.539062 179.523438 C 154.371094 180.371094 151.894531 179.214844 149.871094 176.734375 C 149.324219 176.066406 148.582031 175.570312 147.742188 175.359375 C 143.867188 174.375 141.179688 172.3125 140.226562 169.039062 C 139.914062 167.976562 139.839844 166.835938 140.164062 165.777344 C 141.257812 162.21875 145.074219 163.828125 148.832031 167.371094 Z M 159.4375 168.636719 " fill-opacity="1" fill-rule="nonzero"/><path fill="#f95070" d="M 159.242188 178.011719 C 158.953125 178.722656 158.363281 179.296875 157.585938 179.507812 C 154.390625 180.382812 151.902344 179.222656 149.867188 176.730469 C 149.324219 176.070312 148.59375 175.578125 147.761719 175.367188 C 143.828125 174.371094 141.109375 172.265625 140.195312 168.917969 C 139.90625 167.894531 139.851562 166.796875 140.167969 165.78125 C 140.488281 164.726562 141.046875 164.117188 141.777344 163.898438 C 141.710938 164.035156 141.65625 164.191406 141.609375 164.359375 C 141.296875 165.375 141.351562 166.472656 141.628906 167.496094 C 142.554688 170.839844 145.265625 172.945312 149.183594 173.933594 C 150.023438 174.144531 150.761719 174.640625 151.3125 175.308594 C 153.347656 177.800781 155.835938 178.964844 159.027344 178.085938 C 159.101562 178.066406 159.175781 178.039062 159.242188 178.011719 Z M 159.242188 178.011719 " fill-opacity="1" fill-rule="nonzero"/><path fill="#285294" d="M 160.882812 108.949219 L 160.710938 139.992188 L 159.4375 168.636719 C 158.804688 173.914062 148.199219 172.652344 148.832031 167.371094 C 148.367188 153.636719 146.921875 146.960938 144.371094 134.496094 L 146.339844 108.949219 L 151.09375 105.03125 Z M 160.882812 108.949219 " fill-opacity="1" fill-rule="nonzero"/><path fill="#263966" d="M 160.878906 108.949219 L 160.710938 139.996094 L 159.433594 168.640625 C 159.140625 171.089844 156.695312 172.132812 154.226562 172.011719 C 153.957031 171.605469 153.734375 171.171875 153.585938 170.699219 C 153.28125 169.722656 153.328125 168.667969 153.371094 167.644531 C 153.539062 164.421875 153.695312 161.203125 153.863281 157.96875 C 154.019531 154.75 154.179688 151.515625 154.808594 148.351562 C 155.121094 146.753906 155.558594 145.128906 155.289062 143.523438 C 155.003906 141.871094 153.984375 140.199219 154.578125 138.628906 C 154.761719 138.140625 155.09375 137.726562 155.269531 137.234375 C 155.484375 136.625 155.445312 135.953125 155.429688 135.304688 C 155.34375 132.101562 155.789062 128.882812 156.761719 125.824219 C 156.984375 125.105469 157.242188 124.386719 157.34375 123.636719 C 157.464844 122.660156 157.304688 121.660156 157.140625 120.683594 C 156.484375 116.816406 155.6875 112.84375 156.464844 108.996094 C 156.574219 108.449219 156.722656 107.90625 156.917969 107.363281 Z M 160.878906 108.949219 " fill-opacity="1" fill-rule="nonzero"/><path fill="#285294" d="M 126.65625 110.878906 C 126.65625 110.878906 124.105469 136.792969 123.695312 145.460938 C 123.132812 157.4375 123.28125 184.480469 123.28125 184.480469 C 123.042969 189.933594 134.828125 190.449219 135.070312 184.996094 L 138.976562 155.175781 C 139.265625 152.964844 139.71875 150.777344 140.332031 148.632812 L 149.820312 115.425781 L 137.894531 108.949219 Z M 126.65625 110.878906 " fill-opacity="1" fill-rule="nonzero"/><path fill="#263966" d="M 150.625 112.640625 L 140.332031 148.636719 C 139.722656 150.777344 139.269531 152.964844 138.980469 155.171875 L 135.066406 184.992188 C 134.992188 186.800781 133.640625 187.953125 131.882812 188.480469 C 130.300781 186.914062 130.105469 184.476562 129.996094 182.25 C 129.902344 180.226562 129.800781 178.195312 129.707031 176.164062 C 129.632812 174.707031 129.570312 173.230469 129.894531 171.808594 C 130.152344 170.683594 130.660156 169.621094 131.03125 168.523438 C 132.761719 163.417969 131.6875 157.554688 134.058594 152.707031 C 134.457031 151.894531 134.945312 151.121094 135.148438 150.242188 C 135.472656 148.867188 135.066406 147.4375 135.074219 146.023438 C 135.085938 144.675781 135.484375 143.339844 136.214844 142.203125 C 136.667969 141.5 137.242188 140.871094 137.539062 140.105469 C 138.027344 138.859375 137.722656 137.464844 137.714844 136.128906 C 137.695312 133.054688 139.257812 130.199219 140.980469 127.644531 C 141.980469 126.167969 143.0625 124.707031 143.628906 123.007812 C 144.292969 120.988281 144.171875 118.726562 145.117188 116.816406 C 145.625 115.78125 146.550781 114.839844 147.625 114.230469 Z M 150.625 112.640625 " fill-opacity="1" fill-rule="nonzero"/><path fill="#f7b2b2" d="M 119.417969 56.714844 L 120.808594 55.714844 C 121.53125 55.195312 122.023438 54.410156 122.160156 53.53125 C 122.667969 50.242188 124.433594 42.117188 129.292969 42.988281 C 135.367188 44.078125 133.421875 47.863281 133.421875 47.863281 C 133.421875 47.863281 131.484375 54.628906 127.089844 56.714844 L 126.25 60.792969 L 120.84375 59.476562 Z M 119.417969 56.714844 " fill-opacity="1" fill-rule="nonzero"/><path fill="#f1f3f2" d="M 162.25 109.3125 C 162.953125 118.289062 126.976562 120.089844 126.269531 111.113281 L 127.011719 95.871094 C 127.214844 91.683594 126.960938 87.484375 126.253906 83.355469 L 125.546875 79.257812 C 125.382812 78.292969 125.25 77.320312 125.152344 76.34375 C 125.089844 75.722656 124.40625 75.371094 123.859375 75.675781 L 109.917969 83.496094 C 107.507812 84.847656 104.460938 84.160156 102.867188 81.910156 C 102.207031 80.980469 101.882812 79.894531 101.882812 78.808594 C 101.882812 77.558594 102.3125 76.316406 103.175781 75.316406 L 119.40625 56.347656 C 120.273438 54.945312 122.429688 55.570312 124.664062 56.804688 C 125.082031 57.039062 125.59375 57.039062 126.015625 56.808594 C 137.40625 50.65625 147.84375 47.835938 157.3125 50.839844 C 158.222656 51.132812 159.066406 51.613281 159.765625 52.269531 C 166.007812 58.125 164.878906 70.207031 161.160156 83.804688 C 160.5 86.230469 160.300781 88.757812 160.535156 91.261719 Z M 162.25 109.3125 " fill-opacity="1" fill-rule="nonzero"/><path fill="#f7b2b2" d="M 148.851562 45.46875 L 148.851562 50.585938 C 149.253906 54.183594 136.976562 55.554688 136.570312 51.957031 L 136.339844 46.964844 C 136.339844 46.964844 137.570312 43.886719 137.617188 43.695312 C 137.664062 43.507812 147.914062 42.371094 147.914062 42.371094 Z M 148.851562 45.46875 " fill-opacity="1" fill-rule="nonzero"/><path fill="#f7b2b2" d="M 132.066406 26.074219 C 130.023438 31.167969 129.375 37.261719 129.894531 44.152344 C 129.988281 45.363281 130.828125 46.414062 132.007812 46.714844 C 135.175781 47.523438 138.652344 47.222656 141.917969 45.648438 C 141.917969 45.648438 146.113281 35.054688 146.113281 34.488281 C 146.113281 33.921875 138.777344 26.960938 138.316406 26.605469 C 137.855469 26.25 132.066406 26.074219 132.066406 26.074219 Z M 132.066406 26.074219 " fill-opacity="1" fill-rule="nonzero"/><path fill="#eaa7a7" d="M 142.367188 44.511719 C 142.085938 45.210938 142.3125 45.679688 142.3125 45.679688 C 139.050781 47.25 135.175781 47.523438 132.011719 46.71875 C 130.828125 46.414062 129.988281 45.363281 129.898438 44.15625 C 129.375 37.261719 130.023438 31.167969 132.066406 26.070312 C 132.066406 26.070312 132.3125 26.078125 132.707031 26.09375 C 131.09375 30.871094 130.609375 36.457031 131.082031 42.683594 C 131.171875 43.898438 132.011719 44.945312 133.191406 45.246094 C 136.125 45.996094 139.316406 45.796875 142.367188 44.511719 Z M 142.367188 44.511719 " fill-opacity="1" fill-rule="nonzero"/><path fill="#353437" d="M 151.21875 22.203125 C 150.519531 19.75 148.460938 18.765625 145.40625 18.859375 C 143.546875 18.917969 141.707031 19.375 140.03125 20.1875 C 137.363281 21.476562 134.765625 21.769531 132.25 20.8125 C 131.691406 20.601562 131.085938 20.945312 131.003906 21.53125 C 130.546875 24.71875 131.742188 26.691406 134.578125 27.453125 C 135.148438 27.605469 135.476562 28.1875 135.335938 28.761719 C 134.753906 31.140625 134.730469 33.675781 135.558594 36.449219 C 135.789062 37.230469 136.527344 37.753906 137.34375 37.753906 C 137.863281 37.753906 138.375 37.550781 138.714844 37.15625 C 139.5625 36.167969 140.4375 36.171875 141.34375 36.972656 C 142.289062 38.050781 142.183594 41.140625 141.992188 44.402344 C 141.914062 45.746094 143.058594 46.84375 144.402344 46.710938 L 146.269531 46.527344 C 147.730469 46.382812 149.050781 45.589844 149.855469 44.363281 L 154.867188 36.761719 C 155.167969 36.308594 155.382812 35.800781 155.480469 35.269531 C 156.378906 30.445312 155.714844 26.675781 152.816406 24.417969 C 152.078125 23.84375 151.472656 23.097656 151.21875 22.203125 Z M 151.21875 22.203125 " fill-opacity="1" fill-rule="nonzero"/><path fill="#29282b" d="M 155.480469 35.265625 C 155.382812 35.800781 155.167969 36.308594 154.871094 36.757812 L 149.859375 44.367188 C 149.3125 45.183594 148.546875 45.808594 147.65625 46.179688 L 152.1875 39.296875 C 152.492188 38.847656 152.710938 38.34375 152.804688 37.804688 C 153.707031 32.984375 153.039062 29.21875 150.140625 26.957031 C 149.398438 26.378906 148.796875 25.636719 148.539062 24.738281 C 147.839844 22.285156 145.785156 21.300781 142.734375 21.398438 C 140.871094 21.453125 139.03125 21.910156 137.351562 22.726562 C 135.183594 23.777344 133.0625 24.160156 130.980469 23.753906 C 130.878906 23.09375 130.886719 22.351562 131.007812 21.535156 C 131.085938 20.949219 131.695312 20.605469 132.25 20.8125 C 134.765625 21.765625 137.367188 21.476562 140.035156 20.1875 C 141.703125 19.378906 143.542969 18.914062 145.40625 18.855469 C 148.460938 18.769531 150.515625 19.746094 151.214844 22.199219 C 151.472656 23.09375 152.082031 23.839844 152.8125 24.417969 C 155.714844 26.675781 156.378906 30.441406 155.480469 35.265625 Z M 155.480469 35.265625 " fill-opacity="1" fill-rule="nonzero"/><path fill="#d4d6d8" d="M 127.664062 55.953125 C 122.628906 61.425781 115.078125 67.746094 106.789062 74.308594 L 124.734375 56.84375 C 124.996094 56.96875 125.277344 57.003906 125.558594 56.960938 C 125.722656 56.945312 125.875 56.890625 126.019531 56.808594 C 126.570312 56.511719 127.117188 56.226562 127.664062 55.953125 Z M 127.664062 55.953125 " fill-opacity="1" fill-rule="nonzero"/><path fill="#d4d6d8" d="M 126.269531 111.113281 L 127.011719 95.871094 C 127.214844 91.683594 126.960938 87.484375 126.253906 83.355469 L 125.546875 79.257812 C 125.382812 78.292969 125.25 77.320312 125.152344 76.34375 C 125.089844 75.71875 124.40625 75.371094 123.859375 75.675781 L 109.917969 83.496094 C 107.507812 84.847656 104.460938 84.160156 102.867188 81.910156 C 102.207031 80.980469 101.882812 79.894531 101.882812 78.808594 C 101.882812 77.558594 102.3125 76.316406 103.175781 75.316406 L 119.40625 56.347656 C 119.84375 55.636719 120.613281 55.445312 121.558594 55.589844 C 121.914062 56.3125 122.179688 57.121094 121.757812 57.183594 C 119.929688 57.476562 118.324219 58.867188 117.773438 60.636719 C 117.617188 61.125 117.539062 61.640625 117.277344 62.085938 C 117.003906 62.535156 116.566406 62.855469 116.144531 63.175781 C 112.601562 65.867188 109.695312 69.292969 106.824219 72.691406 C 105.972656 73.703125 105.097656 74.742188 104.683594 75.996094 C 104.269531 77.246094 104.410156 78.777344 105.378906 79.671875 C 107.019531 81.207031 109.691406 80.09375 111.523438 78.792969 C 113.75 77.21875 115.875 75.417969 118.398438 74.378906 C 120.925781 73.339844 124.03125 73.191406 126.21875 74.828125 C 128.296875 76.382812 129.066406 79.167969 129.128906 81.757812 C 129.191406 84.355469 128.691406 86.941406 128.84375 89.53125 C 128.953125 91.382812 129.398438 93.199219 129.527344 95.046875 C 129.753906 98.171875 129.101562 101.277344 128.757812 104.390625 C 128.582031 105.996094 128.507812 107.691406 129.25 109.128906 C 130.605469 111.773438 134.054688 112.449219 137.027344 112.464844 C 144.585938 112.515625 152.144531 110.285156 158.457031 106.140625 C 159.527344 105.4375 160.597656 104.664062 161.753906 104.125 L 162.25 109.3125 C 162.953125 118.289062 126.976562 120.089844 126.269531 111.113281 Z M 126.269531 111.113281 " fill-opacity="1" fill-rule="nonzero"/><g clip-path="url(#ecad567bec)"><path fill="#dde9fe" d="M 89.109375 142.351562 C 89.125 148.96875 84.460938 157.03125 78.675781 160.363281 L 17.828125 195.398438 C 14.867188 197.109375 12.179688 197.230469 10.273438 196.058594 L 3.511719 192.136719 C 1.632812 191.046875 0.464844 188.730469 0.457031 185.445312 L 0.09375 54.871094 C 0.0820312 48.246094 4.742188 40.183594 10.519531 36.859375 L 71.367188 1.824219 C 74.277344 0.152344 76.90625 -0.0117188 78.816406 1.09375 L 85.691406 5.078125 C 85.648438 5.054688 85.601562 5.023438 85.554688 5.007812 C 87.507812 6.058594 88.730469 8.40625 88.738281 11.769531 Z M 89.109375 142.351562 " fill-opacity="1" fill-rule="nonzero"/></g><g clip-path="url(#4829b1a8a6)"><path fill="#6a95d3" d="M 85.695312 5.082031 C 83.796875 3.980469 81.160156 4.136719 78.253906 5.8125 L 17.398438 40.851562 C 11.621094 44.175781 6.957031 52.238281 6.972656 58.851562 L 7.339844 189.429688 C 7.347656 192.71875 8.511719 195.03125 10.386719 196.125 L 3.507812 192.132812 C 1.632812 191.046875 0.46875 188.734375 0.460938 185.445312 L 0.09375 54.867188 C 0.078125 48.242188 4.742188 40.183594 10.519531 36.859375 L 71.367188 1.820312 C 74.28125 0.152344 76.910156 -0.0078125 78.816406 1.09375 Z M 85.695312 5.082031 " fill-opacity="1" fill-rule="nonzero"/></g><path fill="#dde9fe" d="M 78.25 5.8125 C 84.027344 2.484375 88.722656 5.152344 88.742188 11.769531 L 89.105469 142.351562 C 89.125 148.96875 84.457031 157.03125 78.679688 160.359375 L 17.828125 195.398438 C 12.050781 198.726562 7.355469 196.050781 7.339844 189.433594 L 6.976562 58.851562 C 6.957031 52.234375 11.621094 44.175781 17.398438 40.847656 Z M 78.25 5.8125 " fill-opacity="1" fill-rule="nonzero"/><path fill="#ffffff" d="M 78.46875 12.289062 C 82.179688 10.152344 85.207031 11.878906 85.21875 16.125 L 85.5625 139.992188 C 85.574219 144.242188 82.570312 149.4375 78.859375 151.578125 L 18.007812 186.613281 C 14.296875 188.75 11.269531 187.027344 11.257812 182.777344 L 10.914062 58.914062 C 10.902344 54.664062 13.90625 49.464844 17.621094 47.328125 Z M 78.46875 12.289062 " fill-opacity="1" fill-rule="nonzero"/><path fill="#b0c4ff" d="M 76.238281 79.046875 C 76.253906 83.269531 73.285156 88.402344 69.601562 90.519531 L 28.765625 114.03125 C 26.882812 115.121094 25.175781 115.203125 23.957031 114.453125 L 22.414062 113.554688 C 21.210938 112.863281 20.472656 111.390625 20.464844 109.296875 L 20.234375 62.628906 C 20.226562 58.40625 23.195312 53.273438 26.875 51.15625 L 67.707031 27.644531 C 69.5625 26.578125 71.238281 26.476562 72.453125 27.183594 L 74.070312 28.121094 C 74.023438 28.089844 73.976562 28.066406 73.921875 28.050781 C 75.199219 28.695312 76 30.199219 76.007812 32.378906 Z M 76.238281 79.046875 " fill-opacity="1" fill-rule="nonzero"/><path fill="#92b2f9" d="M 74.070312 28.121094 C 72.859375 27.417969 71.179688 27.519531 69.328125 28.585938 L 28.492188 52.097656 C 24.8125 54.214844 21.84375 59.351562 21.851562 63.5625 L 22.085938 110.230469 C 22.09375 112.328125 22.832031 113.800781 24.03125 114.5 L 22.410156 113.554688 C 21.214844 112.863281 20.472656 111.390625 20.46875 109.296875 L 20.234375 62.625 C 20.226562 58.40625 23.195312 53.273438 26.875 51.15625 L 67.707031 27.644531 C 69.5625 26.582031 71.238281 26.480469 72.453125 27.183594 Z M 74.070312 28.121094 " fill-opacity="1" fill-rule="nonzero"/><path fill="#b0c4ff" d="M 69.328125 28.585938 C 73.007812 26.464844 76 28.164062 76.011719 32.378906 L 76.242188 79.050781 C 76.253906 83.265625 73.28125 88.402344 69.601562 90.523438 L 28.769531 114.035156 C 25.089844 116.152344 22.097656 114.449219 22.085938 110.234375 L 21.855469 63.5625 C 21.84375 59.347656 24.816406 54.214844 28.496094 52.097656 Z M 69.328125 28.585938 " fill-opacity="1" fill-rule="nonzero"/><path fill="#dde9fe" d="M 70.417969 86.371094 L 27.632812 110.984375 C 26.601562 111.578125 25.3125 110.835938 25.308594 109.652344 L 25.113281 60.832031 C 25.109375 59.011719 26.082031 57.324219 27.664062 56.410156 L 70.460938 31.691406 C 71.492188 31.09375 72.78125 31.835938 72.785156 33.023438 L 72.976562 81.941406 C 72.980469 83.769531 72.003906 85.457031 70.417969 86.371094 Z M 70.417969 86.371094 " fill-opacity="1" fill-rule="nonzero"/><path fill="#ffffff" d="M 48.992188 53.125 C 57.769531 48.070312 64.90625 52.128906 64.933594 62.1875 C 64.964844 72.246094 57.875 84.492188 49.097656 89.546875 C 40.320312 94.601562 33.183594 90.546875 33.15625 80.488281 C 33.125 70.429688 40.214844 58.183594 48.992188 53.125 Z M 48.992188 53.125 " fill-opacity="1" fill-rule="nonzero"/><path fill="#5789dc" d="M 49.015625 67.9375 C 51.808594 66.332031 54.339844 66.167969 56.175781 67.21875 C 57.78125 68.128906 58.855469 69.957031 59.105469 72.542969 C 59.164062 73.144531 58.726562 73.957031 58.164062 74.277344 L 39.929688 84.78125 C 39.371094 85.101562 38.929688 84.800781 38.984375 84.132812 C 39.484375 77.996094 43.78125 70.953125 49.015625 67.9375 Z M 49.015625 67.9375 " fill-opacity="1" fill-rule="nonzero"/><path fill="#5789dc" d="M 48.988281 58.230469 C 50.878906 57.144531 52.417969 58.019531 52.425781 60.183594 C 52.429688 62.355469 50.898438 64.996094 49.011719 66.085938 C 47.117188 67.175781 45.578125 66.300781 45.574219 64.128906 C 45.566406 61.964844 47.097656 59.320312 48.988281 58.230469 Z M 48.988281 58.230469 " fill-opacity="1" fill-rule="nonzero"/><path fill="#dde9fe" d="M 73.371094 96.570312 C 74.605469 95.859375 75.605469 96.433594 75.609375 97.84375 L 75.628906 103.851562 C 75.632812 105.261719 74.640625 106.984375 73.40625 107.695312 L 24.71875 135.734375 C 23.488281 136.441406 22.484375 135.871094 22.480469 134.460938 L 22.457031 128.453125 C 22.453125 127.042969 23.453125 125.316406 24.683594 124.609375 Z M 73.371094 96.570312 " fill-opacity="1" fill-rule="nonzero"/><path fill="#5789dc" d="M 28.652344 125.21875 L 28.65625 127.128906 L 30.28125 125.539062 L 30.582031 126.316406 L 28.957031 127.859375 L 29.96875 128.886719 L 29.234375 129.921875 L 28.25 128.816406 L 27.269531 131.050781 L 26.507812 130.878906 L 27.523438 128.683594 L 25.882812 129.023438 L 26.179688 127.902344 L 27.792969 127.640625 L 27.785156 125.71875 Z M 28.652344 125.21875 " fill-opacity="1" fill-rule="nonzero"/><path fill="#5789dc" d="M 34.597656 121.796875 L 34.601562 123.703125 L 36.226562 122.117188 L 36.527344 122.890625 L 34.90625 124.433594 L 35.914062 125.460938 L 35.179688 126.496094 L 34.199219 125.390625 L 33.214844 127.628906 L 32.453125 127.457031 L 33.472656 125.261719 L 31.828125 125.597656 L 32.125 124.480469 L 33.738281 124.214844 L 33.730469 122.292969 Z M 34.597656 121.796875 " fill-opacity="1" fill-rule="nonzero"/><path fill="#5789dc" d="M 40.542969 118.371094 L 40.550781 120.277344 L 42.175781 118.691406 L 42.472656 119.46875 L 40.847656 121.011719 L 41.859375 122.039062 L 41.125 123.074219 L 40.144531 121.96875 L 39.160156 124.203125 L 38.402344 124.03125 L 39.417969 121.835938 L 37.773438 122.175781 L 38.070312 121.054688 L 39.683594 120.792969 L 39.675781 118.871094 Z M 40.542969 118.371094 " fill-opacity="1" fill-rule="nonzero"/><path fill="#5789dc" d="M 46.488281 114.949219 L 46.496094 116.855469 L 48.117188 115.269531 L 48.421875 116.042969 L 46.792969 117.585938 L 47.808594 118.613281 L 47.070312 119.648438 L 46.085938 118.542969 L 45.109375 120.777344 L 44.347656 120.605469 L 45.363281 118.414062 L 43.71875 118.75 L 44.015625 117.628906 L 45.628906 117.367188 L 45.625 115.445312 Z M 46.488281 114.949219 " fill-opacity="1" fill-rule="nonzero"/><path fill="#5789dc" d="M 52.4375 111.523438 L 52.441406 113.429688 L 54.066406 111.84375 L 54.367188 112.621094 L 52.742188 114.164062 L 53.753906 115.191406 L 53.015625 116.226562 L 52.035156 115.121094 L 51.054688 117.355469 L 50.292969 117.183594 L 51.308594 114.988281 L 49.664062 115.328125 L 49.964844 114.207031 L 51.578125 113.941406 L 51.570312 112.023438 Z M 52.4375 111.523438 " fill-opacity="1" fill-rule="nonzero"/><path fill="#5789dc" d="M 58.382812 108.101562 L 58.386719 110.007812 L 60.011719 108.421875 L 60.316406 109.195312 L 58.6875 110.738281 L 59.699219 111.765625 L 58.964844 112.800781 L 57.980469 111.699219 L 57.003906 113.929688 L 56.238281 113.761719 L 57.253906 111.566406 L 55.613281 111.902344 L 55.910156 110.78125 L 57.523438 110.519531 L 57.515625 108.597656 Z M 58.382812 108.101562 " fill-opacity="1" fill-rule="nonzero"/><path fill="#5789dc" d="M 64.328125 104.675781 L 64.332031 106.582031 L 65.957031 104.996094 L 66.261719 105.773438 L 64.632812 107.316406 L 65.648438 108.34375 L 64.910156 109.378906 L 63.925781 108.273438 L 62.949219 110.507812 L 62.183594 110.335938 L 63.203125 108.140625 L 61.558594 108.480469 L 61.855469 107.359375 L 63.46875 107.097656 L 63.464844 105.175781 Z M 64.328125 104.675781 " fill-opacity="1" fill-rule="nonzero"/><path fill="#5789dc" d="M 70.273438 101.253906 L 70.28125 103.160156 L 71.90625 101.574219 L 72.207031 102.347656 L 70.582031 103.894531 L 71.59375 104.917969 L 70.855469 105.953125 L 69.875 104.851562 L 68.894531 107.082031 L 68.132812 106.914062 L 69.148438 104.71875 L 67.503906 105.054688 L 67.800781 103.933594 L 69.414062 103.671875 L 69.410156 101.75 Z M 70.273438 101.253906 " fill-opacity="1" fill-rule="nonzero"/><path fill="#dde9fe" d="M 73.371094 113.601562 C 74.605469 112.886719 75.605469 113.460938 75.609375 114.875 L 75.628906 120.878906 C 75.632812 122.289062 74.640625 124.011719 73.40625 124.726562 L 24.71875 152.761719 C 23.488281 153.472656 22.484375 152.898438 22.480469 151.488281 L 22.457031 145.484375 C 22.453125 144.070312 23.453125 142.347656 24.683594 141.636719 Z M 73.371094 113.601562 " fill-opacity="1" fill-rule="nonzero"/><path fill="#5789dc" d="M 28.652344 142.25 L 28.65625 144.15625 L 30.28125 142.570312 L 30.582031 143.347656 L 28.957031 144.890625 L 29.96875 145.914062 L 29.234375 146.949219 L 28.25 145.847656 L 27.269531 148.078125 L 26.507812 147.910156 L 27.523438 145.714844 L 25.882812 146.050781 L 26.179688 144.929688 L 27.792969 144.667969 L 27.785156 142.746094 Z M 28.652344 142.25 " fill-opacity="1" fill-rule="nonzero"/><path fill="#5789dc" d="M 34.597656 138.824219 L 34.601562 140.730469 L 36.226562 139.144531 L 36.527344 139.921875 L 34.90625 141.464844 L 35.914062 142.492188 L 35.179688 143.527344 L 34.199219 142.421875 L 33.214844 144.65625 L 32.453125 144.484375 L 33.472656 142.289062 L 31.828125 142.628906 L 32.125 141.507812 L 33.738281 141.246094 L 33.730469 139.324219 Z M 34.597656 138.824219 " fill-opacity="1" fill-rule="nonzero"/><path fill="#5789dc" d="M 40.542969 135.398438 L 40.550781 137.308594 L 42.175781 135.71875 L 42.472656 136.496094 L 40.847656 138.039062 L 41.859375 139.066406 L 41.125 140.101562 L 40.144531 138.996094 L 39.160156 141.230469 L 38.402344 141.058594 L 39.417969 138.863281 L 37.773438 139.203125 L 38.070312 138.085938 L 39.683594 137.820312 L 39.675781 135.898438 Z M 40.542969 135.398438 " fill-opacity="1" fill-rule="nonzero"/><path fill="#5789dc" d="M 46.488281 131.976562 L 46.496094 133.882812 L 48.117188 132.296875 L 48.421875 133.070312 L 46.792969 134.617188 L 47.808594 135.640625 L 47.070312 136.675781 L 46.085938 135.574219 L 45.109375 137.808594 L 44.347656 137.636719 L 45.363281 135.441406 L 43.71875 135.78125 L 44.015625 134.660156 L 45.628906 134.394531 L 45.625 132.472656 Z M 46.488281 131.976562 " fill-opacity="1" fill-rule="nonzero"/><path fill="#5789dc" d="M 52.4375 128.550781 L 52.441406 130.460938 L 54.066406 128.871094 L 54.367188 129.648438 L 52.742188 131.191406 L 53.753906 132.21875 L 53.015625 133.253906 L 52.035156 132.148438 L 51.054688 134.382812 L 50.292969 134.210938 L 51.308594 132.015625 L 49.664062 132.355469 L 49.964844 131.234375 L 51.578125 130.972656 L 51.570312 129.050781 Z M 52.4375 128.550781 " fill-opacity="1" fill-rule="nonzero"/><path fill="#5789dc" d="M 58.382812 125.128906 L 58.386719 127.035156 L 60.011719 125.449219 L 60.316406 126.222656 L 58.6875 127.769531 L 59.699219 128.792969 L 58.964844 129.828125 L 57.980469 128.726562 L 57.003906 130.960938 L 56.238281 130.789062 L 57.253906 128.59375 L 55.613281 128.933594 L 55.910156 127.8125 L 57.523438 127.546875 L 57.515625 125.625 Z M 58.382812 125.128906 " fill-opacity="1" fill-rule="nonzero"/><path fill="#5789dc" d="M 64.328125 121.703125 L 64.332031 123.613281 L 65.957031 122.023438 L 66.261719 122.800781 L 64.632812 124.34375 L 65.648438 125.371094 L 64.910156 126.40625 L 63.925781 125.300781 L 62.949219 127.535156 L 62.183594 127.363281 L 63.203125 125.167969 L 61.558594 125.507812 L 61.855469 124.386719 L 63.46875 124.125 L 63.464844 122.203125 Z M 64.328125 121.703125 " fill-opacity="1" fill-rule="nonzero"/><path fill="#5789dc" d="M 70.273438 118.28125 L 70.28125 120.1875 L 71.90625 118.601562 L 72.207031 119.375 L 70.582031 120.921875 L 71.59375 121.945312 L 70.855469 122.980469 L 69.875 121.878906 L 68.894531 124.113281 L 68.132812 123.941406 L 69.148438 121.746094 L 67.503906 122.085938 L 67.800781 120.964844 L 69.414062 120.699219 L 69.410156 118.777344 Z M 70.273438 118.28125 " fill-opacity="1" fill-rule="nonzero"/><path fill="#dde9fe" d="M 59.90625 139.667969 C 63.34375 137.691406 66.140625 139.277344 66.152344 143.21875 C 66.160156 147.15625 63.382812 151.953125 59.945312 153.929688 L 38.183594 166.464844 C 34.742188 168.445312 31.949219 166.855469 31.9375 162.917969 C 31.925781 158.976562 34.703125 154.183594 38.144531 152.199219 Z M 59.90625 139.667969 " fill-opacity="1" fill-rule="nonzero"/><path fill="#285294" d="M 39.75 156.019531 L 39.753906 156.609375 L 37.414062 157.953125 L 37.417969 159.410156 L 39.472656 158.226562 L 39.472656 158.796875 L 37.421875 159.980469 L 37.425781 162.164062 L 36.859375 162.492188 L 36.84375 157.691406 Z M 39.75 156.019531 " fill-opacity="1" fill-rule="nonzero"/><path fill="#285294" d="M 43.808594 154.371094 C 44.085938 154.632812 44.226562 155.097656 44.230469 155.757812 C 44.230469 156.476562 44.074219 157.164062 43.757812 157.820312 C 43.386719 158.59375 42.855469 159.175781 42.164062 159.574219 C 41.523438 159.945312 41.015625 159.992188 40.644531 159.71875 C 40.316406 159.4375 40.148438 158.9375 40.148438 158.214844 C 40.144531 157.566406 40.285156 156.933594 40.5625 156.3125 C 40.925781 155.507812 41.457031 154.90625 42.164062 154.496094 C 42.902344 154.070312 43.453125 154.03125 43.808594 154.371094 Z M 43.316406 157.714844 C 43.539062 157.171875 43.648438 156.636719 43.644531 156.105469 C 43.644531 155.539062 43.515625 155.160156 43.257812 154.964844 C 43 154.769531 42.644531 154.800781 42.199219 155.058594 C 41.765625 155.304688 41.414062 155.679688 41.140625 156.179688 C 40.867188 156.675781 40.734375 157.257812 40.734375 157.921875 C 40.734375 158.453125 40.855469 158.832031 41.089844 159.066406 C 41.324219 159.292969 41.707031 159.257812 42.234375 158.957031 C 42.734375 158.667969 43.09375 158.25 43.316406 157.714844 " fill-opacity="1" fill-rule="nonzero"/><path fill="#285294" d="M 48.273438 155.515625 C 48.308594 155.648438 48.367188 155.710938 48.457031 155.703125 L 48.457031 155.8125 L 47.761719 156.210938 C 47.742188 156.183594 47.726562 156.136719 47.714844 156.078125 C 47.703125 156.019531 47.695312 155.898438 47.683594 155.714844 L 47.648438 154.933594 C 47.636719 154.628906 47.53125 154.476562 47.34375 154.480469 C 47.234375 154.484375 47.0625 154.554688 46.832031 154.6875 L 45.539062 155.429688 L 45.546875 157.488281 L 44.980469 157.816406 L 44.964844 153.015625 L 46.90625 151.898438 C 47.222656 151.714844 47.484375 151.617188 47.695312 151.605469 C 48.085938 151.582031 48.285156 151.847656 48.285156 152.398438 C 48.289062 152.683594 48.238281 152.949219 48.136719 153.195312 C 48.03125 153.4375 47.886719 153.664062 47.699219 153.882812 C 47.863281 153.867188 47.988281 153.894531 48.070312 153.972656 C 48.152344 154.050781 48.203125 154.222656 48.210938 154.496094 L 48.230469 155.128906 C 48.238281 155.308594 48.253906 155.4375 48.273438 155.515625 Z M 47.480469 153.585938 C 47.636719 153.375 47.714844 153.109375 47.710938 152.789062 C 47.710938 152.453125 47.601562 152.277344 47.382812 152.28125 C 47.269531 152.28125 47.113281 152.335938 46.921875 152.449219 L 45.535156 153.246094 L 45.539062 154.886719 L 46.851562 154.132812 C 47.117188 153.976562 47.328125 153.796875 47.480469 153.585938 " fill-opacity="1" fill-rule="nonzero"/><path fill="#285294" d="M 50.921875 149.460938 C 51.316406 149.234375 51.65625 149.125 51.945312 149.136719 C 52.359375 149.144531 52.617188 149.4375 52.710938 150.011719 L 52.152344 150.335938 C 52.082031 150.023438 51.9375 149.851562 51.722656 149.8125 C 51.507812 149.777344 51.234375 149.851562 50.910156 150.039062 C 50.523438 150.261719 50.195312 150.617188 49.933594 151.101562 C 49.667969 151.589844 49.535156 152.164062 49.539062 152.820312 C 49.539062 153.394531 49.652344 153.796875 49.871094 154.027344 C 50.089844 154.261719 50.449219 154.230469 50.941406 153.949219 C 51.320312 153.730469 51.632812 153.425781 51.878906 153.03125 C 52.128906 152.636719 52.253906 152.15625 52.253906 151.589844 L 50.945312 152.34375 L 50.945312 151.808594 L 52.78125 150.75 L 52.789062 153.316406 L 52.425781 153.527344 L 52.285156 152.988281 C 52.09375 153.339844 51.925781 153.605469 51.777344 153.785156 C 51.527344 154.089844 51.210938 154.355469 50.828125 154.574219 C 50.332031 154.859375 49.90625 154.921875 49.546875 154.757812 C 49.15625 154.519531 48.960938 154 48.957031 153.195312 C 48.957031 152.390625 49.144531 151.640625 49.523438 150.949219 C 49.882812 150.289062 50.347656 149.792969 50.921875 149.460938 Z M 50.921875 149.460938 " fill-opacity="1" fill-rule="nonzero"/><path fill="#285294" d="M 57.105469 146.710938 C 57.382812 146.976562 57.523438 147.4375 57.527344 148.101562 C 57.527344 148.816406 57.371094 149.507812 57.054688 150.164062 C 56.683594 150.9375 56.152344 151.519531 55.464844 151.917969 C 54.820312 152.289062 54.3125 152.335938 53.941406 152.058594 C 53.613281 151.78125 53.445312 151.28125 53.445312 150.558594 C 53.441406 149.910156 53.582031 149.277344 53.859375 148.652344 C 54.21875 147.851562 54.753906 147.246094 55.460938 146.839844 C 56.199219 146.414062 56.746094 146.375 57.105469 146.710938 Z M 56.613281 150.058594 C 56.835938 149.515625 56.945312 148.980469 56.941406 148.445312 C 56.941406 147.882812 56.8125 147.5 56.554688 147.304688 C 56.292969 147.113281 55.941406 147.140625 55.496094 147.398438 C 55.0625 147.648438 54.710938 148.023438 54.4375 148.523438 C 54.164062 149.019531 54.03125 149.601562 54.03125 150.265625 C 54.035156 150.796875 54.152344 151.175781 54.386719 151.410156 C 54.625 151.636719 55.003906 151.601562 55.53125 151.296875 C 56.03125 151.011719 56.390625 150.59375 56.613281 150.058594 " fill-opacity="1" fill-rule="nonzero"/><path fill="#285294" d="M 61.242188 143.640625 L 61.242188 144.214844 L 59.832031 145.027344 L 59.84375 149.253906 L 59.269531 149.585938 L 59.257812 145.359375 L 57.84375 146.171875 L 57.84375 145.597656 Z M 61.242188 143.640625 " fill-opacity="1" fill-rule="nonzero"/><path fill="#b0c4ff" d="M 64.800781 182.945312 C 64.769531 182.929688 64.738281 182.90625 64.707031 182.890625 C 64.621094 182.835938 64.546875 182.777344 64.476562 182.714844 C 64.578125 182.796875 64.683594 182.875 64.800781 182.945312 Z M 64.800781 182.945312 " fill-opacity="1" fill-rule="nonzero"/><path fill="#b0c4ff" d="M 112.734375 157.109375 L 68.507812 182.574219 C 67 183.449219 65.714844 183.488281 64.800781 182.945312 C 64.683594 182.875 64.578125 182.796875 64.476562 182.714844 C 64.546875 182.777344 64.621094 182.835938 64.707031 182.890625 L 61.824219 181.21875 C 60.082031 180.210938 59.636719 177.105469 61.398438 173.523438 L 83.429688 124.527344 C 84.46875 122.417969 85.984375 120.78125 87.5 119.914062 C 88.847656 119.140625 90.179688 118.957031 91.191406 119.546875 L 94.195312 121.28125 C 94.332031 121.359375 94.460938 121.457031 94.585938 121.566406 L 116.785156 145.09375 C 119.503906 147.449219 117.085938 154.605469 112.734375 157.109375 Z M 112.734375 157.109375 " fill-opacity="1" fill-rule="nonzero"/><path fill="#b0c4ff" d="M 64.800781 182.945312 C 64.769531 182.929688 64.738281 182.90625 64.707031 182.890625 C 64.621094 182.835938 64.546875 182.777344 64.476562 182.714844 C 64.578125 182.796875 64.683594 182.875 64.800781 182.945312 Z M 64.800781 182.945312 " fill-opacity="1" fill-rule="nonzero"/><path fill="#92b2f9" d="M 94.191406 121.277344 C 93.179688 120.691406 91.835938 120.875 90.503906 121.644531 C 88.984375 122.523438 87.46875 124.152344 86.425781 126.265625 L 64.402344 175.261719 C 62.636719 178.84375 63.085938 181.949219 64.824219 182.960938 L 61.820312 181.222656 C 60.082031 180.214844 59.636719 177.101562 61.402344 173.523438 L 83.429688 124.527344 C 84.464844 122.417969 85.984375 120.78125 87.503906 119.914062 C 88.84375 119.140625 90.175781 118.957031 91.191406 119.542969 Z M 94.191406 121.277344 " fill-opacity="1" fill-rule="nonzero"/><path fill="#b0c4ff" d="M 90.503906 121.648438 C 92.023438 120.773438 93.542969 120.652344 94.589844 121.5625 L 116.789062 145.09375 C 119.5 147.449219 117.089844 154.605469 112.734375 157.109375 L 68.511719 182.578125 C 64.15625 185.085938 61.714844 180.726562 64.402344 175.261719 L 86.425781 126.265625 C 87.464844 124.152344 88.984375 122.523438 90.503906 121.648438 Z M 90.503906 121.648438 " fill-opacity="1" fill-rule="nonzero"/><path fill="#dde9fe" d="M 90.59375 133.898438 C 92.703125 132.683594 94.382812 133.765625 94.25 136.257812 L 93.683594 149.300781 C 93.585938 151.203125 92.265625 153.398438 90.652344 154.328125 C 89.042969 155.253906 87.707031 154.585938 87.597656 152.804688 L 86.960938 140.453125 C 86.824219 138.121094 88.492188 135.109375 90.59375 133.898438 Z M 90.59375 133.898438 " fill-opacity="1" fill-rule="nonzero"/><path fill="#dde9fe" d="M 90.664062 156.628906 C 92.183594 155.753906 93.421875 156.460938 93.425781 158.210938 C 93.433594 159.957031 92.199219 162.078125 90.683594 162.953125 C 89.148438 163.835938 87.914062 163.132812 87.910156 161.386719 C 87.90625 159.636719 89.132812 157.511719 90.664062 156.628906 Z M 90.664062 156.628906 " fill-opacity="1" fill-rule="nonzero"/><path fill="#b0c4ff" d="M 112.410156 35.785156 C 112.417969 37.710938 111.0625 40.058594 109.386719 41.035156 L 92.492188 50.808594 C 92.316406 50.910156 92.164062 51.085938 92.054688 51.285156 L 87.671875 59.449219 C 87.601562 59.566406 87.515625 59.648438 87.4375 59.703125 C 87.324219 59.765625 87.214844 59.765625 87.164062 59.6875 L 85.09375 58.5 C 85.039062 58.460938 85 58.382812 85.007812 58.261719 L 85.199219 55.023438 L 83.484375 56.019531 C 82.648438 56.503906 81.886719 56.550781 81.332031 56.226562 L 81.238281 56.171875 L 79.222656 55 C 78.667969 54.683594 78.339844 54.011719 78.332031 53.050781 L 78.292969 38.273438 C 78.292969 36.339844 79.644531 33.996094 81.324219 33.03125 L 107.21875 18.039062 C 108.070312 17.554688 108.832031 17.507812 109.386719 17.832031 L 111.363281 18.988281 C 111.980469 19.273438 112.363281 19.972656 112.371094 21 Z M 112.410156 35.785156 " fill-opacity="1" fill-rule="nonzero"/><path fill="#92b2f9" d="M 87.109375 59.492188 C 87.109375 59.613281 87.144531 59.6875 87.207031 59.71875 L 85.097656 58.5 C 85.039062 58.460938 85 58.386719 85.007812 58.265625 L 85.308594 53.25 C 85.316406 53.039062 85.25 52.894531 85.136719 52.820312 L 87.242188 54.046875 C 87.355469 54.113281 87.425781 54.269531 87.410156 54.480469 Z M 87.109375 59.492188 " fill-opacity="1" fill-rule="nonzero"/><path fill="#92b2f9" d="M 111.488281 19.058594 C 110.9375 18.730469 110.171875 18.78125 109.328125 19.269531 L 83.421875 34.257812 C 81.75 35.226562 80.394531 37.570312 80.402344 39.5 L 80.441406 54.277344 C 80.441406 55.238281 80.785156 55.910156 81.328125 56.230469 L 79.226562 55 C 78.671875 54.683594 78.339844 54.007812 78.332031 53.046875 L 78.292969 38.269531 C 78.292969 36.339844 79.648438 33.996094 81.320312 33.03125 L 107.214844 18.039062 C 108.070312 17.550781 108.832031 17.511719 109.386719 17.828125 Z M 111.488281 19.058594 " fill-opacity="1" fill-rule="nonzero"/><path fill="#b0c4ff" d="M 109.328125 19.269531 C 111.003906 18.300781 112.363281 19.074219 112.371094 21 L 112.410156 35.785156 C 112.417969 37.710938 111.066406 40.0625 109.386719 41.035156 L 92.488281 50.8125 C 92.320312 50.910156 92.160156 51.082031 92.050781 51.285156 L 87.667969 59.449219 C 87.601562 59.570312 87.519531 59.652344 87.4375 59.699219 C 87.265625 59.800781 87.101562 59.734375 87.113281 59.488281 L 87.410156 54.476562 C 87.433594 54.074219 87.167969 53.890625 86.824219 54.089844 L 83.484375 56.019531 C 81.8125 56.988281 80.445312 56.207031 80.441406 54.277344 L 80.398438 39.496094 C 80.394531 37.570312 81.75 35.226562 83.421875 34.257812 Z M 109.328125 19.269531 " fill-opacity="1" fill-rule="nonzero"/><path fill="#5789dc" d="M 102.40625 28.714844 C 104.894531 27.277344 106.914062 28.429688 106.921875 31.285156 C 106.929688 34.140625 104.921875 37.625 102.4375 39.066406 C 100.5 40.1875 98.851562 39.722656 98.214844 38.128906 L 93.542969 40.828125 L 93.546875 41.988281 C 93.546875 42.492188 93.199219 43.101562 92.769531 43.351562 C 92.339844 43.597656 91.984375 43.398438 91.984375 42.894531 L 91.980469 41.734375 L 90.472656 42.605469 L 90.476562 44.292969 C 90.480469 44.789062 90.128906 45.398438 89.699219 45.644531 C 89.253906 45.902344 88.902344 45.699219 88.898438 45.207031 L 88.894531 43.519531 L 87.457031 44.351562 C 86.597656 44.847656 85.890625 44.445312 85.890625 43.453125 C 85.886719 42.960938 86.054688 42.40625 86.34375 41.917969 C 86.625 41.429688 87.019531 41 87.449219 40.75 L 98.203125 34.527344 C 98.832031 32.195312 100.46875 29.835938 102.40625 28.714844 Z M 102.425781 36.195312 C 103.539062 35.550781 104.425781 34.007812 104.421875 32.734375 C 104.417969 31.460938 103.527344 30.941406 102.414062 31.585938 C 101.308594 32.226562 100.410156 33.777344 100.414062 35.050781 C 100.417969 36.324219 101.320312 36.832031 102.425781 36.195312 " fill-opacity="1" fill-rule="nonzero"/></svg>