<svg xmlns="http://www.w3.org/2000/svg" xmlns:xlink="http://www.w3.org/1999/xlink" width="166" zoomAndPan="magnify" viewBox="0 0 124.5 136.499995" height="182" preserveAspectRatio="xMidYMid meet" version="1.0"><defs><clipPath id="14e70b0f96"><path d="M 33 0.0234375 L 84 0.0234375 L 84 102 L 33 102 Z M 33 0.0234375 " clip-rule="nonzero"/></clipPath><clipPath id="e98e0c71bf"><path d="M 29 90 L 90 90 L 90 135.976562 L 29 135.976562 Z M 29 90 " clip-rule="nonzero"/></clipPath><clipPath id="8470145df2"><path d="M 76 98 L 101 98 L 101 135.976562 L 76 135.976562 Z M 76 98 " clip-rule="nonzero"/></clipPath><clipPath id="94afd4a066"><path d="M 18 98 L 43 98 L 43 135.976562 L 18 135.976562 Z M 18 98 " clip-rule="nonzero"/></clipPath><clipPath id="12d57d48e2"><path d="M 36 95 L 83 95 L 83 135.976562 L 36 135.976562 Z M 36 95 " clip-rule="nonzero"/></clipPath><clipPath id="6f21221b78"><path d="M 63 131 L 81 131 L 81 135.976562 L 63 135.976562 Z M 63 131 " clip-rule="nonzero"/></clipPath><clipPath id="35b593b8aa"><path d="M 59 113 L 67 113 L 67 135.976562 L 59 135.976562 Z M 59 113 " clip-rule="nonzero"/></clipPath><clipPath id="31a0d326e5"><path d="M 38 131 L 57 131 L 57 135.976562 L 38 135.976562 Z M 38 131 " clip-rule="nonzero"/></clipPath><clipPath id="61a382dfe8"><path d="M 52 113 L 60 113 L 60 135.976562 L 52 135.976562 Z M 52 113 " clip-rule="nonzero"/></clipPath><clipPath id="6e278fbd20"><path d="M 9 135 L 114 135 L 114 135.976562 L 9 135.976562 Z M 9 135 " clip-rule="nonzero"/></clipPath></defs><g clip-path="url(#14e70b0f96)"><path fill="#4c81cb" d="M 35.105469 72.625 C 33.292969 63.695312 32.945312 56.0625 36.785156 47.605469 C 44.976562 29.558594 61.695312 19.386719 75.210938 5.667969 C 76.941406 3.910156 78.546875 1.996094 80.105469 0.0234375 C 81.929688 16.140625 85.222656 30.835938 83.371094 47.21875 C 81.527344 63.464844 72.941406 76.941406 60.152344 87.277344 C 55.960938 90.667969 49.59375 95.382812 45.171875 101.34375 C 41.980469 105.652344 36.132812 77.703125 35.105469 72.625 " fill-opacity="1" fill-rule="nonzero"/></g><path fill="#1d1e32" d="M 47.035156 127.132812 L 47.089844 127.128906 C 47.273438 127.097656 47.398438 126.925781 47.367188 126.746094 C 42.5 97.136719 46.519531 55.324219 66.839844 33.488281 C 66.964844 33.351562 66.960938 33.140625 66.824219 33.015625 C 66.6875 32.890625 66.476562 32.898438 66.347656 33.035156 C 45.871094 55.03125 41.8125 97.085938 46.707031 126.851562 C 46.734375 127.015625 46.875 127.132812 47.035156 127.132812 " fill-opacity="1" fill-rule="nonzero"/><path fill="#40bfc2" d="M 37.527344 107.011719 C 41.230469 87.683594 31.152344 57.851562 8.554688 54.425781 C 3.761719 53.699219 0.0507812 54.070312 0.449219 59.542969 C 0.726562 63.296875 2.421875 67 4.351562 70.253906 C 9.453125 78.847656 16.226562 84.320312 23.066406 91.421875 C 26.160156 94.632812 29.066406 97.65625 32.21875 100.675781 C 33.308594 101.722656 34.085938 102.808594 34.898438 104.039062 C 35.429688 104.84375 37.148438 107.871094 37.058594 107.242188 L 37.527344 107.011719 " fill-opacity="1" fill-rule="nonzero"/><path fill="#1d1e32" d="M 12.777344 64.683594 C 18.746094 70.851562 23.886719 76.757812 27.953125 83.496094 C 32.019531 90.230469 35.015625 97.796875 36.699219 107.308594 C 37.8125 113.609375 38.058594 118.769531 38.058594 122.28125 C 38.058594 123.628906 38.023438 124.734375 37.984375 125.570312 C 37.949219 126.40625 37.914062 126.964844 37.910156 127.253906 C 37.910156 127.453125 38.070312 127.621094 38.273438 127.621094 C 38.476562 127.621094 38.640625 127.460938 38.640625 127.257812 C 38.644531 127.015625 38.679688 126.441406 38.71875 125.601562 C 38.753906 124.757812 38.789062 123.640625 38.789062 122.28125 C 38.789062 118.734375 38.542969 113.53125 37.421875 107.179688 C 35.722656 97.589844 32.6875 89.925781 28.578125 83.117188 C 24.46875 76.308594 19.289062 70.359375 13.300781 64.175781 C 13.160156 64.03125 12.929688 64.027344 12.785156 64.167969 C 12.640625 64.308594 12.636719 64.539062 12.777344 64.683594 " fill-opacity="1" fill-rule="nonzero"/><path fill="#57b7e5" d="M 95.679688 34.964844 C 93.785156 38.476562 96.726562 42.15625 96.515625 45.746094 C 95.921875 55.789062 78.679688 54.324219 80.597656 64.980469 C 80.984375 67.121094 82.328125 69.019531 83.746094 70.601562 C 84.910156 71.898438 87.09375 73.21875 87.429688 75.101562 C 88.054688 78.628906 82.816406 80.859375 80.949219 83.089844 C 78.203125 86.367188 77.292969 90.898438 80.066406 94.484375 C 82.71875 97.914062 83.046875 97.316406 82.699219 102.152344 C 82.386719 106.4375 83.296875 115.320312 86.316406 119.09375 C 90.042969 100.183594 96.039062 102.609375 103.339844 101.976562 C 107.359375 101.625 112.414062 98.558594 111.382812 94.472656 C 110.300781 90.1875 110.042969 89.117188 107.753906 85.730469 C 104.664062 81.148438 109.675781 78.652344 113.480469 77.691406 C 118.339844 76.464844 119.117188 75.132812 120.523438 69.558594 C 121.128906 67.160156 120.699219 64.722656 119.441406 62.585938 C 118.046875 60.21875 115.226562 59.148438 113.828125 56.953125 C 111.179688 52.796875 117.796875 51.3125 120.3125 49.578125 C 123.054688 47.691406 123.953125 45.261719 122.714844 42.15625 C 122.136719 40.710938 121.289062 39.464844 119.953125 38.667969 C 118.992188 38.097656 116.9375 38.058594 116.320312 37.066406 C 115.824219 36.273438 116.617188 34.414062 116.492188 33.394531 C 116.34375 32.164062 115.886719 30.898438 114.929688 30.035156 C 112.140625 27.507812 108.585938 30.925781 105.523438 31.277344 C 101.902344 31.691406 97.726562 31.167969 95.679688 34.964844 " fill-opacity="1" fill-rule="nonzero"/><path fill="#1d1e32" d="M 105.914062 47.125 C 100.015625 57.132812 95.742188 69.019531 91.917969 79.910156 C 88.359375 90.046875 86.121094 100.476562 85.757812 111.160156 C 85.742188 111.53125 85.734375 112.070312 85.734375 112.746094 C 85.734375 116.878906 86.082031 126.144531 88.210938 134.011719 C 88.265625 134.207031 88.464844 134.320312 88.660156 134.269531 C 88.855469 134.214844 88.972656 134.015625 88.917969 133.820312 C 86.820312 126.074219 86.464844 116.839844 86.464844 112.746094 C 86.464844 112.078125 86.476562 111.546875 86.488281 111.183594 C 86.851562 100.589844 89.070312 90.230469 92.609375 80.152344 C 96.429688 69.265625 100.695312 57.421875 106.546875 47.496094 C 106.648438 47.324219 106.589844 47.097656 106.417969 46.996094 C 106.242188 46.894531 106.015625 46.953125 105.914062 47.128906 L 105.914062 47.125 " fill-opacity="1" fill-rule="nonzero"/><path fill="#1d1e32" d="M 100.175781 48.03125 C 100.460938 50.945312 100.847656 53.808594 101.347656 56.023438 C 101.390625 56.21875 101.589844 56.34375 101.785156 56.300781 C 101.984375 56.253906 102.105469 56.058594 102.0625 55.863281 C 101.574219 53.699219 101.1875 50.855469 100.902344 47.957031 C 100.882812 47.757812 100.703125 47.609375 100.503906 47.628906 C 100.300781 47.648438 100.15625 47.828125 100.175781 48.03125 " fill-opacity="1" fill-rule="nonzero"/><path fill="#1d1e32" d="M 99.300781 62.480469 C 101.074219 61.496094 102.441406 60.617188 103.738281 59.824219 C 105.035156 59.027344 106.261719 58.320312 107.78125 57.660156 C 107.964844 57.578125 108.050781 57.363281 107.96875 57.179688 C 107.890625 56.996094 107.671875 56.910156 107.488281 56.992188 C 105.925781 57.667969 104.660156 58.398438 103.355469 59.199219 C 102.046875 60 100.699219 60.871094 98.945312 61.839844 C 98.769531 61.9375 98.703125 62.160156 98.800781 62.335938 C 98.898438 62.515625 99.121094 62.578125 99.300781 62.480469 " fill-opacity="1" fill-rule="nonzero"/><path fill="#1d1e32" d="M 92.835938 63.609375 C 93.421875 66.160156 94.316406 69.777344 94.820312 71.964844 C 94.863281 72.160156 95.058594 72.285156 95.257812 72.238281 C 95.453125 72.195312 95.578125 72 95.53125 71.800781 C 95.027344 69.601562 94.132812 65.984375 93.550781 63.445312 C 93.503906 63.246094 93.308594 63.125 93.109375 63.171875 C 92.914062 63.214844 92.792969 63.410156 92.835938 63.609375 " fill-opacity="1" fill-rule="nonzero"/><path fill="#1d1e32" d="M 94.316406 75.003906 C 95.265625 74.417969 96.765625 73.773438 98.375 73.082031 C 99.988281 72.386719 101.71875 71.644531 103.167969 70.824219 C 103.34375 70.722656 103.40625 70.5 103.304688 70.328125 C 103.207031 70.152344 102.984375 70.089844 102.808594 70.1875 C 101.410156 70.980469 99.699219 71.71875 98.085938 72.410156 C 96.472656 73.105469 94.960938 73.75 93.933594 74.382812 C 93.761719 74.488281 93.707031 74.714844 93.8125 74.886719 C 93.921875 75.058594 94.144531 75.109375 94.316406 75.003906 " fill-opacity="1" fill-rule="nonzero"/><path fill="#1d1e32" d="M 87.027344 78.910156 C 88.3125 81.859375 88.855469 83.046875 89.933594 85.875 C 90.007812 86.066406 90.21875 86.160156 90.40625 86.089844 C 90.59375 86.015625 90.691406 85.804688 90.621094 85.617188 C 89.535156 82.773438 88.980469 81.558594 87.699219 78.621094 C 87.617188 78.4375 87.402344 78.351562 87.21875 78.429688 C 87.03125 78.511719 86.945312 78.726562 87.027344 78.910156 " fill-opacity="1" fill-rule="nonzero"/><path fill="#1d1e32" d="M 89.019531 91.980469 C 91.203125 90.5625 92.785156 89.605469 94.125 88.765625 C 95.460938 87.929688 96.554688 87.207031 97.734375 86.265625 C 97.894531 86.140625 97.917969 85.910156 97.792969 85.75 C 97.667969 85.59375 97.4375 85.570312 97.277344 85.695312 C 96.128906 86.613281 95.066406 87.316406 93.734375 88.148438 C 92.40625 88.980469 90.8125 89.941406 88.621094 91.371094 C 88.449219 91.480469 88.402344 91.707031 88.511719 91.875 C 88.625 92.042969 88.851562 92.09375 89.019531 91.980469 " fill-opacity="1" fill-rule="nonzero"/><path fill="#1d1e32" d="M 82.949219 93.175781 C 83.402344 94.121094 84.109375 95.308594 84.828125 96.574219 C 85.550781 97.839844 86.285156 99.1875 86.789062 100.425781 C 86.867188 100.613281 87.078125 100.703125 87.265625 100.628906 C 87.453125 100.550781 87.542969 100.339844 87.46875 100.152344 C 86.941406 98.855469 86.191406 97.488281 85.464844 96.210938 C 84.738281 94.941406 84.035156 93.757812 83.613281 92.859375 C 83.523438 92.679688 83.304688 92.601562 83.125 92.6875 C 82.941406 92.773438 82.863281 92.992188 82.949219 93.175781 " fill-opacity="1" fill-rule="nonzero"/><path fill="#f57387" d="M 59.996094 21.234375 C 63.835938 20.882812 64.445312 24.097656 64.445312 24.097656 C 64.246094 24.414062 65.84375 22.285156 68.445312 23.761719 C 70.632812 25.003906 69.808594 27.035156 69.808594 27.035156 C 71.34375 26.128906 73.195312 27.292969 73.910156 29.304688 C 74.390625 30.65625 73.828125 32.6875 72.992188 33.132812 C 76.234375 32.792969 77.152344 38.863281 73.378906 39.164062 C 74.746094 39.621094 74.9375 41.675781 74.453125 42.921875 C 73.855469 44.441406 72.535156 45.261719 70.816406 45.15625 C 71.675781 46.414062 71.488281 47.957031 70.335938 48.921875 C 68.957031 50.074219 66.984375 49.96875 65.972656 48.71875 C 65.359375 52.222656 60.421875 52.011719 59.996094 49.40625 L 59.996094 21.234375 " fill-opacity="1" fill-rule="nonzero"/><path fill="#e6516a" d="M 64.128906 26.523438 C 64.339844 27.167969 64.230469 28.339844 63.828125 28.886719 C 63.230469 29.703125 62.101562 28.292969 61.523438 28.027344 C 61.46875 28.003906 61.40625 28.011719 61.375 28.066406 C 60.9375 28.828125 60.945312 29.886719 61.050781 30.730469 C 61.152344 31.558594 61.382812 32.488281 62.128906 32.988281 C 62.71875 33.382812 63.070312 32.824219 63.472656 32.453125 C 64.066406 31.902344 65.167969 31.554688 65.898438 32.070312 C 67.195312 32.988281 66.632812 35.242188 65.566406 36.105469 C 64.707031 36.796875 63.714844 36.511719 62.699219 36.625 C 62.003906 36.703125 61.179688 37.261719 61.214844 38.054688 C 61.257812 39.03125 62.332031 39.390625 63.160156 39.457031 C 64.125 39.535156 65.238281 39.113281 66.160156 39.492188 C 66.8125 39.761719 67.347656 40.289062 67.738281 40.867188 C 68.039062 41.308594 68.402344 41.878906 68.367188 42.433594 C 68.269531 43.910156 66.515625 43.160156 65.804688 42.734375 C 65.136719 42.335938 64.355469 41.804688 63.53125 41.902344 C 62.820312 41.988281 62.101562 42.417969 61.789062 43.078125 C 61.199219 44.304688 61.0625 46.113281 61.609375 47.378906 C 61.816406 47.851562 62.199219 48.324219 62.769531 48.300781 C 63.238281 48.28125 63.710938 48.109375 63.789062 47.605469 C 63.976562 46.382812 63.039062 45.210938 63.171875 43.984375 C 63.261719 43.097656 64.246094 43.273438 64.871094 43.464844 C 65.5625 43.675781 66.019531 44.050781 66.324219 44.707031 C 66.527344 45.148438 66.675781 45.636719 66.945312 46.046875 C 67.144531 46.339844 67.953125 47.613281 68.4375 47.101562 C 68.65625 46.871094 68.683594 46.429688 68.746094 46.140625 C 68.867188 45.59375 68.996094 44.984375 69.308594 44.507812 C 69.578125 44.101562 69.960938 43.988281 70.363281 43.75 C 70.785156 43.503906 71.207031 43.175781 71.511719 42.789062 C 71.96875 42.21875 72.242188 41.277344 71.304688 40.984375 C 70.695312 40.796875 70.039062 41.050781 69.421875 41.058594 C 69.050781 41.0625 68.636719 41 68.472656 40.621094 C 68.25 40.121094 68.28125 39.339844 68.53125 38.855469 C 69.019531 37.90625 70.183594 38.109375 71.078125 38.03125 C 71.882812 37.960938 72.851562 37.609375 73.199219 36.808594 C 73.496094 36.109375 72.707031 35.429688 72.332031 34.949219 C 71.941406 34.449219 71.710938 33.933594 71.777344 33.285156 C 71.832031 32.742188 71.992188 32.199219 71.984375 31.652344 C 71.972656 30.8125 71.398438 29.75 70.421875 29.777344 C 69.5 29.796875 68.933594 30.71875 68.101562 31.007812 C 67.007812 31.386719 65.558594 30.746094 64.964844 29.761719 C 64.660156 29.253906 64.535156 28.566406 65 28.105469 C 65.300781 27.804688 65.671875 27.609375 66.039062 27.410156 C 66.589844 27.113281 67.28125 26.753906 67.25 26.035156 C 67.222656 25.386719 66.585938 25.015625 66.03125 24.867188 C 64.578125 24.480469 62.28125 24.816406 61.289062 23.480469 C 61.339844 23.46875 61.382812 23.421875 61.355469 23.355469 C 61.066406 22.632812 61.039062 21.90625 61.242188 21.25 C 63.96875 21.609375 64.445312 24.097656 64.445312 24.097656 C 64.246094 24.414062 65.84375 22.289062 68.445312 23.761719 C 70.632812 25.003906 69.808594 27.035156 69.808594 27.035156 C 71.34375 26.128906 73.199219 27.292969 73.910156 29.304688 C 74.390625 30.65625 73.828125 32.6875 72.992188 33.132812 C 76.234375 32.796875 77.152344 38.863281 73.378906 39.164062 C 74.746094 39.621094 74.9375 41.675781 74.453125 42.921875 C 73.855469 44.441406 72.535156 45.261719 70.816406 45.160156 C 71.675781 46.414062 71.488281 47.957031 70.332031 48.921875 C 68.957031 50.074219 66.984375 49.96875 65.972656 48.722656 C 65.359375 52.222656 60.421875 52.011719 59.996094 49.40625 L 59.996094 24.027344 C 60.613281 24.277344 61.25 24.464844 61.867188 24.707031 C 62.738281 25.054688 63.8125 25.554688 64.128906 26.523438 " fill-opacity="1" fill-rule="nonzero"/><path fill="#db3460" d="M 59.996094 21.234375 L 60.074219 22.09375 C 60.25 22.074219 60.414062 22.070312 60.566406 22.070312 C 61.273438 22.070312 61.78125 22.21875 62.175781 22.421875 C 62.472656 22.574219 62.703125 22.765625 62.894531 22.96875 C 63.175781 23.273438 63.359375 23.613281 63.464844 23.871094 C 63.519531 24 63.554688 24.105469 63.574219 24.175781 C 63.585938 24.214844 63.589844 24.238281 63.59375 24.253906 L 63.597656 24.265625 L 63.917969 24.195312 L 63.59375 24.257812 L 63.597656 24.265625 L 63.917969 24.195312 L 63.59375 24.257812 L 64.445312 24.097656 L 63.714844 23.632812 C 63.707031 23.652344 63.695312 23.667969 63.671875 23.703125 C 63.664062 23.722656 63.652344 23.746094 63.632812 23.789062 C 63.621094 23.8125 63.609375 23.84375 63.597656 23.890625 C 63.585938 23.941406 63.566406 24.003906 63.5625 24.128906 C 63.5625 24.199219 63.570312 24.289062 63.601562 24.386719 C 63.644531 24.535156 63.757812 24.714844 63.925781 24.832031 C 64.09375 24.953125 64.285156 24.992188 64.429688 24.992188 C 64.542969 24.992188 64.617188 24.972656 64.675781 24.957031 C 64.78125 24.921875 64.828125 24.894531 64.863281 24.875 C 64.929688 24.835938 64.949219 24.816406 64.96875 24.800781 C 65.003906 24.773438 65.019531 24.761719 65.035156 24.75 C 65.085938 24.703125 65.144531 24.652344 65.234375 24.582031 C 65.367188 24.484375 65.558594 24.359375 65.789062 24.261719 C 66.023438 24.167969 66.296875 24.097656 66.617188 24.097656 C 66.996094 24.097656 67.449219 24.191406 68.019531 24.511719 C 68.519531 24.796875 68.765625 25.089844 68.910156 25.359375 C 69.050781 25.625 69.097656 25.894531 69.097656 26.132812 C 69.097656 26.3125 69.070312 26.476562 69.042969 26.585938 C 69.03125 26.636719 69.019531 26.679688 69.011719 26.703125 L 69.003906 26.722656 L 69.042969 26.734375 L 69.003906 26.722656 L 69.042969 26.734375 L 69.003906 26.722656 L 69.523438 26.921875 L 69.007812 26.714844 L 69.003906 26.722656 L 69.523438 26.921875 L 69.007812 26.714844 C 68.867188 27.054688 68.964844 27.449219 69.246094 27.691406 C 69.527344 27.929688 69.929688 27.964844 70.25 27.777344 C 70.484375 27.640625 70.699219 27.585938 70.925781 27.585938 C 71.289062 27.582031 71.707031 27.742188 72.109375 28.089844 C 72.507812 28.433594 72.871094 28.953125 73.097656 29.59375 C 73.175781 29.820312 73.222656 30.113281 73.222656 30.429688 C 73.222656 30.890625 73.125 31.390625 72.96875 31.769531 C 72.894531 31.957031 72.808594 32.117188 72.730469 32.222656 C 72.652344 32.328125 72.585938 32.375 72.582031 32.375 C 72.21875 32.570312 72.046875 32.992188 72.167969 33.386719 C 72.289062 33.777344 72.671875 34.03125 73.082031 33.988281 C 73.144531 33.984375 73.199219 33.980469 73.25 33.980469 C 73.507812 33.980469 73.714844 34.042969 73.914062 34.152344 C 74.207031 34.3125 74.476562 34.609375 74.671875 35 C 74.863281 35.390625 74.976562 35.867188 74.972656 36.324219 C 74.976562 36.863281 74.824219 37.351562 74.566406 37.683594 C 74.433594 37.851562 74.277344 37.988281 74.078125 38.097656 C 73.878906 38.203125 73.632812 38.28125 73.308594 38.304688 C 72.902344 38.339844 72.570312 38.652344 72.519531 39.058594 C 72.472656 39.464844 72.714844 39.851562 73.105469 39.980469 C 73.214844 40.019531 73.296875 40.070312 73.382812 40.148438 C 73.503906 40.265625 73.621094 40.449219 73.703125 40.699219 C 73.785156 40.945312 73.832031 41.246094 73.832031 41.550781 C 73.832031 41.9375 73.757812 42.328125 73.648438 42.609375 C 73.421875 43.183594 73.089844 43.589844 72.675781 43.867188 C 72.261719 44.144531 71.746094 44.304688 71.101562 44.304688 C 71.027344 44.304688 70.945312 44.304688 70.863281 44.296875 C 70.535156 44.28125 70.226562 44.449219 70.0625 44.734375 C 69.902344 45.019531 69.917969 45.375 70.101562 45.644531 C 70.367188 46.035156 70.484375 46.433594 70.484375 46.816406 C 70.484375 47.347656 70.265625 47.851562 69.777344 48.261719 C 69.289062 48.671875 68.710938 48.863281 68.167969 48.863281 C 67.859375 48.863281 67.566406 48.800781 67.308594 48.6875 C 67.050781 48.570312 66.824219 48.402344 66.644531 48.179688 C 66.433594 47.917969 66.085938 47.804688 65.757812 47.886719 C 65.429688 47.972656 65.179688 48.238281 65.121094 48.570312 C 65.058594 48.925781 64.945312 49.210938 64.800781 49.445312 C 64.582031 49.800781 64.28125 50.054688 63.925781 50.230469 C 63.574219 50.40625 63.160156 50.496094 62.753906 50.496094 C 62.253906 50.496094 61.773438 50.355469 61.4375 50.132812 C 61.269531 50.023438 61.136719 49.894531 61.039062 49.75 C 60.945312 49.609375 60.878906 49.457031 60.847656 49.269531 L 59.996094 49.40625 L 60.859375 49.40625 L 60.859375 21.234375 L 59.996094 21.234375 L 60.074219 22.09375 L 59.996094 21.234375 L 59.132812 21.234375 L 59.132812 49.40625 C 59.132812 49.457031 59.136719 49.492188 59.144531 49.542969 C 59.214844 49.980469 59.382812 50.382812 59.617188 50.726562 C 59.96875 51.238281 60.464844 51.613281 61.007812 51.855469 C 61.550781 52.097656 62.148438 52.21875 62.753906 52.21875 C 63.625 52.21875 64.527344 51.96875 65.285156 51.414062 C 65.664062 51.136719 66.003906 50.78125 66.269531 50.351562 C 66.535156 49.925781 66.726562 49.425781 66.824219 48.867188 L 65.972656 48.722656 L 65.300781 49.261719 C 65.65625 49.703125 66.109375 50.039062 66.601562 50.257812 C 67.09375 50.476562 67.628906 50.585938 68.167969 50.585938 C 69.117188 50.585938 70.085938 50.253906 70.886719 49.582031 L 70.890625 49.582031 C 71.742188 48.871094 72.214844 47.851562 72.210938 46.816406 C 72.214844 46.074219 71.980469 45.328125 71.527344 44.671875 L 70.816406 45.160156 L 70.769531 46.019531 C 70.878906 46.023438 70.988281 46.027344 71.101562 46.027344 C 72.039062 46.03125 72.914062 45.785156 73.640625 45.296875 C 74.363281 44.8125 74.917969 44.097656 75.253906 43.234375 L 75.257812 43.234375 C 75.457031 42.714844 75.558594 42.140625 75.558594 41.550781 C 75.554688 40.929688 75.445312 40.292969 75.160156 39.707031 C 75.011719 39.414062 74.820312 39.136719 74.570312 38.898438 C 74.320312 38.660156 74.007812 38.464844 73.652344 38.347656 L 73.378906 39.164062 L 73.445312 40.023438 C 73.980469 39.980469 74.46875 39.839844 74.890625 39.617188 C 75.527344 39.28125 75.996094 38.757812 76.28125 38.179688 C 76.574219 37.59375 76.699219 36.957031 76.699219 36.324219 C 76.695312 35.363281 76.414062 34.402344 75.847656 33.625 C 75.558594 33.234375 75.199219 32.894531 74.757812 32.648438 C 74.316406 32.402344 73.800781 32.257812 73.25 32.257812 C 73.132812 32.257812 73.019531 32.261719 72.902344 32.277344 L 72.992188 33.132812 L 73.402344 33.890625 C 73.710938 33.722656 73.933594 33.492188 74.121094 33.242188 C 74.398438 32.863281 74.59375 32.421875 74.734375 31.941406 C 74.871094 31.464844 74.949219 30.949219 74.949219 30.429688 C 74.949219 29.957031 74.886719 29.476562 74.722656 29.019531 C 74.402344 28.117188 73.890625 27.347656 73.238281 26.785156 C 72.589844 26.226562 71.789062 25.863281 70.925781 25.863281 C 70.398438 25.859375 69.855469 26.003906 69.367188 26.296875 L 69.808594 27.035156 L 70.609375 27.359375 C 70.632812 27.292969 70.824219 26.828125 70.824219 26.132812 C 70.824219 25.675781 70.734375 25.113281 70.433594 24.546875 C 70.132812 23.980469 69.621094 23.4375 68.871094 23.015625 C 68.074219 22.558594 67.300781 22.375 66.617188 22.375 C 65.746094 22.375 65.054688 22.664062 64.585938 22.945312 C 64.351562 23.085938 64.171875 23.222656 64.042969 23.328125 C 63.984375 23.378906 63.933594 23.421875 63.910156 23.445312 L 63.894531 23.453125 L 63.894531 23.457031 L 64.277344 23.910156 L 63.929688 23.425781 L 63.894531 23.457031 L 64.277344 23.910156 L 63.929688 23.425781 L 64.40625 24.089844 L 64.019531 23.371094 C 63.96875 23.402344 63.945312 23.417969 63.929688 23.425781 L 64.40625 24.089844 L 64.019531 23.371094 L 64.425781 24.117188 L 64.136719 23.320312 C 64.078125 23.339844 64.042969 23.359375 64.019531 23.371094 L 64.425781 24.117188 L 64.136719 23.320312 L 64.429688 24.125 L 64.429688 23.269531 C 64.277344 23.269531 64.195312 23.300781 64.136719 23.320312 L 64.429688 24.125 L 64.429688 23.269531 L 64.429688 24.128906 L 64.753906 23.332031 C 64.636719 23.285156 64.523438 23.269531 64.429688 23.269531 L 64.429688 24.128906 L 64.753906 23.332031 L 64.429688 24.128906 L 65.183594 23.71875 C 65.101562 23.558594 64.933594 23.402344 64.753906 23.332031 L 64.429688 24.128906 L 65.183594 23.71875 L 64.429688 24.128906 L 65.289062 24.128906 C 65.289062 24.023438 65.273438 23.878906 65.183594 23.71875 L 64.429688 24.128906 L 65.289062 24.128906 L 64.433594 24.128906 L 65.257812 24.363281 C 65.269531 24.316406 65.289062 24.253906 65.289062 24.128906 L 64.433594 24.128906 L 65.257812 24.363281 L 64.453125 24.132812 L 65.207031 24.5 C 65.21875 24.472656 65.234375 24.441406 65.257812 24.363281 L 64.453125 24.132812 L 65.207031 24.5 L 64.648438 24.230469 L 65.171875 24.5625 C 65.171875 24.5625 65.171875 24.5625 65.207031 24.5 L 64.648438 24.230469 L 65.171875 24.5625 C 65.289062 24.378906 65.332031 24.15625 65.292969 23.9375 C 65.273438 23.859375 65.117188 23.023438 64.4375 22.128906 C 64.101562 21.6875 63.621094 21.234375 62.976562 20.894531 C 62.332031 20.558594 61.523438 20.34375 60.566406 20.347656 C 60.355469 20.347656 60.140625 20.355469 59.917969 20.378906 C 59.472656 20.417969 59.132812 20.789062 59.132812 21.234375 L 59.996094 21.234375 " fill-opacity="1" fill-rule="nonzero"/><path fill="#db3460" d="M 66.632812 49.59375 C 66.902344 48.960938 67.050781 48.324219 67.050781 47.695312 C 67.050781 47.054688 66.894531 46.433594 66.605469 45.871094 C 66.3125 45.304688 65.894531 44.800781 65.378906 44.347656 C 65.019531 44.03125 64.476562 44.066406 64.160156 44.421875 C 63.84375 44.78125 63.878906 45.324219 64.238281 45.636719 C 64.625 45.976562 64.894531 46.320312 65.066406 46.65625 C 65.238281 46.996094 65.320312 47.328125 65.320312 47.695312 C 65.320312 48.058594 65.242188 48.460938 65.042969 48.917969 C 64.855469 49.355469 65.058594 49.859375 65.496094 50.046875 C 65.9375 50.234375 66.441406 50.03125 66.632812 49.59375 " fill-opacity="1" fill-rule="nonzero"/><path fill="#db3460" d="M 73.824219 38.449219 C 73.585938 38.429688 73.359375 38.347656 73.039062 38.230469 C 72.878906 38.175781 72.699219 38.109375 72.492188 38.054688 C 72.28125 38 72.042969 37.960938 71.78125 37.960938 C 71.523438 37.960938 71.246094 38 70.964844 38.089844 L 71.21875 38.910156 L 71.078125 38.0625 C 70.484375 38.160156 69.890625 38.378906 69.390625 38.789062 C 69.144531 38.996094 68.921875 39.253906 68.757812 39.554688 C 68.589844 39.859375 68.488281 40.210938 68.457031 40.582031 C 68.421875 41.058594 68.777344 41.472656 69.253906 41.507812 C 69.730469 41.542969 70.144531 41.1875 70.179688 40.714844 C 70.191406 40.574219 70.226562 40.46875 70.277344 40.375 C 70.351562 40.238281 70.472656 40.113281 70.660156 40 C 70.847656 39.890625 71.09375 39.804688 71.359375 39.761719 C 71.394531 39.753906 71.441406 39.742188 71.476562 39.734375 C 71.597656 39.695312 71.691406 39.683594 71.78125 39.683594 C 71.867188 39.683594 71.957031 39.699219 72.0625 39.722656 C 72.226562 39.765625 72.429688 39.84375 72.691406 39.9375 C 72.957031 40.03125 73.285156 40.132812 73.679688 40.164062 C 74.15625 40.203125 74.574219 39.851562 74.613281 39.378906 C 74.652344 38.90625 74.300781 38.488281 73.824219 38.449219 " fill-opacity="1" fill-rule="nonzero"/><path fill="#db3460" d="M 69.011719 25.488281 C 69.011719 26.019531 68.988281 26.503906 68.886719 26.910156 C 68.785156 27.320312 68.625 27.640625 68.3125 27.957031 L 68.925781 28.566406 L 68.363281 27.910156 C 68.261719 28 68.015625 28.160156 67.757812 28.269531 C 67.496094 28.386719 67.214844 28.457031 67.035156 28.453125 C 66.949219 28.453125 66.894531 28.441406 66.859375 28.429688 L 66.796875 28.382812 C 66.476562 28.03125 65.929688 28.003906 65.574219 28.320312 C 65.222656 28.640625 65.191406 29.183594 65.511719 29.539062 C 65.722656 29.769531 65.984375 29.9375 66.25 30.039062 C 66.515625 30.140625 66.785156 30.175781 67.035156 30.175781 C 67.5625 30.171875 68.035156 30.027344 68.449219 29.847656 C 68.863281 29.667969 69.210938 29.449219 69.484375 29.21875 L 69.535156 29.175781 C 70.09375 28.621094 70.410156 27.957031 70.5625 27.320312 C 70.71875 26.679688 70.734375 26.058594 70.738281 25.488281 C 70.738281 25.011719 70.351562 24.625 69.875 24.625 C 69.398438 24.625 69.011719 25.011719 69.011719 25.488281 " fill-opacity="1" fill-rule="nonzero"/><path fill="#db3460" d="M 60.8125 26.5 L 60.566406 26.304688 L 60.71875 26.582031 C 60.730469 26.574219 60.765625 26.554688 60.8125 26.5 L 60.566406 26.304688 L 60.71875 26.582031 L 60.691406 26.53125 L 60.71875 26.582031 L 60.691406 26.53125 L 60.71875 26.582031 C 60.71875 26.582031 60.761719 26.5625 60.835938 26.554688 C 60.90625 26.542969 61 26.535156 61.101562 26.535156 C 61.222656 26.535156 61.351562 26.546875 61.453125 26.5625 C 61.507812 26.570312 61.550781 26.578125 61.585938 26.585938 L 61.625 26.597656 L 61.632812 26.601562 L 61.636719 26.601562 L 61.6875 26.621094 C 61.738281 26.636719 61.851562 26.695312 61.976562 26.789062 C 62.160156 26.933594 62.363281 27.15625 62.496094 27.371094 C 62.632812 27.589844 62.683594 27.796875 62.679688 27.855469 C 62.679688 28.332031 63.066406 28.71875 63.542969 28.71875 C 64.019531 28.71875 64.40625 28.332031 64.40625 27.855469 C 64.40625 27.5 64.3125 27.179688 64.1875 26.886719 C 63.992188 26.453125 63.710938 26.066406 63.382812 25.738281 C 63.050781 25.414062 62.6875 25.140625 62.230469 24.984375 L 61.957031 25.800781 L 62.28125 25.003906 C 62.09375 24.929688 61.917969 24.890625 61.722656 24.859375 C 61.527344 24.828125 61.316406 24.8125 61.101562 24.8125 C 60.847656 24.8125 60.585938 24.832031 60.3125 24.90625 C 60.175781 24.941406 60.035156 24.992188 59.890625 25.070312 C 59.746094 25.148438 59.59375 25.257812 59.464844 25.421875 C 59.167969 25.792969 59.226562 26.335938 59.597656 26.632812 C 59.972656 26.929688 60.515625 26.871094 60.8125 26.5 " fill-opacity="1" fill-rule="nonzero"/><path fill="#db3460" d="M 64.683594 32.859375 C 64.570312 33.328125 64.234375 33.789062 63.777344 34.128906 C 63.324219 34.46875 62.757812 34.664062 62.28125 34.660156 C 62.007812 34.660156 61.761719 34.601562 61.546875 34.484375 C 61.332031 34.367188 61.136719 34.191406 60.960938 33.894531 C 60.722656 33.484375 60.191406 33.347656 59.78125 33.589844 C 59.371094 33.828125 59.230469 34.355469 59.472656 34.765625 C 59.789062 35.308594 60.226562 35.730469 60.71875 35.996094 C 61.214844 36.265625 61.753906 36.382812 62.28125 36.382812 C 63.199219 36.378906 64.078125 36.046875 64.804688 35.511719 C 65.53125 34.972656 66.121094 34.210938 66.359375 33.277344 C 66.472656 32.816406 66.191406 32.347656 65.730469 32.230469 C 65.265625 32.117188 64.796875 32.398438 64.683594 32.859375 " fill-opacity="1" fill-rule="nonzero"/><path fill="#db3460" d="M 69.605469 32.992188 C 69.691406 33.070312 69.753906 33.160156 69.800781 33.289062 C 69.847656 33.414062 69.875 33.574219 69.875 33.753906 C 69.878906 34.011719 69.8125 34.3125 69.703125 34.578125 C 69.59375 34.839844 69.433594 35.066406 69.292969 35.195312 L 69.875 35.832031 L 69.347656 35.148438 C 69.117188 35.324219 68.902344 35.445312 68.707031 35.519531 C 68.507812 35.59375 68.328125 35.628906 68.144531 35.628906 C 67.851562 35.628906 67.527344 35.542969 67.136719 35.320312 C 66.722656 35.085938 66.191406 35.230469 65.957031 35.640625 C 65.722656 36.054688 65.867188 36.582031 66.28125 36.816406 C 66.871094 37.152344 67.5 37.351562 68.144531 37.351562 C 68.546875 37.351562 68.945312 37.273438 69.324219 37.128906 C 69.703125 36.984375 70.058594 36.777344 70.398438 36.515625 L 70.453125 36.46875 C 70.828125 36.125 71.101562 35.703125 71.296875 35.238281 C 71.492188 34.777344 71.601562 34.269531 71.601562 33.753906 C 71.601562 33.398438 71.550781 33.035156 71.417969 32.6875 C 71.289062 32.335938 71.074219 31.996094 70.773438 31.722656 C 70.421875 31.402344 69.875 31.425781 69.554688 31.777344 C 69.230469 32.125 69.253906 32.671875 69.609375 32.992188 L 69.605469 32.992188 " fill-opacity="1" fill-rule="nonzero"/><path fill="#db3460" d="M 68.308594 41.6875 C 68.101562 41.367188 67.835938 41.109375 67.542969 40.902344 C 67.105469 40.59375 66.605469 40.394531 66.09375 40.265625 C 65.578125 40.132812 65.046875 40.074219 64.523438 40.074219 C 64.089844 40.074219 63.664062 40.117188 63.261719 40.203125 C 62.859375 40.289062 62.484375 40.417969 62.144531 40.621094 C 61.394531 41.078125 60.679688 41.765625 60.109375 42.574219 C 59.824219 42.980469 59.578125 43.414062 59.398438 43.875 C 59.222656 44.332031 59.105469 44.816406 59.105469 45.316406 C 59.105469 45.421875 59.109375 45.527344 59.121094 45.640625 C 59.175781 46.113281 59.601562 46.453125 60.074219 46.402344 C 60.546875 46.347656 60.890625 45.921875 60.839844 45.449219 C 60.832031 45.410156 60.832031 45.367188 60.832031 45.316406 C 60.832031 45.089844 60.886719 44.804688 61.007812 44.5 C 61.183594 44.042969 61.5 43.546875 61.871094 43.113281 C 62.242188 42.683594 62.671875 42.316406 63.039062 42.097656 C 63.152344 42.027344 63.363281 41.941406 63.625 41.886719 C 63.890625 41.828125 64.203125 41.796875 64.523438 41.796875 C 65.039062 41.796875 65.582031 41.882812 66.007812 42.039062 C 66.222656 42.113281 66.40625 42.210938 66.546875 42.308594 C 66.691406 42.410156 66.785156 42.511719 66.851562 42.609375 C 67.105469 43.011719 67.640625 43.132812 68.042969 42.875 C 68.445312 42.621094 68.5625 42.089844 68.308594 41.6875 " fill-opacity="1" fill-rule="nonzero"/><path fill="#f57387" d="M 57.945312 21.234375 C 54.109375 20.882812 53.5 24.097656 53.5 24.097656 C 53.699219 24.414062 52.097656 22.285156 49.496094 23.761719 C 47.308594 25.003906 48.132812 27.035156 48.132812 27.035156 C 46.597656 26.128906 44.746094 27.292969 44.03125 29.304688 C 43.550781 30.65625 44.113281 32.6875 44.949219 33.132812 C 41.710938 32.792969 40.789062 38.863281 44.5625 39.164062 C 43.195312 39.621094 43.003906 41.675781 43.488281 42.921875 C 44.085938 44.441406 45.40625 45.261719 47.125 45.15625 C 46.265625 46.414062 46.457031 47.957031 47.609375 48.921875 C 48.984375 50.074219 50.957031 49.96875 51.96875 48.71875 C 52.582031 52.222656 57.523438 52.011719 57.945312 49.40625 L 57.945312 21.234375 " fill-opacity="1" fill-rule="nonzero"/><path fill="#e6516a" d="M 53.8125 26.523438 C 53.601562 27.167969 53.710938 28.339844 54.113281 28.886719 C 54.710938 29.703125 55.839844 28.292969 56.417969 28.027344 C 56.472656 28.003906 56.535156 28.011719 56.566406 28.066406 C 57.003906 28.828125 56.996094 29.886719 56.890625 30.730469 C 56.789062 31.558594 56.558594 32.488281 55.8125 32.988281 C 55.222656 33.382812 54.875 32.824219 54.46875 32.453125 C 53.875 31.902344 52.773438 31.554688 52.042969 32.070312 C 50.746094 32.988281 51.308594 35.242188 52.375 36.105469 C 53.238281 36.796875 54.226562 36.511719 55.242188 36.625 C 55.9375 36.703125 56.761719 37.261719 56.726562 38.054688 C 56.683594 39.03125 55.609375 39.390625 54.78125 39.457031 C 53.816406 39.535156 52.703125 39.113281 51.78125 39.492188 C 51.128906 39.761719 50.59375 40.289062 50.203125 40.867188 C 49.90625 41.308594 49.539062 41.878906 49.574219 42.433594 C 49.671875 43.910156 51.425781 43.160156 52.136719 42.734375 C 52.804688 42.335938 53.585938 41.804688 54.410156 41.902344 C 55.121094 41.988281 55.839844 42.417969 56.152344 43.078125 C 56.738281 44.304688 56.878906 46.113281 56.332031 47.378906 C 56.125 47.851562 55.742188 48.324219 55.171875 48.300781 C 54.703125 48.28125 54.230469 48.109375 54.152344 47.605469 C 53.964844 46.382812 54.902344 45.210938 54.773438 43.984375 C 54.679688 43.097656 53.699219 43.273438 53.070312 43.464844 C 52.382812 43.675781 51.921875 44.050781 51.621094 44.707031 C 51.414062 45.148438 51.265625 45.636719 50.996094 46.046875 C 50.796875 46.339844 49.988281 47.613281 49.503906 47.101562 C 49.285156 46.871094 49.257812 46.429688 49.195312 46.140625 C 49.074219 45.59375 48.945312 44.984375 48.632812 44.507812 C 48.363281 44.101562 47.980469 43.988281 47.582031 43.75 C 47.15625 43.503906 46.738281 43.175781 46.429688 42.789062 C 45.972656 42.21875 45.699219 41.277344 46.636719 40.984375 C 47.246094 40.796875 47.902344 41.050781 48.519531 41.058594 C 48.890625 41.0625 49.304688 41 49.46875 40.621094 C 49.691406 40.121094 49.660156 39.339844 49.410156 38.855469 C 48.921875 37.90625 47.757812 38.109375 46.863281 38.03125 C 46.058594 37.960938 45.089844 37.609375 44.746094 36.808594 C 44.445312 36.109375 45.234375 35.429688 45.609375 34.949219 C 46 34.449219 46.230469 33.933594 46.164062 33.285156 C 46.109375 32.742188 45.949219 32.199219 45.957031 31.652344 C 45.96875 30.8125 46.542969 29.75 47.519531 29.777344 C 48.441406 29.796875 49.011719 30.71875 49.839844 31.007812 C 50.933594 31.386719 52.386719 30.746094 52.976562 29.761719 C 53.28125 29.253906 53.40625 28.566406 52.941406 28.105469 C 52.640625 27.804688 52.269531 27.609375 51.902344 27.410156 C 51.351562 27.113281 50.660156 26.753906 50.691406 26.035156 C 50.71875 25.386719 51.355469 25.015625 51.910156 24.867188 C 53.363281 24.480469 55.664062 24.816406 56.652344 23.480469 C 56.601562 23.46875 56.558594 23.421875 56.585938 23.355469 C 56.875 22.632812 56.902344 21.90625 56.699219 21.25 C 53.972656 21.609375 53.496094 24.097656 53.496094 24.097656 C 53.699219 24.414062 52.097656 22.289062 49.496094 23.761719 C 47.308594 25.003906 48.132812 27.035156 48.132812 27.035156 C 46.597656 26.128906 44.746094 27.292969 44.03125 29.304688 C 43.550781 30.65625 44.113281 32.6875 44.949219 33.132812 C 41.710938 32.796875 40.789062 38.863281 44.5625 39.164062 C 43.195312 39.621094 43.003906 41.675781 43.488281 42.921875 C 44.085938 44.441406 45.40625 45.261719 47.125 45.160156 C 46.265625 46.414062 46.453125 47.957031 47.609375 48.921875 C 48.984375 50.074219 50.957031 49.96875 51.96875 48.722656 C 52.582031 52.222656 57.523438 52.011719 57.945312 49.40625 L 57.945312 24.027344 C 57.332031 24.277344 56.691406 24.464844 56.074219 24.707031 C 55.203125 25.054688 54.128906 25.554688 53.8125 26.523438 " fill-opacity="1" fill-rule="nonzero"/><path fill="#db3460" d="M 57.945312 21.234375 L 58.023438 20.378906 C 57.800781 20.355469 57.582031 20.347656 57.375 20.347656 C 56.417969 20.34375 55.609375 20.558594 54.964844 20.894531 C 54.480469 21.148438 54.089844 21.46875 53.78125 21.796875 C 53.320312 22.292969 53.046875 22.8125 52.878906 23.210938 C 52.714844 23.609375 52.65625 23.894531 52.648438 23.9375 C 52.609375 24.152344 52.652344 24.375 52.769531 24.558594 L 53.230469 24.265625 L 52.746094 24.519531 L 52.769531 24.558594 L 53.230469 24.265625 L 52.746094 24.519531 L 53.453125 24.148438 L 52.710938 24.445312 C 52.726562 24.488281 52.738281 24.503906 52.746094 24.519531 L 53.453125 24.148438 L 52.710938 24.445312 L 53.496094 24.132812 L 52.679688 24.351562 C 52.691406 24.394531 52.703125 24.421875 52.710938 24.445312 L 53.496094 24.132812 L 52.679688 24.351562 L 53.507812 24.128906 L 52.652344 24.128906 C 52.652344 24.246094 52.667969 24.304688 52.679688 24.351562 L 53.507812 24.128906 L 52.652344 24.128906 L 53.511719 24.128906 L 52.769531 23.695312 C 52.691406 23.824219 52.648438 23.984375 52.652344 24.128906 L 53.511719 24.128906 L 52.769531 23.695312 L 53.511719 24.128906 L 53.167969 23.339844 C 53.042969 23.394531 52.882812 23.5 52.769531 23.695312 L 53.511719 24.128906 L 53.167969 23.339844 L 53.511719 24.128906 L 53.511719 23.269531 C 53.40625 23.269531 53.296875 23.285156 53.167969 23.339844 L 53.511719 24.128906 L 53.511719 23.269531 L 53.511719 24.125 L 53.761719 23.304688 C 53.703125 23.289062 53.628906 23.269531 53.511719 23.269531 L 53.511719 24.125 L 53.761719 23.304688 L 53.515625 24.117188 L 53.941406 23.382812 C 53.910156 23.367188 53.867188 23.339844 53.761719 23.304688 L 53.515625 24.117188 L 53.941406 23.382812 L 53.546875 24.0625 L 54.03125 23.445312 C 54.019531 23.433594 54.003906 23.421875 53.941406 23.382812 L 53.546875 24.0625 L 54.03125 23.445312 L 53.746094 23.808594 L 54.046875 23.457031 L 54.03125 23.445312 L 53.746094 23.808594 L 54.046875 23.457031 C 54.046875 23.453125 54.011719 23.421875 53.964844 23.386719 C 53.804688 23.25 53.492188 22.996094 53.050781 22.777344 C 52.605469 22.5625 52.019531 22.375 51.324219 22.375 C 50.640625 22.375 49.867188 22.558594 49.070312 23.015625 C 48.320312 23.4375 47.808594 23.980469 47.507812 24.546875 C 47.207031 25.113281 47.117188 25.675781 47.117188 26.132812 C 47.121094 26.828125 47.308594 27.292969 47.332031 27.359375 L 48.132812 27.035156 L 48.574219 26.292969 C 48.085938 26.003906 47.542969 25.859375 47.015625 25.863281 C 46.152344 25.863281 45.351562 26.226562 44.703125 26.785156 C 44.050781 27.347656 43.535156 28.117188 43.21875 29.019531 L 43.21875 29.015625 C 43.054688 29.476562 42.992188 29.957031 42.992188 30.429688 C 42.992188 31.125 43.128906 31.808594 43.367188 32.40625 C 43.488281 32.707031 43.632812 32.988281 43.820312 33.242188 C 44.007812 33.492188 44.230469 33.726562 44.539062 33.890625 L 44.949219 33.132812 L 45.039062 32.277344 C 44.921875 32.261719 44.808594 32.257812 44.691406 32.257812 C 44.140625 32.257812 43.621094 32.398438 43.183594 32.648438 C 42.523438 33.019531 42.039062 33.597656 41.722656 34.238281 C 41.402344 34.882812 41.242188 35.601562 41.238281 36.324219 C 41.242188 37.164062 41.464844 38.027344 42.003906 38.734375 C 42.277344 39.085938 42.628906 39.394531 43.050781 39.617188 C 43.472656 39.839844 43.960938 39.980469 44.496094 40.023438 L 44.5625 39.164062 L 44.289062 38.347656 C 43.933594 38.464844 43.621094 38.660156 43.371094 38.898438 C 42.992188 39.257812 42.75 39.699219 42.597656 40.15625 C 42.449219 40.609375 42.382812 41.085938 42.382812 41.550781 C 42.382812 42.140625 42.484375 42.714844 42.683594 43.234375 C 43.019531 44.097656 43.578125 44.8125 44.300781 45.296875 C 45.023438 45.785156 45.902344 46.03125 46.839844 46.027344 C 46.949219 46.027344 47.0625 46.023438 47.171875 46.019531 L 47.125 45.160156 L 46.414062 44.671875 C 45.960938 45.328125 45.726562 46.074219 45.726562 46.816406 C 45.722656 47.851562 46.195312 48.871094 47.054688 49.582031 C 47.855469 50.253906 48.824219 50.585938 49.773438 50.585938 C 50.3125 50.585938 50.847656 50.476562 51.339844 50.257812 C 51.832031 50.039062 52.28125 49.703125 52.640625 49.261719 L 51.96875 48.722656 L 51.117188 48.867188 C 51.214844 49.425781 51.40625 49.925781 51.671875 50.351562 C 52.070312 50.996094 52.632812 51.472656 53.246094 51.773438 C 53.863281 52.078125 54.53125 52.21875 55.1875 52.21875 C 55.992188 52.214844 56.789062 52.007812 57.457031 51.566406 C 57.789062 51.347656 58.089844 51.066406 58.324219 50.726562 C 58.558594 50.382812 58.726562 49.980469 58.796875 49.542969 C 58.804688 49.492188 58.808594 49.457031 58.808594 49.40625 L 58.808594 21.234375 C 58.808594 20.789062 58.46875 20.417969 58.023438 20.378906 L 57.945312 21.234375 L 57.082031 21.234375 L 57.082031 49.40625 L 57.945312 49.40625 L 57.09375 49.265625 C 57.0625 49.457031 56.996094 49.609375 56.898438 49.75 C 56.753906 49.960938 56.527344 50.148438 56.226562 50.285156 C 55.925781 50.417969 55.5625 50.496094 55.1875 50.496094 C 54.644531 50.496094 54.09375 50.335938 53.679688 50.027344 C 53.46875 49.875 53.285156 49.683594 53.140625 49.445312 C 52.996094 49.210938 52.878906 48.925781 52.820312 48.574219 C 52.761719 48.238281 52.511719 47.972656 52.183594 47.886719 C 51.859375 47.800781 51.511719 47.914062 51.296875 48.179688 C 51.117188 48.402344 50.890625 48.570312 50.632812 48.6875 C 50.375 48.800781 50.082031 48.863281 49.773438 48.863281 C 49.230469 48.863281 48.652344 48.671875 48.164062 48.261719 C 47.675781 47.851562 47.457031 47.347656 47.453125 46.816406 C 47.453125 46.433594 47.570312 46.035156 47.839844 45.644531 C 48.023438 45.375 48.039062 45.019531 47.878906 44.738281 C 47.714844 44.449219 47.40625 44.28125 47.078125 44.296875 C 46.996094 44.304688 46.914062 44.304688 46.839844 44.304688 C 46.195312 44.304688 45.679688 44.144531 45.265625 43.867188 C 44.851562 43.589844 44.519531 43.183594 44.292969 42.609375 C 44.183594 42.328125 44.109375 41.9375 44.109375 41.550781 C 44.109375 41.144531 44.191406 40.746094 44.332031 40.472656 C 44.398438 40.332031 44.476562 40.226562 44.558594 40.148438 C 44.644531 40.070312 44.726562 40.019531 44.839844 39.980469 C 45.226562 39.851562 45.46875 39.464844 45.421875 39.058594 C 45.371094 38.652344 45.039062 38.339844 44.632812 38.304688 C 44.308594 38.28125 44.0625 38.203125 43.859375 38.097656 C 43.5625 37.9375 43.355469 37.710938 43.203125 37.40625 C 43.050781 37.105469 42.964844 36.726562 42.964844 36.324219 C 42.964844 35.714844 43.164062 35.074219 43.488281 34.640625 C 43.648438 34.425781 43.832031 34.257812 44.027344 34.152344 C 44.226562 34.042969 44.433594 33.980469 44.691406 33.980469 C 44.742188 33.980469 44.796875 33.984375 44.859375 33.988281 C 45.269531 34.03125 45.652344 33.777344 45.773438 33.386719 C 45.894531 32.992188 45.71875 32.566406 45.355469 32.375 C 45.355469 32.375 45.289062 32.328125 45.210938 32.222656 C 45.09375 32.066406 44.957031 31.789062 44.867188 31.464844 C 44.773438 31.144531 44.71875 30.773438 44.71875 30.429688 C 44.71875 30.113281 44.761719 29.820312 44.84375 29.59375 C 45.070312 28.953125 45.433594 28.433594 45.832031 28.089844 C 46.234375 27.742188 46.652344 27.582031 47.015625 27.585938 C 47.242188 27.585938 47.457031 27.640625 47.691406 27.777344 C 48.011719 27.964844 48.414062 27.929688 48.695312 27.6875 C 48.976562 27.449219 49.070312 27.054688 48.933594 26.714844 L 48.421875 26.917969 L 48.9375 26.722656 L 48.933594 26.714844 L 48.421875 26.917969 L 48.9375 26.722656 L 48.90625 26.734375 L 48.9375 26.722656 L 48.90625 26.734375 L 48.9375 26.722656 C 48.929688 26.707031 48.84375 26.449219 48.84375 26.132812 C 48.84375 25.894531 48.890625 25.625 49.03125 25.359375 C 49.175781 25.089844 49.421875 24.796875 49.921875 24.511719 C 50.492188 24.191406 50.945312 24.097656 51.324219 24.097656 C 51.800781 24.097656 52.183594 24.253906 52.46875 24.421875 C 52.605469 24.503906 52.71875 24.589844 52.796875 24.65625 C 52.835938 24.6875 52.867188 24.714844 52.894531 24.742188 L 52.953125 24.789062 C 52.972656 24.804688 52.988281 24.816406 53.03125 24.847656 C 53.054688 24.863281 53.085938 24.882812 53.140625 24.90625 C 53.171875 24.921875 53.207031 24.9375 53.265625 24.953125 C 53.320312 24.972656 53.394531 24.992188 53.511719 24.992188 C 53.65625 24.988281 53.804688 24.964844 53.992188 24.847656 C 54.085938 24.785156 54.183594 24.691406 54.261719 24.5625 C 54.335938 24.433594 54.378906 24.273438 54.378906 24.128906 C 54.375 24.011719 54.359375 23.949219 54.347656 23.90625 C 54.324219 23.828125 54.308594 23.792969 54.296875 23.765625 C 54.261719 23.6875 54.246094 23.667969 54.226562 23.636719 L 53.496094 24.097656 L 54.347656 24.257812 L 53.957031 24.183594 L 54.34375 24.265625 L 54.347656 24.257812 L 53.957031 24.183594 L 54.34375 24.265625 C 54.34375 24.257812 54.480469 23.65625 54.914062 23.125 C 55.132812 22.855469 55.414062 22.597656 55.800781 22.402344 C 56.1875 22.210938 56.6875 22.070312 57.375 22.070312 C 57.527344 22.070312 57.691406 22.074219 57.867188 22.09375 L 57.945312 21.234375 L 57.082031 21.234375 L 57.945312 21.234375 " fill-opacity="1" fill-rule="nonzero"/><path fill="#db3460" d="M 52.898438 48.917969 C 52.703125 48.457031 52.617188 48.054688 52.617188 47.695312 C 52.621094 47.328125 52.703125 46.996094 52.875 46.65625 C 53.046875 46.320312 53.316406 45.980469 53.703125 45.636719 C 54.0625 45.324219 54.097656 44.78125 53.78125 44.421875 C 53.464844 44.066406 52.921875 44.03125 52.5625 44.347656 C 52.046875 44.800781 51.628906 45.304688 51.335938 45.871094 C 51.046875 46.433594 50.890625 47.054688 50.890625 47.695312 C 50.890625 48.324219 51.039062 48.960938 51.3125 49.59375 C 51.5 50.03125 52.007812 50.234375 52.445312 50.046875 C 52.882812 49.859375 53.085938 49.355469 52.898438 48.917969 " fill-opacity="1" fill-rule="nonzero"/><path fill="#db3460" d="M 44.261719 40.164062 C 44.785156 40.121094 45.195312 39.957031 45.492188 39.851562 C 45.644531 39.792969 45.769531 39.75 45.878906 39.722656 C 45.984375 39.699219 46.070312 39.683594 46.160156 39.683594 C 46.25 39.683594 46.339844 39.695312 46.46875 39.734375 C 46.5 39.746094 46.546875 39.753906 46.582031 39.761719 C 46.9375 39.820312 47.253906 39.953125 47.449219 40.117188 C 47.546875 40.199219 47.617188 40.28125 47.664062 40.375 C 47.714844 40.46875 47.75 40.574219 47.761719 40.714844 C 47.796875 41.1875 48.210938 41.542969 48.6875 41.507812 C 49.164062 41.472656 49.519531 41.058594 49.484375 40.582031 C 49.453125 40.210938 49.351562 39.859375 49.183594 39.554688 C 48.9375 39.097656 48.5625 38.753906 48.160156 38.515625 C 47.75 38.277344 47.308594 38.136719 46.863281 38.0625 L 46.722656 38.910156 L 46.976562 38.089844 C 46.695312 38 46.417969 37.960938 46.160156 37.960938 C 45.898438 37.960938 45.660156 38 45.449219 38.054688 C 45.136719 38.136719 44.886719 38.238281 44.679688 38.3125 C 44.464844 38.386719 44.296875 38.433594 44.117188 38.449219 C 43.640625 38.488281 43.289062 38.90625 43.328125 39.378906 C 43.367188 39.851562 43.785156 40.203125 44.261719 40.164062 " fill-opacity="1" fill-rule="nonzero"/><path fill="#db3460" d="M 47.203125 25.488281 C 47.207031 26.058594 47.222656 26.679688 47.378906 27.320312 C 47.53125 27.957031 47.847656 28.621094 48.40625 29.175781 L 48.457031 29.21875 C 48.730469 29.449219 49.078125 29.667969 49.492188 29.847656 C 49.90625 30.027344 50.378906 30.171875 50.90625 30.175781 C 51.15625 30.175781 51.425781 30.140625 51.691406 30.039062 C 51.957031 29.9375 52.21875 29.769531 52.429688 29.539062 C 52.746094 29.1875 52.71875 28.640625 52.367188 28.320312 C 52.011719 28.003906 51.46875 28.03125 51.148438 28.382812 L 51.082031 28.429688 C 51.046875 28.441406 50.992188 28.453125 50.90625 28.453125 C 50.726562 28.457031 50.445312 28.386719 50.183594 28.269531 C 49.925781 28.160156 49.679688 28 49.578125 27.910156 L 49.015625 28.566406 L 49.628906 27.957031 C 49.316406 27.640625 49.15625 27.320312 49.054688 26.910156 C 48.953125 26.503906 48.929688 26.019531 48.929688 25.488281 C 48.929688 25.011719 48.542969 24.625 48.066406 24.625 C 47.589844 24.625 47.203125 25.011719 47.203125 25.488281 " fill-opacity="1" fill-rule="nonzero"/><path fill="#db3460" d="M 58.476562 25.421875 C 58.347656 25.257812 58.195312 25.148438 58.050781 25.070312 C 57.832031 24.953125 57.625 24.898438 57.425781 24.859375 C 57.226562 24.824219 57.03125 24.8125 56.839844 24.8125 C 56.625 24.8125 56.414062 24.828125 56.21875 24.859375 C 56.023438 24.890625 55.847656 24.929688 55.660156 25.003906 L 55.984375 25.800781 L 55.710938 24.984375 C 55.40625 25.085938 55.144531 25.246094 54.902344 25.433594 C 54.542969 25.714844 54.226562 26.066406 53.976562 26.46875 C 53.734375 26.871094 53.542969 27.320312 53.535156 27.855469 C 53.535156 28.332031 53.921875 28.71875 54.398438 28.71875 C 54.875 28.71875 55.261719 28.332031 55.261719 27.855469 C 55.261719 27.816406 55.277344 27.710938 55.335938 27.582031 C 55.421875 27.382812 55.589844 27.144531 55.777344 26.957031 C 55.960938 26.769531 56.175781 26.640625 56.253906 26.621094 L 56.308594 26.601562 C 56.324219 26.59375 56.40625 26.570312 56.503906 26.558594 C 56.605469 26.542969 56.726562 26.535156 56.839844 26.535156 C 56.980469 26.535156 57.117188 26.550781 57.183594 26.570312 L 57.21875 26.582031 L 57.222656 26.582031 L 57.355469 26.316406 L 57.128906 26.5 C 57.179688 26.5625 57.222656 26.582031 57.222656 26.582031 L 57.355469 26.316406 L 57.128906 26.5 C 57.425781 26.871094 57.972656 26.929688 58.34375 26.632812 C 58.714844 26.335938 58.773438 25.792969 58.476562 25.421875 " fill-opacity="1" fill-rule="nonzero"/><path fill="#db3460" d="M 51.582031 33.277344 C 51.820312 34.210938 52.410156 34.972656 53.136719 35.511719 C 53.863281 36.046875 54.742188 36.378906 55.65625 36.382812 C 56.183594 36.382812 56.726562 36.265625 57.21875 35.996094 C 57.714844 35.730469 58.152344 35.308594 58.46875 34.765625 C 58.710938 34.355469 58.570312 33.828125 58.160156 33.589844 C 57.75 33.347656 57.222656 33.484375 56.980469 33.894531 C 56.804688 34.191406 56.609375 34.367188 56.394531 34.484375 C 56.179688 34.601562 55.933594 34.660156 55.65625 34.660156 C 55.183594 34.664062 54.617188 34.46875 54.164062 34.128906 C 53.707031 33.789062 53.371094 33.328125 53.257812 32.859375 C 53.144531 32.398438 52.671875 32.117188 52.210938 32.230469 C 51.75 32.347656 51.46875 32.816406 51.582031 33.277344 " fill-opacity="1" fill-rule="nonzero"/><path fill="#db3460" d="M 47.167969 31.722656 C 46.867188 31.996094 46.652344 32.335938 46.523438 32.683594 C 46.390625 33.035156 46.339844 33.398438 46.335938 33.753906 C 46.339844 34.269531 46.449219 34.777344 46.644531 35.238281 C 46.839844 35.703125 47.113281 36.128906 47.488281 36.46875 L 47.542969 36.515625 C 47.882812 36.773438 48.238281 36.984375 48.617188 37.128906 C 48.996094 37.273438 49.394531 37.351562 49.796875 37.351562 C 50.441406 37.351562 51.070312 37.152344 51.660156 36.816406 C 52.074219 36.582031 52.21875 36.054688 51.984375 35.640625 C 51.75 35.230469 51.222656 35.085938 50.808594 35.320312 C 50.410156 35.542969 50.089844 35.628906 49.796875 35.628906 C 49.613281 35.628906 49.433594 35.59375 49.234375 35.519531 C 49.039062 35.445312 48.824219 35.324219 48.59375 35.148438 L 48.066406 35.832031 L 48.648438 35.195312 C 48.503906 35.066406 48.347656 34.839844 48.238281 34.578125 C 48.125 34.3125 48.0625 34.011719 48.0625 33.753906 C 48.0625 33.574219 48.09375 33.414062 48.140625 33.289062 C 48.1875 33.164062 48.25 33.070312 48.335938 32.992188 C 48.6875 32.671875 48.710938 32.125 48.386719 31.777344 C 48.066406 31.425781 47.519531 31.402344 47.167969 31.722656 " fill-opacity="1" fill-rule="nonzero"/><path fill="#db3460" d="M 51.089844 42.609375 C 51.15625 42.511719 51.253906 42.410156 51.394531 42.308594 C 51.605469 42.160156 51.914062 42.023438 52.273438 41.933594 C 52.628906 41.84375 53.03125 41.796875 53.417969 41.796875 C 53.738281 41.796875 54.050781 41.828125 54.3125 41.886719 C 54.578125 41.941406 54.789062 42.027344 54.902344 42.097656 C 55.390625 42.386719 55.988281 42.945312 56.417969 43.5625 C 56.636719 43.871094 56.8125 44.195312 56.933594 44.5 C 57.050781 44.804688 57.109375 45.089844 57.109375 45.316406 C 57.109375 45.363281 57.105469 45.410156 57.101562 45.460938 C 57.054688 45.933594 57.402344 46.355469 57.875 46.402344 C 58.351562 46.449219 58.773438 46.101562 58.820312 45.628906 C 58.832031 45.527344 58.835938 45.421875 58.835938 45.316406 C 58.835938 44.816406 58.71875 44.332031 58.542969 43.875 C 58.269531 43.1875 57.855469 42.550781 57.378906 41.992188 C 56.898438 41.4375 56.359375 40.960938 55.796875 40.621094 C 55.453125 40.417969 55.078125 40.289062 54.679688 40.203125 C 54.277344 40.117188 53.851562 40.074219 53.417969 40.074219 C 52.722656 40.074219 52.007812 40.179688 51.339844 40.417969 C 51.007812 40.539062 50.691406 40.695312 50.398438 40.902344 C 50.105469 41.109375 49.839844 41.367188 49.632812 41.6875 C 49.378906 42.089844 49.496094 42.621094 49.898438 42.875 C 50.300781 43.132812 50.835938 43.011719 51.09375 42.613281 L 51.089844 42.609375 " fill-opacity="1" fill-rule="nonzero"/><path fill="#1d2a65" d="M 75.625 42.527344 C 79.222656 46.941406 81.988281 53.828125 81.453125 64.5625 L 81.453125 110.921875 L 36.652344 110.921875 L 36.652344 63.292969 C 36.652344 63.292969 36.128906 51.035156 42.222656 42.527344 L 75.625 42.527344 " fill-opacity="1" fill-rule="nonzero"/><path fill="#1d2a65" d="M 74.851562 42.527344 C 76.015625 44.039062 77.003906 45.695312 77.660156 47.289062 C 80.742188 54.761719 79.300781 66.445312 73.726562 73.777344 C 71.753906 76.371094 69.066406 78.492188 66.085938 79.789062 C 61.703125 81.695312 56.6875 81.816406 52.394531 79.023438 C 50.386719 77.714844 48.25 75.875 46.78125 73.976562 C 39.816406 64.996094 39.855469 51.5 45.179688 42.527344 L 74.851562 42.527344 " fill-opacity="1" fill-rule="nonzero"/><path fill="#f8a18f" d="M 66.910156 92.035156 L 52.496094 92.035156 C 55.8125 86.679688 53.210938 79.449219 52.828125 78.460938 L 66.578125 78.460938 C 66.195312 79.449219 63.597656 86.679688 66.910156 92.035156 " fill-opacity="1" fill-rule="nonzero"/><path fill="#f68373" d="M 54.152344 85.414062 C 54.117188 82 53.0625 79.0625 52.828125 78.460938 L 66.578125 78.460938 C 66.34375 79.0625 65.289062 82 65.253906 85.414062 C 65.253906 85.414062 59.988281 91.261719 54.152344 85.414062 " fill-opacity="1" fill-rule="nonzero"/><path fill="#f8a18f" d="M 56.664062 42.527344 L 63.257812 42.527344 C 69.84375 44.679688 75.476562 52.707031 74.097656 62.105469 C 73.726562 64.65625 73.5 66.304688 73.03125 71.300781 C 73.03125 71.300781 72.6875 74.078125 69.988281 76.585938 C 69.988281 76.585938 65.925781 80.613281 61.691406 82.164062 C 61.691406 82.164062 61.007812 82.40625 59.960938 82.425781 C 58.914062 82.40625 58.226562 82.164062 58.226562 82.164062 C 58.226562 82.164062 52.101562 78.960938 49.933594 76.585938 C 47.078125 74.34375 46.886719 71.300781 46.886719 71.300781 C 46.417969 66.304688 46.195312 64.65625 45.820312 62.105469 C 44.445312 52.707031 50.078125 44.679688 56.664062 42.527344 " fill-opacity="1" fill-rule="nonzero"/><path fill="#172345" d="M 50.597656 57.1875 C 50.765625 57.1875 50.933594 57.117188 51.054688 56.976562 C 51.726562 56.203125 53.070312 55.867188 54.339844 56.726562 C 54.613281 56.917969 54.988281 56.84375 55.175781 56.570312 C 55.363281 56.296875 55.292969 55.921875 55.019531 55.734375 C 53.1875 54.488281 51.140625 55.039062 50.140625 56.191406 C 49.921875 56.445312 49.949219 56.824219 50.203125 57.039062 C 50.316406 57.136719 50.457031 57.1875 50.597656 57.1875 " fill-opacity="1" fill-rule="nonzero"/><path fill="#172345" d="M 68.683594 57.1875 C 68.824219 57.1875 68.964844 57.136719 69.078125 57.039062 C 69.332031 56.824219 69.359375 56.445312 69.140625 56.191406 C 68.140625 55.039062 66.09375 54.488281 64.265625 55.734375 C 63.988281 55.921875 63.917969 56.296875 64.109375 56.570312 C 64.292969 56.84375 64.667969 56.917969 64.945312 56.726562 C 66.210938 55.863281 67.554688 56.199219 68.226562 56.976562 C 68.347656 57.117188 68.515625 57.1875 68.683594 57.1875 " fill-opacity="1" fill-rule="nonzero"/><path fill="#f57c6e" d="M 59.46875 69.140625 C 59.726562 69.140625 59.933594 68.933594 59.933594 68.679688 C 59.933594 67.6875 60.605469 67.261719 61.484375 66.808594 C 61.984375 66.546875 62.457031 66.300781 62.484375 65.804688 C 62.511719 65.328125 62.082031 64.976562 61.65625 64.695312 L 61.503906 64.59375 C 60.511719 63.9375 60.511719 63.9375 60.511719 62.105469 C 60.511719 61.847656 60.304688 61.640625 60.046875 61.640625 C 59.789062 61.640625 59.582031 61.847656 59.582031 62.105469 C 59.582031 64.273438 59.613281 64.460938 60.988281 65.367188 L 61.140625 65.46875 C 61.328125 65.589844 61.433594 65.679688 61.492188 65.738281 C 61.382812 65.8125 61.199219 65.910156 61.054688 65.984375 C 60.289062 66.378906 59.003906 67.042969 59.003906 68.679688 C 59.003906 68.933594 59.210938 69.140625 59.46875 69.140625 " fill-opacity="1" fill-rule="nonzero"/><path fill="#f57c6e" d="M 59.390625 72.242188 C 60.78125 72.242188 62.378906 71.644531 62.867188 70.246094 C 62.953125 70.003906 62.824219 69.738281 62.582031 69.65625 C 62.339844 69.566406 62.074219 69.699219 61.988281 69.941406 C 61.636719 70.9375 60.285156 71.386719 59.136719 71.308594 C 58.214844 71.246094 57.160156 70.835938 56.960938 69.878906 C 56.910156 69.625 56.664062 69.464844 56.414062 69.515625 C 56.160156 69.570312 56 69.8125 56.050781 70.066406 C 56.304688 71.292969 57.460938 72.125 59.074219 72.234375 C 59.179688 72.242188 59.285156 72.242188 59.390625 72.242188 " fill-opacity="1" fill-rule="nonzero"/><path fill="#172345" d="M 53.511719 61.820312 C 54.175781 61.820312 54.816406 61.523438 55.269531 61.003906 C 55.4375 60.8125 55.417969 60.519531 55.222656 60.351562 C 55.03125 60.183594 54.738281 60.203125 54.570312 60.398438 C 54.007812 61.039062 53.011719 61.039062 52.453125 60.398438 C 52.285156 60.203125 51.992188 60.183594 51.796875 60.351562 C 51.605469 60.519531 51.585938 60.8125 51.75 61.003906 C 52.203125 61.523438 52.84375 61.820312 53.511719 61.820312 " fill-opacity="1" fill-rule="nonzero"/><path fill="#172345" d="M 66.410156 61.820312 C 67.074219 61.820312 67.714844 61.523438 68.167969 61.003906 C 68.335938 60.8125 68.3125 60.519531 68.121094 60.351562 C 67.925781 60.183594 67.636719 60.203125 67.464844 60.398438 C 67.1875 60.71875 66.8125 60.898438 66.410156 60.898438 C 66.007812 60.898438 65.632812 60.71875 65.351562 60.398438 C 65.183594 60.203125 64.890625 60.183594 64.695312 60.351562 C 64.503906 60.519531 64.484375 60.8125 64.652344 61.003906 C 65.101562 61.523438 65.746094 61.820312 66.410156 61.820312 " fill-opacity="1" fill-rule="nonzero"/><path fill="#f57984" d="M 49.214844 64.65625 C 49.214844 65.550781 50.652344 66.277344 52.425781 66.277344 C 54.195312 66.277344 55.632812 65.550781 55.632812 64.65625 C 55.632812 63.761719 54.195312 63.035156 52.425781 63.035156 C 50.652344 63.035156 49.214844 63.761719 49.214844 64.65625 " fill-opacity="1" fill-rule="nonzero"/><path fill="#f57984" d="M 63.980469 64.65625 C 63.980469 65.550781 65.417969 66.277344 67.1875 66.277344 C 68.960938 66.277344 70.398438 65.550781 70.398438 64.65625 C 70.398438 63.761719 68.960938 63.035156 67.1875 63.035156 C 65.417969 63.035156 63.980469 63.761719 63.980469 64.65625 " fill-opacity="1" fill-rule="nonzero"/><g clip-path="url(#e98e0c71bf)"><path fill="#f8a18f" d="M 80.585938 135.820312 L 38.824219 135.820312 C 35.535156 127.203125 32.074219 118.382812 32.074219 118.382812 C 28.765625 111.007812 29.546875 106.027344 29.546875 106.027344 C 31.246094 99.015625 41.910156 96.585938 41.910156 96.585938 C 52.554688 93.347656 53.714844 90.148438 53.714844 90.148438 L 65.691406 90.148438 C 65.691406 90.148438 66.855469 93.347656 77.496094 96.585938 C 77.496094 96.585938 88.160156 99.015625 89.859375 106.027344 C 89.859375 106.027344 90.640625 111.007812 87.332031 118.382812 C 87.332031 118.382812 83.871094 127.203125 80.585938 135.820312 " fill-opacity="1" fill-rule="nonzero"/></g><path fill="#f8a18f" d="M 42.441406 66.90625 C 42.675781 69.015625 44.15625 70.582031 45.753906 70.40625 C 47.347656 70.234375 48.453125 68.382812 48.222656 66.273438 C 47.988281 64.167969 46.507812 62.597656 44.910156 62.773438 C 43.316406 62.949219 42.210938 64.800781 42.441406 66.90625 " fill-opacity="1" fill-rule="nonzero"/><path fill="#f57c6e" d="M 45.105469 68.90625 C 45.242188 68.90625 45.378906 68.84375 45.46875 68.730469 C 45.628906 68.527344 45.59375 68.234375 45.394531 68.078125 C 44.9375 67.71875 44.644531 66.753906 44.738281 65.925781 C 44.792969 65.449219 44.972656 65.105469 45.230469 64.980469 C 45.460938 64.871094 45.5625 64.597656 45.453125 64.363281 C 45.339844 64.132812 45.0625 64.035156 44.832031 64.144531 C 44.269531 64.410156 43.90625 65.003906 43.8125 65.820312 C 43.703125 66.796875 44.015625 68.171875 44.816406 68.804688 C 44.902344 68.871094 45.003906 68.90625 45.105469 68.90625 " fill-opacity="1" fill-rule="nonzero"/><path fill="#f57c6e" d="M 44.324219 66.875 C 44.441406 66.875 44.5625 66.832031 44.652344 66.738281 C 44.824219 66.570312 45.308594 66.507812 45.804688 66.597656 C 46.054688 66.644531 46.300781 66.476562 46.34375 66.222656 C 46.390625 65.972656 46.222656 65.730469 45.972656 65.683594 C 45.65625 65.628906 44.589844 65.488281 43.996094 66.082031 C 43.8125 66.265625 43.8125 66.558594 43.996094 66.738281 C 44.085938 66.832031 44.207031 66.875 44.324219 66.875 " fill-opacity="1" fill-rule="nonzero"/><path fill="#f8a18f" d="M 77.171875 66.90625 C 76.9375 69.015625 75.457031 70.582031 73.859375 70.40625 C 72.265625 70.234375 71.160156 68.382812 71.390625 66.273438 C 71.625 64.167969 73.105469 62.597656 74.699219 62.773438 C 76.296875 62.949219 77.402344 64.800781 77.171875 66.90625 " fill-opacity="1" fill-rule="nonzero"/><path fill="#f57c6e" d="M 74.507812 68.90625 C 74.609375 68.90625 74.710938 68.871094 74.796875 68.804688 C 75.597656 68.171875 75.910156 66.796875 75.796875 65.820312 C 75.707031 65.003906 75.34375 64.410156 74.78125 64.144531 C 74.550781 64.035156 74.269531 64.132812 74.160156 64.363281 C 74.050781 64.597656 74.152344 64.871094 74.382812 64.980469 C 74.640625 65.105469 74.820312 65.449219 74.875 65.925781 C 74.96875 66.753906 74.675781 67.71875 74.21875 68.078125 C 74.015625 68.234375 73.984375 68.527344 74.140625 68.730469 C 74.234375 68.84375 74.371094 68.90625 74.507812 68.90625 " fill-opacity="1" fill-rule="nonzero"/><path fill="#f57c6e" d="M 75.289062 66.875 C 75.40625 66.875 75.527344 66.828125 75.617188 66.738281 C 75.796875 66.554688 75.796875 66.261719 75.617188 66.082031 C 75.019531 65.488281 73.953125 65.628906 73.640625 65.683594 C 73.390625 65.730469 73.222656 65.972656 73.265625 66.222656 C 73.3125 66.476562 73.558594 66.640625 73.808594 66.597656 C 74.304688 66.507812 74.789062 66.570312 74.960938 66.738281 C 75.050781 66.832031 75.167969 66.875 75.289062 66.875 " fill-opacity="1" fill-rule="nonzero"/><g clip-path="url(#8470145df2)"><path fill="#f8a18f" d="M 84.546875 135.820312 C 82.710938 131.335938 80.394531 125.542969 77.101562 117.449219 C 77.101562 117.449219 72.777344 104.992188 81.347656 98.078125 C 81.347656 98.078125 88.242188 99.171875 91.648438 109.769531 C 93.917969 116.980469 97.253906 126.820312 100.222656 135.820312 L 84.546875 135.820312 " fill-opacity="1" fill-rule="nonzero"/></g><g clip-path="url(#94afd4a066)"><path fill="#f8a18f" d="M 34.351562 135.820312 L 18.675781 135.820312 C 21.644531 126.820312 24.980469 116.980469 27.25 109.769531 C 30.65625 99.171875 37.550781 98.078125 37.550781 98.078125 C 46.121094 104.992188 41.800781 117.449219 41.800781 117.449219 C 38.503906 125.542969 36.1875 131.335938 34.351562 135.820312 " fill-opacity="1" fill-rule="nonzero"/></g><g clip-path="url(#12d57d48e2)"><path fill="#4375c3" d="M 80.589844 135.820312 L 38.820312 135.820312 C 38.0625 133.832031 37.3125 131.878906 36.652344 130.160156 C 44.152344 115.503906 41.910156 96.585938 41.910156 96.585938 C 43.402344 96.128906 44.710938 95.675781 45.855469 95.234375 C 47.371094 106.410156 59.363281 105.035156 59.363281 105.035156 C 74.859375 105.34375 74.179688 95.46875 74.179688 95.46875 C 75.167969 95.835938 76.269531 96.210938 77.496094 96.585938 C 77.496094 96.585938 74.179688 115.503906 82.507812 130.800781 C 81.933594 132.300781 81.269531 134.03125 80.589844 135.820312 " fill-opacity="1" fill-rule="nonzero"/></g><path fill="#172345" d="M 59.019531 105.492188 C 62.519531 105.492188 66.019531 105.097656 68.265625 104.40625 C 71.886719 103.292969 75.453125 99.75 74.925781 95.386719 C 74.898438 95.128906 74.660156 94.949219 74.410156 94.980469 C 74.15625 95.011719 73.976562 95.242188 74.007812 95.496094 C 74.453125 99.222656 71.300781 102.503906 67.992188 103.523438 C 65.109375 104.410156 60.042969 104.789062 55.671875 104.4375 C 55.414062 104.425781 55.191406 104.605469 55.171875 104.863281 C 55.152344 105.117188 55.339844 105.339844 55.597656 105.359375 C 56.707031 105.449219 57.863281 105.492188 59.019531 105.492188 " fill-opacity="1" fill-rule="nonzero"/><path fill="#172345" d="M 65.636719 131 C 68.234375 131 71.230469 130.246094 73.667969 129.542969 C 77.542969 128.425781 78.210938 126.09375 78.789062 122.664062 C 78.832031 122.410156 78.660156 122.171875 78.410156 122.128906 C 78.160156 122.09375 77.917969 122.257812 77.875 122.511719 C 77.277344 126.058594 76.671875 127.714844 73.410156 128.65625 C 70.597656 129.464844 67.023438 130.347656 64.324219 129.996094 C 64.074219 129.957031 63.835938 130.136719 63.804688 130.394531 C 63.773438 130.644531 63.949219 130.878906 64.203125 130.914062 C 64.660156 130.972656 65.140625 131 65.636719 131 " fill-opacity="1" fill-rule="nonzero"/><path fill="#1d2a65" d="M 49.660156 42.527344 L 71.121094 42.527344 C 74.90625 46.261719 77.394531 52.871094 73.726562 64.5625 C 73.726562 64.5625 73.199219 40.601562 59.703125 45.203125 C 59.703125 45.203125 46.332031 40.769531 46.179688 64.65625 C 46.179688 64.65625 41.527344 50.457031 49.660156 42.527344 " fill-opacity="1" fill-rule="nonzero"/><g clip-path="url(#6f21221b78)"><path fill="#f8a18f" d="M 63.453125 135.820312 C 63.390625 135.761719 63.320312 135.699219 63.269531 135.648438 L 66.835938 131.917969 C 66.835938 131.917969 71.71875 133.574219 80.507812 135.820312 L 63.453125 135.820312 " fill-opacity="1" fill-rule="nonzero"/></g><g clip-path="url(#35b593b8aa)"><path fill="#f8a18f" d="M 61.5625 135.820312 C 59.917969 134.382812 59.703125 131.75 59.703125 131.75 L 59.703125 114.34375 C 60.652344 113.09375 61.863281 115.085938 61.863281 115.085938 C 61.863281 115.085938 62.304688 116.710938 63.269531 123.03125 C 63.269531 123.03125 64.039062 129.375 66.835938 131.917969 L 65.21875 135.820312 L 61.5625 135.820312 " fill-opacity="1" fill-rule="nonzero"/></g><g clip-path="url(#31a0d326e5)"><path fill="#f8a18f" d="M 38.648438 135.820312 C 47.617188 133.566406 52.535156 131.917969 52.535156 131.917969 L 56.101562 135.648438 C 56.046875 135.699219 55.980469 135.761719 55.917969 135.820312 L 38.648438 135.820312 " fill-opacity="1" fill-rule="nonzero"/></g><g clip-path="url(#61a382dfe8)"><path fill="#f8a18f" d="M 57.324219 135.820312 L 53.898438 135.820312 L 52.535156 131.917969 C 55.332031 129.375 56.101562 123.03125 56.101562 123.03125 C 57.066406 116.710938 57.507812 115.085938 57.507812 115.085938 C 57.507812 115.085938 58.714844 113.09375 59.667969 114.34375 L 59.667969 131.75 C 59.667969 131.75 59.679688 134.144531 57.324219 135.820312 " fill-opacity="1" fill-rule="nonzero"/></g><g clip-path="url(#6e278fbd20)"><path fill="#1d1e32" d="M 112.804688 135.410156 L 10.203125 135.410156 C 10.046875 135.410156 9.917969 135.535156 9.917969 135.691406 C 9.917969 135.847656 10.046875 135.976562 10.203125 135.976562 L 112.804688 135.976562 C 112.960938 135.976562 113.089844 135.847656 113.089844 135.691406 C 113.089844 135.535156 112.960938 135.410156 112.804688 135.410156 " fill-opacity="1" fill-rule="nonzero"/></g></svg>